<?xml version="1.0" encoding="UTF-8" standalone="no"?>
<!-- Created with Inkscape (http://www.inkscape.org/) -->

<svg
   xmlns:dc="http://purl.org/dc/elements/1.1/"
   xmlns:cc="http://creativecommons.org/ns#"
   xmlns:rdf="http://www.w3.org/1999/02/22-rdf-syntax-ns#"
   xmlns:svg="http://www.w3.org/2000/svg"
   xmlns="http://www.w3.org/2000/svg"
   xmlns:sodipodi="http://sodipodi.sourceforge.net/DTD/sodipodi-0.dtd"
   xmlns:inkscape="http://www.inkscape.org/namespaces/inkscape"
   id="svg2"
   version="1.1"
   inkscape:version="0.48.1 "
   width="600"
   height="492"
   sodipodi:docname="Map_Gyeosangbuk-do.svg">
  <metadata
     id="metadata8">
    <rdf:RDF>
      <cc:Work
         rdf:about="">
        <dc:format>image/svg+xml</dc:format>
        <dc:type
           rdf:resource="http://purl.org/dc/dcmitype/StillImage" />
        <dc:title />
      </cc:Work>
    </rdf:RDF>
  </metadata>
  <defs
     id="defs6" />
  <sodipodi:namedview
     pagecolor="#ffffff"
     bordercolor="#666666"
     borderopacity="1"
     objecttolerance="10"
     gridtolerance="10"
     guidetolerance="10"
     inkscape:pageopacity="0"
     inkscape:pageshadow="2"
     inkscape:window-width="1440"
     inkscape:window-height="878"
     id="namedview4"
     showgrid="false"
     inkscape:zoom="1.0609756"
     inkscape:cx="268.74811"
     inkscape:cy="173.04466"
     inkscape:window-x="-8"
     inkscape:window-y="-8"
     inkscape:window-maximized="1"
     inkscape:current-layer="layer2" />
  <g
     inkscape:groupmode="layer"
     id="layer2"
     inkscape:label="bggray"
     style="display:inline">
    <g
       id="g3804">
      <g
         id="g3785">
        <rect
           style="fill:#efefef;fill-opacity:1;stroke:none"
           id="rect3007"
           width="600"
           height="492"
           x="0"
           y="-8.4973695e-014" />
        <path
           sodipodi:nodetypes="csssssssssssssssscssssssssssssssssssssssssssssssssc"
           style="color:#000000;fill:none;stroke:#838383;stroke-width:1px;stroke-linecap:butt;stroke-linejoin:miter;stroke-miterlimit:4;stroke-opacity:1;stroke-dasharray:none;stroke-dashoffset:0;marker:none;visibility:visible;display:inline;overflow:visible;enable-background:accumulate"
           d="m 426.87305,0.47951004 c 0,0 8.66409,31.32401796 10.99673,33.65665696 2.33264,2.33264 -0.66647,5.664982 3.99881,8.997325 4.66528,3.332342 11.99643,6.664684 11.32996,8.330855 -0.66647,1.666171 -3.66557,3.665577 -3.33234,7.664388 0.33324,3.99881 -0.66647,6.33145 1.33294,6.33145 1.9994,0 0,2.33264 -0.66647,4.665279 -0.66647,2.33264 -3.99881,3.665577 -1.99941,5.998216 1.99941,2.33264 5.99822,7.331153 5.66499,13.32937 -0.33324,5.998216 -1.99941,9.663792 -2.33264,12.6629 -0.33324,2.99911 -0.99971,3.33234 1.33293,6.66468 2.33264,3.33235 13.32937,17.66142 12.99614,21.327 -0.33324,3.66557 -3.99881,7.33115 -1.99941,10.99673 1.99941,3.66557 4.33205,5.33174 0,9.66379 -4.33204,4.33204 -7.33115,7.33115 -6.99792,9.66379 0.33324,2.33264 -0.33323,3.99881 -1.66617,4.33205 -1.33293,0.33323 -3.66557,-0.33324 -2.99911,2.9991 0.66647,3.33235 0.99971,6.66469 0.99971,6.66469 0,0 -2.66588,-0.9997 -2.33264,2.66587 0.33323,3.66558 3.33234,5.99822 3.33234,8.33086 0,2.33264 -0.9997,7.66439 0.66647,9.66379 1.66617,1.99941 1.9994,5.99822 3.66558,9.66379 1.66617,3.66558 7.99762,6.66469 3.33234,12.32967 -4.66528,5.66498 -13.66261,22.99316 -15.66201,23.99286 -1.99941,0.99971 -5.66498,2.99911 -6.33145,8.99733 -0.66647,5.99821 0.33323,7.33115 0.66647,10.66349 0.33323,3.33235 -2.99911,10.6635 -2.33264,12.32967 0.66647,1.66617 3.66557,5.99822 3.33234,8.66409 -0.33323,2.66587 -2.99911,11.6632 -0.9997,12.32967 1.9994,0.66647 7.33115,2.99911 5.66498,9.66379 -1.66617,6.66468 -8.66409,15.99524 -8.33086,18.99435 0.33324,2.99911 1.99941,8.33086 3.33235,9.66379 1.33293,1.33294 8.99732,0.99971 9.99702,6.33145 0.9997,5.33175 3.66558,5.66499 7.33116,4.99852 3.66557,-0.66647 7.66438,-4.99852 10.33026,-4.66528 2.66587,0.33323 13.6626,-17.66142 16.66171,-16.66171 2.99911,0.9997 9.33056,0 9.66379,2.9991 0.33323,2.99911 -3.66558,15.99525 -4.66528,19.66082 -0.9997,3.66558 -9.99703,17.32818 -9.66379,21.327 0.33323,3.99881 -1.66617,17.99464 -2.33264,20.66052 -0.66647,2.66587 -8.99733,14.99554 -9.99703,23.32639 -0.9997,8.33086 -7.99762,25.32581 -8.99732,28.99138 -0.9997,3.66558 3.99881,6.33145 3.33234,10.99673 -0.66647,4.66528 -2.99911,7.33115 -3.33234,12.99614 -0.33324,5.66498 -3.33234,17.66141 -4.66528,20.66052 -1.33294,2.99911 -3.33234,2.99911 -5.33175,0.9997 -1.9994,-1.9994 -4.99851,-13.6626 -6.99792,-12.99613 -1.9994,0.66646 -3.99881,1.33293 -3.33234,4.66528 0.66647,3.33234 5.33175,4.33204 3.33234,6.33145 -1.9994,1.9994 -6.33145,2.9991 -6.99792,4.99851 -0.66646,1.9994 -1.33293,3.83219 -1.33293,3.83219"
           id="path3009"
           inkscape:connector-curvature="0" />
      </g>
      <path
         inkscape:connector-curvature="0"
         id="path3802"
         d="m 435.90097,490.59248 c 0,-0.96573 1.17773,-2.13286 6.12643,-6.07124 l 2.82759,-2.25032 -2.12069,-2.87002 c -2.43494,-3.2953 -2.70077,-5.34966 -0.78727,-6.08393 0.93564,-0.35904 2.11075,1.31729 3.9391,5.61924 4.62641,10.88552 8.5028,11.07485 11.61935,0.56751 1.03559,-3.49141 2.36762,-9.4931 2.96008,-13.33709 0.59245,-3.84398 1.66986,-8.66886 2.39423,-10.72194 1.79235,-5.08007 1.65606,-7.90875 -0.55333,-11.48361 l -1.87036,-3.02631 3.7731,-11.11454 c 2.0752,-6.11298 4.45008,-14.13224 5.2775,-17.82057 0.82742,-3.68832 3.56991,-10.83811 6.09441,-15.88845 4.27618,-8.5546 4.66627,-9.94009 5.70557,-20.26436 1.03714,-10.30287 1.43777,-11.7309 5.69871,-20.31264 4.49404,-9.05123 9.23034,-24.02715 9.23504,-29.20069 0.003,-3.11266 -2.68654,-4.45368 -8.93168,-4.45368 -3.96945,0 -4.29615,0.23673 -10.36086,7.50795 -4.97145,5.96045 -7.49261,8.1137 -12.2318,10.44679 -7.49491,3.68973 -9.71879,3.42891 -12.24271,-1.43582 -1.4956,-2.88267 -2.91529,-4.10402 -6.16317,-5.30212 -7.17493,-2.64671 -8.4064,-8.67251 -3.68417,-18.02721 4.74992,-9.40953 5.72829,-12.87878 4.5979,-16.30389 -0.54177,-1.64157 -2.07521,-3.56811 -3.40765,-4.28121 -2.36889,-1.26779 -2.40812,-1.45127 -1.76891,-8.27259 0.52544,-5.60722 0.33424,-7.68449 -0.97439,-10.58651 -1.37,-3.03814 -1.45917,-4.28132 -0.56247,-7.84242 0.58609,-2.32759 1.06562,-7.87956 1.06562,-12.33773 l 0,-8.10577 4.1289,-4.43663 c 3.69214,-3.96733 17.56701,-24.96448 19.04973,-28.82839 0.3433,-0.89463 -0.59635,-3.37049 -2.27801,-6.00227 -3.91683,-6.12979 -7.08431,-14.9971 -6.91358,-19.35442 0.0779,-1.98871 -0.43872,-4.75715 -1.1481,-6.15209 -2.36457,-4.64972 -2.73042,-6.77763 -1.16525,-6.77763 1.16764,0 1.32843,-0.88207 0.86856,-4.76493 -0.5046,-4.26056 -0.35963,-4.81846 1.36958,-5.27066 1.31898,-0.34492 2.13643,-1.58522 2.5708,-3.90062 0.38614,-2.05826 2.23023,-5.16706 4.68384,-7.89607 4.81883,-5.3597 5.47652,-7.32974 3.62563,-10.86012 -0.97014,-1.85045 -1.18463,-3.79235 -0.70939,-6.42254 1.66819,-9.23248 0.46117,-12.25297 -11.19885,-28.02435 -1.77868,-2.40585 -1.8309,-3.05979 -0.79027,-9.89655 1.88311,-12.371578 1.17878,-16.945234 -3.41626,-22.184038 -1.33114,-1.517641 -1.27837,-1.996953 0.58493,-5.312237 2.18453,-3.886849 2.6474,-6.686273 1.10556,-6.686273 -1.46118,0 -1.11089,-7.899885 0.44128,-9.952039 2.56339,-3.389104 1.68884,-4.983695 -5.13068,-9.354899 -4.85646,-3.11291 -6.72408,-4.896941 -7.14705,-6.827153 -0.31493,-1.43717 -1.44385,-4.733725 -2.5087,-7.325679 -1.97073,-4.796926 -9.21807,-28.2036941 -9.21807,-29.7716195 0,-0.51276283 34.66446,-0.86056488 85.77011,-0.86056488 l 85.77012,0 0,245.52873238 0,245.52874 -82,0 c -54.03832,0 -82,-0.3214 -82,-0.94253 z"
         style="fill:#c6ecff;fill-opacity:1;stroke:none" />
    </g>
    <path
       style="color:#000000;fill:none;stroke:#838383;stroke-width:1px;stroke-linecap:butt;stroke-linejoin:miter;stroke-miterlimit:4;stroke-opacity:1;stroke-dasharray:none;stroke-dashoffset:0;marker:none;visibility:visible;display:inline;overflow:visible;enable-background:accumulate"
       d="m 434.50575,25.91954 c 0,0 -8.0115,1.885057 -11.07472,4.241379 -3.06321,2.356322 -10.60344,5.655172 -12.4885,4.477012 -1.88506,-1.178161 -2.12069,1.413793 -4.71264,3.063218 -2.59196,1.649425 -5.89081,2.827586 -6.36207,5.41954 -0.47127,2.591954 0.23563,12.017242 -2.82759,12.95977 -3.06322,0.942529 -6.36207,-1.178161 -10.83908,-1.178161 -4.47701,0 -3.77012,1.413793 -8.95402,-3.29885 C 372.06322,46.890804 362.87356,39.350574 360.75287,41 c -2.12069,1.649425 -8.24712,7.775862 -11.07471,6.362068 -2.82758,-1.413793 -8.01149,-2.591954 -15.08046,-2.591954 -7.06896,0 -13.1954,0.471265 -16.02299,-1.885057 -2.82758,-2.356322 -5.18391,-1.413793 -6.12643,0.235632 -0.94253,1.649425 -5.65518,8.482759 -8.0115,8.954023 -2.35632,0.471265 -14.84483,1.885058 -18.85057,-2.356322 -4.00575,-4.241379 -11.78161,-9.425287 -13.66667,-6.126436 -1.88506,3.29885 -4.71264,6.126436 -4.94828,9.425287 -0.23563,3.29885 -2.59195,3.063218 -4.24137,3.534483 -1.64943,0.471264 -4.71265,-1.178161 -7.06897,-2.591954 -2.35632,-1.413793 -13.9023,0 -14.84483,-0.706897 -0.94253,-0.706896 -2.12069,-4.005747 -3.06322,-3.063218 -0.94252,0.942528 -1.17816,2.591954 -3.06321,3.29885 -1.88506,0.706897 -16.25863,1.178161 -17.43679,4.005747 -1.17816,2.827587 -4.71264,9.425288 -6.5977,10.367817 -1.88505,0.942528 -8.71839,0.942528 -10.60345,3.29885 -1.88505,2.356322 -4.00574,5.655173 -7.30459,6.126437 -3.29885,0.471264 -2.59196,2.356322 -4.47701,6.126437 -1.88506,3.770115 -5.65518,3.534482 -5.65518,3.534482 0,0 -0.23563,2.356322 -0.94253,4.005748 -0.70689,1.649425 -3.29885,2.827586 -3.29885,6.126436 0,3.298851 2.12069,4.948281 2.35633,7.068961 0.23563,2.12069 -0.23564,3.29886 -1.17817,5.18391 -0.94252,1.88506 -1.41379,9.66092 -4.24137,9.18966 -2.82759,-0.47127 -6.59771,-0.94253 -8.7184,-1.41379 -2.12069,-0.47127 -21.67816,1.17816 -24.27011,-1.88506 -2.59195,-3.06322 -10.60345,-13.43104 -14.6092,-10.36782 -4.00574,3.06322 -4.94827,3.29885 -7.30459,4.71265 -2.35633,1.41379 -1.4138,5.1839 -3.29885,6.12643 -1.88506,0.94253 -12.95977,1.64943 -14.6092,0.23563 -1.64943,-1.41379 -0.23563,-6.36206 -4.948276,-3.29885 -4.712643,3.06322 -12.017241,9.66092 -13.666666,7.06897 -1.649426,-2.59195 -6.126437,-4.71264 -6.597702,-3.77012 -0.471264,0.94253 -3.063218,4.47702 -3.063218,6.12644 0,1.64943 -3.063218,3.06322 -4.241379,4.24138 -1.178161,1.17816 -1.649426,11.07471 1.413793,12.72414 3.063218,1.64942 6.597701,3.77011 5.655172,6.5977 -0.942529,2.82759 -7.54023,5.18391 -9.425287,2.59195 -1.885058,-2.59195 -6.833333,-5.41954 -9.189655,-5.65517 -2.356322,-0.23563 -4.477012,-3.29885 -5.419541,-3.77011 -0.942528,-0.47127 -5.183908,0 -6.126436,1.64942 -0.942529,1.64943 -3.770115,10.60345 -6.597702,10.60345 -2.827586,0 -6.362068,-1.17816 -7.540229,0.94253 -1.178161,2.12069 -5.419541,3.53448 -0.942529,4.47701 4.477011,0.94253 7.775862,0.23563 8.482758,2.59195 0.706897,2.35633 1.413794,10.36782 0.471265,12.01725 -0.942529,1.64942 -4.005747,1.88505 -6.597701,0.70689 -2.591954,-1.17816 -2.827587,-4.47701 -6.362069,-5.18391 -3.534483,-0.70689 -6.362069,-1.41379 -7.775862,2.59196 -1.413793,4.00574 -1.649426,6.36207 -7.304598,6.12643 -5.6551725,-0.23563 -9.6609196,-0.47126 -10.3678162,1.88506 -0.7068965,2.35632 0,8.0115 3.2988506,8.95402 3.2988506,0.94253 15.0804596,1.88506 16.9655176,3.29886 1.885057,1.41379 9.660919,6.12643 9.896551,8.95402 0.235633,2.82758 -0.471264,6.83333 -3.29885,6.83333 -2.827586,0 -4.712644,0.94253 -4.712644,2.59196 0,1.64942 -1.649425,3.53448 0.471265,4.47701 2.120689,0.94253 1.649425,5.8908 -0.235633,7.06896 -1.885057,1.17816 0.942529,3.29885 0,5.65518 -0.942528,2.35632 -3.534482,7.06896 -1.885057,8.48275 1.649425,1.4138 4.948276,1.17816 4.712644,5.41954 -0.235633,4.24138 -1.178161,6.36207 -3.770115,8.7184 -2.591954,2.35632 -2.356322,3.77011 -2.827587,6.12643 -0.471264,2.35632 -2.591954,4.00575 -4.005747,5.41954 -1.413793,1.4138 -1.649425,4.47701 1.885058,5.18391 3.534482,0.7069 8.718391,-3.06322 10.603448,-3.06322 1.885057,0 5.655172,2.82759 8.247126,4.24138 2.591954,1.41379 5.655173,4.00575 9.189656,3.53448 3.534482,-0.47126 5.890804,-0.70689 9.896551,-1.88505 4.005748,-1.17816 9.896552,0.47126 10.839081,2.12069 0.942529,1.64942 0,9.18965 1.413793,10.83908 1.413793,1.64942 6.597701,1.88505 5.41954,4.24138 -1.178161,2.35632 -3.534483,4.24138 -5.890804,4.00574 -2.356322,-0.23563 -4.948276,-2.12069 -7.775862,-1.64942 -2.827587,0.47126 -6.597702,2.12069 -7.304598,4.00574 -0.706897,1.88506 -0.235632,5.89081 1.413793,6.83334 1.649425,0.94253 1.885057,3.06322 0.706896,4.47701 -1.17816,1.41379 -0.471264,5.8908 -2.356321,6.36207 -1.885058,0.47126 -4.24138,1.41379 -4.477012,2.59195 -0.235632,1.17816 -2.827586,2.35632 -1.649425,4.94828 1.178161,2.59195 1.885057,5.41954 0.235632,7.54023 -1.649425,2.12069 -2.12069,5.65517 -5.655172,5.65517 -3.534483,0 -9.425288,0.7069 -10.603449,2.82759 -1.178161,2.12069 -9.896551,6.5977 -10.367816,9.18965 -0.471264,2.59196 7.775862,8.0115 9.896552,9.42529 2.12069,1.41379 4.241379,4.00575 4.005747,5.8908 -0.235632,1.88506 -1.178161,3.29885 -3.770115,4.24138 -2.591954,0.94253 -6.597701,3.06322 -8.247126,3.06322 -1.649426,0 -5.183908,1.17816 -6.597701,1.17816 -1.413794,0 -4.712644,0.7069 -5.655173,3.53449 -0.9425286,2.82758 -0.4712643,5.41954 -3.5344827,5.65517 -3.0632184,0.23563 -7.30459767,0.47126 -7.30459767,0.47126"
       id="path3810"
       inkscape:connector-curvature="0" />
    <g
       id="g3816">
      <path
         inkscape:connector-curvature="0"
         id="path3812"
         d="m 28.275862,361.93103 c 0,0 -1.885057,6.36207 2.12069,8.0115 4.005747,1.64942 7.54023,0.23563 8.718391,2.12069 1.17816,1.88506 -0.471265,7.06896 3.534482,7.77586 4.005747,0.7069 12.724138,0 13.902299,2.12069 1.178161,2.12069 -1.649425,5.8908 4.712644,5.65517 6.362069,-0.23563 5.183908,-2.59195 9.896552,-3.06322 4.712643,-0.47126 8.247126,0.94253 9.425287,2.12069 1.178161,1.17816 7.068966,3.29885 8.954023,4.24138 1.885057,0.94253 2.356322,0 2.591954,3.06322 0.235632,3.06322 -0.942529,5.41954 1.178161,6.5977 2.12069,1.17816 6.833335,3.29885 9.660915,5.18391 2.82759,1.88506 4.71265,1.88506 5.18391,4.94828 0.47127,3.06321 0,4.00574 1.4138,5.65517 1.41379,1.64942 1.64942,9.18965 -0.94253,10.36781 -2.59196,1.17817 -8.48276,4.24138 -7.3046,6.83334 1.17816,2.59195 10.60345,8.24712 13.43103,8.95402 2.82759,0.7069 14.6092,-0.23563 17.20115,-1.41379 2.59196,-1.17816 3.77012,-3.77012 6.36207,-4.00575 2.59196,-0.23563 17.43678,6.12644 19.55747,8.48276 2.12069,2.35632 3.77012,3.29885 6.83334,2.59195 3.06322,-0.70689 3.53448,-2.82758 5.41954,-3.53448 1.88505,-0.7069 5.8908,0.94253 9.89655,-0.94253 4.00575,-1.88506 28.27586,-2.12069 30.63218,0.23563 2.35632,2.35633 4.71265,9.66092 7.3046,11.07472 2.59195,1.41379 17.43678,2.35632 18.85058,0.23563 1.41379,-2.12069 8.01149,-2.59195 9.66091,-2.12069 1.64943,0.47126 0,2.59195 4.71265,3.29885 4.71264,0.7069 14.37356,0.94253 15.78735,2.59195 1.4138,1.64943 3.29886,3.53449 5.65518,3.53449 2.35632,0 6.36207,-7.3046 10.83908,-8.48276 4.47701,-1.17816 16.25862,-1.41379 18.14368,-4.47701 1.88505,-3.06322 6.12643,-6.36207 10.13218,-6.83334 4.00575,-0.47126 5.41954,2.59196 12.95977,3.77012 7.54023,1.17816 12.25287,0.47126 14.6092,-0.94253 2.35632,-1.41379 6.83333,-3.29885 8.24712,-2.82759 1.41379,0.47127 7.06897,4.47702 1.88506,8.95403 -5.18391,4.47701 -12.95977,9.18965 -13.9023,11.07471 -0.94253,1.88506 -0.94253,7.3046 1.17816,8.48276 2.12069,1.17816 5.65517,1.88506 9.18966,0.47126 3.53448,-1.41379 7.77586,0.23563 8.48275,4.24138 0.7069,4.00575 1.17817,4.00575 5.18391,4.47701 4.00575,0.47127 6.83334,1.4138 7.54023,3.53449 0.7069,2.12069 2.35632,2.82758 3.06322,4.00574 0.7069,1.17816 0.7069,3.77012 0.7069,3.77012"
         style="color:#000000;fill:none;stroke:#838383;stroke-width:1px;stroke-linecap:butt;stroke-linejoin:miter;stroke-miterlimit:4;stroke-opacity:1;stroke-dasharray:none;stroke-dashoffset:0;marker:none;visibility:visible;display:inline;overflow:visible;enable-background:accumulate" />
      <path
         inkscape:connector-curvature="0"
         id="path3814"
         d="m 351.56322,447.46552 c 0,0 -2.12069,1.41379 2.59195,-2.35632 4.71265,-3.77012 3.77012,-9.89656 3.53449,-12.01725 -0.23564,-2.12069 0.94252,-4.71264 4.71264,-7.30459 3.77011,-2.59196 9.66092,-7.3046 13.43103,-5.65518 3.77012,1.64943 9.42529,2.82759 11.07472,1.17816 1.64942,-1.64942 4.94827,2.59196 9.89655,2.82759 4.94827,0.23563 8.48276,-1.41379 9.18965,3.77012 0.7069,5.1839 1.4138,9.66092 6.12644,10.13218 4.71264,0.47126 15.78736,1.64943 17.90805,-0.94253 2.12069,-2.59195 4.24138,-6.5977 7.54023,-5.41954 3.29885,1.17816 8.01149,4.24138 12.01724,4.94828 4.00574,0.70689 10.36781,3.06322 10.36781,3.06322"
         style="color:#000000;fill:none;stroke:#838383;stroke-width:1px;stroke-linecap:butt;stroke-linejoin:miter;stroke-miterlimit:4;stroke-opacity:1;stroke-dasharray:none;stroke-dashoffset:0;marker:none;visibility:visible;display:inline;overflow:visible;enable-background:accumulate" />
    </g>
    <path
       style="fill:#fefee9;fill-opacity:1;stroke:none"
       d="m 268.52037,459.24993 c -1.43882,-1.43882 -4.20863,-2.25228 -10.68552,-3.1382 -6.53871,-0.89438 -8.97843,-1.61616 -9.67597,-2.8626 -0.77378,-1.38267 -1.67315,-1.55567 -5.27766,-1.01514 -2.3897,0.35836 -5.19667,1.24815 -6.23769,1.97731 -1.1738,0.82217 -4.05073,1.28339 -7.57386,1.21424 -9.62713,-0.18898 -11.05141,-0.79272 -13.77897,-5.84084 -4.22567,-7.8208 -3.98061,-7.71947 -18.56064,-7.67396 -17.55842,0.0549 -27.05424,1.16297 -29.07209,3.39267 -2.17255,2.40063 -5.54922,2.19446 -9.15954,-0.55927 -3.91158,-2.9835 -16.09714,-8.16835 -19.41948,-8.26281 -1.41577,-0.0402 -3.94927,0.94375 -5.63,2.18667 -4.13496,3.05787 -16.93978,3.80136 -21.85574,1.26901 -4.11485,-2.11968 -9.31956,-6.0777 -9.31956,-7.08724 0,-0.43196 1.89094,-2.08638 4.20209,-3.67649 5.17104,-3.55778 6.05669,-6.86146 3.8158,-14.234 -2.24957,-7.40111 -2.30937,-7.47118 -9.97191,-11.68359 -6.838824,-3.75959 -7.006658,-3.93943 -7.288905,-7.81045 -0.288442,-3.95597 -0.301186,-3.96824 -8.044616,-7.7513 -8.666343,-4.23397 -12.49584,-4.6702 -19.417285,-2.21192 -5.347901,1.89941 -7.145505,1.37236 -7.882184,-2.31104 -0.609737,-3.04868 -3.005432,-3.96562 -10.433108,-3.99319 -4.979443,-0.0185 -5.83367,-0.64479 -6.605201,-4.84284 -0.671489,-3.65371 -1.921759,-4.56802 -6.246516,-4.56802 -1.475747,0 -3.349679,-0.66649 -4.164292,-1.48111 -1.794346,-1.79435 -1.966826,-6.05911 -0.245048,-6.05911 2.099936,0 5.361632,-3.72345 5.361632,-6.12066 0,-1.66246 -1.761119,-3.75149 -6.524368,-7.73915 -3.588402,-3.00412 -6.557367,-5.95271 -6.597701,-6.55243 -0.08532,-1.26863 7.909861,-8.16638 11.843821,-10.21811 1.480623,-0.77221 4.244855,-1.40663 6.142739,-1.40983 5.777087,-0.01 10.480748,-7.07545 8.383048,-12.59281 -1.239344,-3.25972 -0.07604,-5.71539 3.610614,-7.62184 3.831382,-1.98129 5.785045,-9.00643 3.554665,-12.78216 -2.554191,-4.3239 -2.030906,-6.49408 1.972239,-8.17935 2.903717,-1.22244 4.25753,-1.29641 7.586053,-0.41454 4.324721,1.14581 7.034523,0.38289 9.349489,-2.63227 1.730429,-2.25382 1.497368,-2.80219 -2.090714,-4.91921 -3.027707,-1.78639 -3.298851,-2.31126 -3.298851,-6.38577 0,-2.44167 -0.601619,-5.26271 -1.336932,-6.26897 -1.399479,-1.91516 -3.125872,-2.02304 -19.3987,-1.21212 -5.691092,0.28361 -6.528293,0.055 -11.781609,-3.21687 -6.129835,-3.81781 -8.162101,-4.18232 -11.781609,-2.11323 -1.295977,0.74085 -3.522701,1.36203 -4.948276,1.38039 -3.314485,0.0427 -3.398957,-2.03426 -0.235632,-5.79365 1.295977,-1.54018 2.356322,-3.58353 2.356322,-4.54076 0,-0.95723 1.048417,-2.9864 2.329817,-4.50925 4.930075,-5.85906 5.449648,-10.64685 1.528769,-14.08736 -2.704869,-2.37347 -2.722017,-2.45196 -1.371587,-6.27702 0.75214,-2.13042 1.13491,-4.80181 0.850598,-5.93642 -0.284311,-1.13461 -0.09124,-2.32603 0.429058,-2.64758 1.272433,-0.78641 1.206564,-6.43352 -0.09017,-7.73025 -1.514812,-1.51482 -0.09181,-4.99603 2.042203,-4.99603 2.776143,0 5.591657,-3.38468 5.591657,-6.72204 0,-2.16788 -0.90056,-3.80126 -3.390607,-6.14968 -4.785434,-4.51325 -7.889269,-5.89642 -16.696261,-7.44041 -8.3023565,-1.45553 -10.3581528,-2.91654 -9.8783686,-7.02035 0.2541604,-2.17394 0.7518024,-2.40249 6.4020187,-2.94016 8.0678749,-0.76774 8.9205099,-1.21624 10.6415519,-5.59759 1.254441,-3.19349 1.86334,-3.71597 4.33059,-3.71597 1.915764,0 3.828778,0.93634 5.750001,2.8144 3.45705,3.37937 6.646144,4.33534 9.452409,2.83347 1.896552,-1.015 2.042252,-1.67669 1.700597,-7.72312 -0.422665,-7.48014 -1.767764,-9.2351 -7.078283,-9.2351 -6.036,0 -2.945305,-3.48258 3.497488,-3.94095 4.13097,-0.29389 4.290695,-0.42865 7.338098,-6.19123 2.490514,-4.70952 3.566146,-5.89081 5.363915,-5.89081 1.236788,0 2.53253,0.45924 2.879428,1.02054 0.346898,0.56129 2.598653,1.86097 5.003901,2.88819 2.405247,1.0272 5.518262,2.95968 6.91781,4.29437 2.105114,2.00757 3.137123,2.33058 5.974907,1.87007 1.88665,-0.30617 4.028634,-1.05325 4.759965,-1.6602 1.971631,-1.63632 1.611853,-5.37548 -0.697014,-7.24403 -4.873151,-3.94382 -5.513525,-4.96826 -5.513525,-8.82037 0,-2.96858 0.664949,-4.63865 2.827586,-7.10176 1.555173,-1.77125 2.827587,-3.78996 2.827587,-4.48603 0,-0.69608 0.65394,-1.80832 1.453202,-2.47164 1.205164,-1.0002 1.922584,-0.85902 4.203213,0.82712 1.512507,1.11824 3.333962,2.03317 4.047678,2.03317 0.713714,0 4.230027,-1.88943 7.814027,-4.19873 l 6.516362,-4.19872 0.755074,2.22259 c 0.60377,1.77719 1.54817,2.28807 4.71265,2.5493 2.17666,0.17969 5.86455,0.11464 8.19532,-0.14456 3.66791,-0.40789 4.43385,-0.88801 5.69591,-3.57048 1.51632,-3.22287 7.64302,-7.65938 10.64791,-7.71044 0.95206,-0.0162 4.46073,2.5918 7.79707,5.79551 l 6.06606,5.82493 16.67186,0.74235 c 12.74878,0.56766 16.84352,0.47227 17.40137,-0.40539 1.60397,-2.52353 3.7144,-11.5572 3.22875,-13.82059 -1.69182,-7.884665 -1.71714,-8.649462 -0.33842,-10.220652 0.77811,-0.886735 1.68513,-2.50219 2.01561,-3.5899 0.33048,-1.08771 1.6751,-2.467107 2.98804,-3.065326 1.31295,-0.59822 3.0028,-2.561067 3.75523,-4.361883 0.79644,-1.906143 2.6184,-3.920789 4.36052,-4.821672 1.64585,-0.851103 4.29526,-2.921434 5.88757,-4.600734 2.15598,-2.27376 4.0543,-3.225085 7.43553,-3.726241 4.12046,-0.61072 4.79107,-1.080844 7.25024,-5.082716 4.81305,-7.832394 4.65346,-7.720854 12.92808,-9.035751 4.26427,-0.677625 8.41759,-1.783422 9.2296,-2.457329 1.11826,-0.928077 1.74104,-0.960628 2.56746,-0.134196 0.6001,0.600099 3.74746,1.091089 6.99413,1.091089 3.68639,0 7.70424,0.709967 10.69973,1.890677 6.98219,2.752123 8.83197,1.948451 12.31554,-5.350713 1.59671,-3.345603 3.46673,-6.299196 4.1556,-6.563543 1.61486,-0.619675 6.18574,1.757686 10.26388,5.338332 3.77356,3.31324 9.97856,4.746779 17.28301,3.992892 5.1246,-0.528905 7.15235,-2.029182 11.89579,-8.80141 1.46491,-2.091442 1.75467,-2.150705 4.62769,-0.946464 1.68571,0.706573 7.94254,1.603236 13.90408,1.992582 5.96154,0.389346 12.69867,1.208616 14.9714,1.820599 5.18795,1.396972 7.67278,0.778611 11.94519,-2.972612 l 3.38801,-2.974721 2.99134,1.749466 c 1.64524,0.962206 5.86939,4.162055 9.38699,7.110775 l 6.39566,5.361309 8.63507,0.67551 c 10.27804,0.804036 10.55856,0.597298 11.53275,-8.499689 0.5726,-5.346806 0.96727,-6.268762 3.17149,-7.408607 1.38463,-0.716019 3.31828,-2.186691 4.29699,-3.268161 1.15075,-1.271566 2.48203,-1.790932 3.76789,-1.469946 1.2449,0.310762 5.27436,-1.12551 10.77621,-3.8411 4.8333,-2.385605 9.4249,-4.206345 10.20355,-4.04609 1.32429,0.272549 3.6805,5.111743 5.63657,11.576344 0.73733,2.436792 6.37249,7.30979 12.50444,10.8132 1.10621,0.632022 1.06861,1.105613 -0.23564,2.967685 -1.73147,2.472019 -2.19795,12.734118 -0.60303,13.265762 0.5419,0.180631 0.13764,1.829901 -0.94252,3.845243 -2.4203,4.51575 -2.42937,4.430172 1.06658,10.053985 3.18261,5.119752 3.17252,4.934587 1.17123,21.504076 -0.59258,4.90631 -0.56285,4.97868 6.1069,14.86255 7.36628,10.91604 8.38007,13.41018 6.71529,16.52084 -1.40407,2.62353 -1.45114,8.31069 -0.0801,9.68169 1.98076,1.98076 1.01337,5.04124 -3.12652,9.89125 -2.28983,2.68259 -4.45552,6.20786 -4.81267,7.83392 -0.38532,1.75437 -1.37515,3.14629 -2.43439,3.42329 -1.41028,0.36879 -1.78504,1.33687 -1.78504,4.61104 0,2.27933 -0.51175,4.96368 -1.13723,5.96522 -0.93239,1.493 -0.74911,2.75737 1.01758,7.01984 1.1933,2.87904 1.89688,6.01149 1.57678,7.02005 -0.78978,2.48834 3.87418,15.80525 7.0959,20.26086 3.04296,4.2084 2.99899,4.40819 -2.93479,13.33545 -2.41195,3.62873 -5.53817,8.58987 -6.94714,11.02476 -1.40899,2.43487 -4.29251,6.10689 -6.40782,8.16002 -4.21155,4.08774 -5.80691,9.55229 -4.79322,16.41805 0.28883,1.95628 -0.0148,6.10137 -0.67481,9.21131 -1.06496,5.01831 -1.01314,6.06873 0.46066,9.33701 1.37518,3.04963 1.51537,4.70635 0.81563,9.63927 -0.96609,6.8106 -0.69865,9.25555 1.01241,9.25555 1.96059,0 4.55398,3.52451 4.55398,6.18901 0,1.36474 -1.96754,6.58368 -4.3723,11.59764 l -4.37231,9.11629 1.42988,4.8149 c 1.61943,5.45323 2.33735,6.21518 7.39023,7.84355 2.90383,0.9358 3.94621,1.94774 5.32875,5.17307 2.50453,5.84284 5.9705,6.21776 14.61052,1.58043 2.0659,-1.10882 4.19803,-2.01603 4.73808,-2.01603 0.54005,0 3.72737,-3.39081 7.08292,-7.53513 6.44076,-7.95475 8.33287,-9.07464 13.64743,-8.07762 2.58318,0.4846 3.29266,1.06688 3.29266,2.70231 0,4.50046 -4.66239,18.56124 -9.12518,27.51963 -4.39483,8.82198 -4.76713,10.13789 -5.81623,20.55793 -1.03107,10.24087 -1.46341,11.81472 -5.39719,19.64734 -2.35199,4.68309 -5.11214,11.97339 -6.13367,16.20069 -1.02154,4.2273 -3.39315,12.17093 -5.27025,17.65253 l -3.41293,9.96654 -5.89111,-1.63356 c -3.24012,-0.89846 -7.89613,-2.52046 -10.3467,-3.60446 -6.19203,-2.73904 -8.33113,-2.50553 -12.16459,1.32793 -3.16997,3.16997 -3.56706,3.29831 -10.16361,3.28496 -8.88133,-0.018 -11.24163,-1.23481 -12.8108,-6.60447 -1.93768,-6.6307 -2.31756,-7.00103 -7.81995,-7.62359 -2.79652,-0.31641 -6.61405,-1.22358 -8.48341,-2.01592 -1.86936,-0.79235 -4.56266,-1.21815 -5.98512,-0.94623 -1.42246,0.27192 -4.8353,-0.0451 -7.58409,-0.70455 -4.59017,-1.10116 -5.34014,-1.03322 -9.19513,0.83294 -2.30852,1.11754 -5.81927,3.43396 -7.80167,5.14761 -3.31843,2.86855 -3.6568,3.62252 -4.26564,9.50483 -0.47745,4.61287 -1.20992,6.93776 -2.63466,8.36249 l -1.97335,1.97335 -2.38182,-2.2376 -2.3818,-2.2376 -6.1429,2.5227 c -7.55499,3.1026 -12.06422,3.16452 -21.70409,0.29802 -8.92194,-2.65301 -11.14521,-2.25525 -16.86529,3.01733 -3.48866,3.21574 -4.93424,3.84882 -10.98928,4.81262 -9.10319,1.44899 -11.27459,2.34952 -15.04483,6.23942 -3.61632,3.73111 -5.3449,4.00851 -8.05994,1.29347 l -3e-5,0 z"
       id="path3828"
       inkscape:connector-curvature="0" />
    <g
       id="g3792">
      <path
         inkscape:connector-curvature="0"
         id="path3020"
         d="m 386.43679,54.902294 c 0,0 -5.18391,10.132184 -8.7184,7.775863 -3.53448,-2.356322 -7.54023,-6.833334 -9.42528,-3.770115 -1.88506,3.063218 -6.12644,6.833333 -7.06897,6.597701 -0.94253,-0.235632 -0.47126,9.896552 -1.88506,10.83908 -1.41379,0.942529 -4.00574,5.183908 -2.59195,5.655173 1.41379,0.471264 8.01149,1.885057 8.71839,4.005747 0.7069,2.12069 9.66092,-0.706897 10.60345,3.534483 0.94253,4.241379 1.88506,10.367816 5.41954,11.074714 3.53448,0.7069 9.42529,3.77011 9.89655,4.94827 0.47127,1.17817 11.54598,1.64943 12.48851,-1.41379 0.94253,-3.06322 1.88505,-5.419539 4.94827,-5.419539 3.06322,0 5.89081,0.706897 5.89081,2.827589 0,2.12069 -0.94253,2.12069 -1.4138,6.12643 -0.47126,4.00575 4.94828,12.48851 6.12644,14.37357 1.17816,1.88505 1.64943,4.24138 -0.23563,8.01149 -1.88506,3.77012 -5.41954,6.83334 -6.83333,7.3046 -1.4138,0.47126 -2.35633,6.12644 -1.17816,7.06897 1.17816,0.94252 7.30459,-4.00575 2.82758,3.53448 -4.47701,7.54023 -10.83908,9.18965 -5.65517,9.42529 5.18391,0.23563 12.25287,-1.4138 15.78736,1.17816 3.53448,2.59195 10.36781,5.1839 12.4885,3.29885 2.12069,-1.88506 8.71839,-3.53449 10.13219,-1.4138 1.41379,2.12069 6.5977,4.94828 6.5977,4.94828"
         style="color:#000000;fill:none;stroke:#838383;stroke-width:1px;stroke-linecap:butt;stroke-linejoin:miter;stroke-miterlimit:4;stroke-opacity:1;stroke-dasharray:none;stroke-dashoffset:0;marker:none;visibility:visible;display:inline;overflow:visible;enable-background:accumulate" />
      <path
         inkscape:connector-curvature="0"
         id="path3790"
         d="m 406.70115,157.63793 c 0,0 -4.47701,0.23563 -5.1839,1.88506 -0.7069,1.64942 0.23563,12.72413 -2.35633,15.78735 -2.59195,3.06322 -3.29885,5.41954 -2.59195,7.06897 0.7069,1.64942 4.24138,3.53448 4.24138,5.41954 0,1.88505 -0.23563,11.54597 -2.35632,14.60919 -2.12069,3.06322 -3.77012,4.24138 -5.89081,4.47701 -2.12069,0.23564 -4.00574,-2.35632 -6.83333,-2.12069 -2.82759,0.23564 -8.95402,-0.47126 -9.18966,1.64943 -0.23563,2.12069 -1.88505,4.47701 -2.12069,5.8908 -0.23563,1.4138 8.0115,12.95978 11.54598,12.48851 3.53448,-0.47126 8.95402,0.7069 8.95402,2.59195 0,1.88506 0,4.94828 0.94253,6.12644 0.94253,1.17816 1.64943,4.24138 0.23564,5.65517 -1.4138,1.4138 -0.47127,6.83334 1.88505,7.54023 2.35632,0.7069 9.66092,2.59196 9.89655,3.77012 0.23564,1.17816 2.82759,3.53448 0.94253,4.00575 -1.88505,0.47126 -11.07471,-0.7069 -11.78161,2.12069 -0.70689,2.82758 -3.06321,3.53448 -2.59195,5.65517 0.47126,2.12069 5.65517,3.77011 2.35632,4.71264 -3.29885,0.94253 -7.77586,-0.23563 -8.01149,4.47701 -0.23563,4.71265 -3.77012,8.0115 -5.18391,8.0115 -1.41379,0 -3.77012,0.47126 -6.83333,-2.82759 -3.06322,-3.29885 -2.82759,-6.12644 -7.54023,-6.12644 -4.71265,0 -9.42529,0.7069 -10.13219,-0.47126 -0.70689,-1.17816 -5.65517,-0.94253 -5.65517,0.7069 0,1.64942 3.77011,3.77011 3.53448,5.18391 -0.23563,1.41379 -2.82758,4.47701 -5.65517,4.94827 -2.82759,0.47127 -7.3046,0.94253 -7.06897,3.06322 0.23564,2.12069 -0.47126,5.41954 -1.88505,7.54023 -1.4138,2.12069 -11.31035,6.12644 -11.31035,6.12644 0,0 2.12069,1.41379 5.41954,1.17816 3.29885,-0.23563 10.36782,-1.64943 12.72414,1.17816 2.35632,2.82758 2.12069,8.24712 6.36207,8.48276 4.24138,0.23563 6.12644,1.17816 7.06896,3.29885 0.94253,2.12069 2.12069,8.48276 3.77012,9.18965 1.64943,0.7069 8.24713,0.7069 8.48276,3.53449 0.23563,2.82758 -2.12069,6.36206 -2.12069,6.36206 0,0 2.59195,0.23564 2.35632,1.88506 -0.23563,1.64943 -0.94253,8.48276 -3.77011,8.48276 -2.82759,0 -4.94828,2.59195 -4.71265,5.41954 0.23563,2.82759 6.5977,9.89655 5.65517,13.43104 -0.94252,3.53448 1.17817,4.24138 -2.82758,4.47701 -4.00575,0.23563 -6.36207,-3.77012 -10.13219,-3.53449 -3.77011,0.23564 -13.43103,1.88506 -14.13793,6.36207 -0.70689,4.47701 -0.23563,12.48851 -2.35632,15.08046 -2.12069,2.59196 -6.5977,4.94828 -7.3046,10.36782 -0.70689,5.41954 -3.77011,10.36782 -5.1839,12.01724 -1.4138,1.64943 -1.4138,12.48851 0.94252,13.1954 2.35633,0.7069 5.18391,4.24138 4.94828,6.83334 -0.23563,2.59195 3.53448,4.47701 6.12644,3.53448 2.59195,-0.94253 2.82758,-2.12069 4.00574,0.47126 1.17816,2.59196 1.88506,7.3046 4.24138,7.54023 2.35633,0.23564 4.71265,1.17816 5.41954,-0.23563 0.7069,-1.41379 1.17816,-3.53448 1.17816,-3.53448"
         style="color:#000000;fill:none;stroke:#838383;stroke-width:1px;stroke-linecap:butt;stroke-linejoin:miter;stroke-miterlimit:4;stroke-opacity:1;stroke-dasharray:none;stroke-dashoffset:0;marker:none;visibility:visible;display:inline;overflow:visible;enable-background:accumulate" />
    </g>
    <path
       style="color:#000000;fill:none;stroke:#838383;stroke-width:1px;stroke-linecap:butt;stroke-linejoin:miter;stroke-miterlimit:4;stroke-opacity:1;stroke-dasharray:none;stroke-dashoffset:0;marker:none;visibility:visible;display:inline;overflow:visible;enable-background:accumulate"
       d="m 160.70115,117.10919 c 0,0 0.23563,9.42529 -0.94253,11.78161 -1.17816,2.35632 -0.70689,9.42529 -3.06322,9.66092 -2.35632,0.23563 -4.24138,0.7069 -4.00574,4.24138 0.23563,3.53448 -1.4138,4.71264 -1.64943,6.5977 -0.23563,1.88506 0.23563,5.65517 1.88506,7.3046 1.64942,1.64942 4.71264,4.71264 3.77011,6.12644 -0.94252,1.41379 -2.82758,4.24138 -4.94827,4.24138 -2.12069,0 -6.83334,-5.41955 -7.3046,-4.47702 -0.47126,0.94253 -8.24713,8.71839 -9.42529,12.01725 -1.17816,3.29885 0.23563,7.30459 2.82759,9.18965 2.59195,1.88506 3.29885,5.18391 1.88506,6.36207 -1.4138,1.17816 -5.89081,2.12069 -6.12644,4.00575 -0.23563,1.88505 0.47126,7.77586 0.94253,8.71839 0.47126,0.94253 -0.47127,11.07471 2.12069,11.54597 2.59195,0.47127 11.31034,-1.41379 11.78161,1.88506 0.47126,3.29885 0.94253,9.89655 1.88505,11.07471 0.94253,1.17817 3.29886,0.94253 2.59196,3.06322 -0.7069,2.12069 -4.94828,6.36207 -6.83333,9.42529 -1.88506,3.06322 -2.35633,7.54023 0.23563,8.48276 2.59195,0.94253 7.3046,-0.23563 8.24712,-1.41379 0.94253,-1.17816 5.41954,-3.77012 5.89081,0.70689 0.47126,4.47701 3.06322,8.95403 5.18391,9.18966 2.12069,0.23563 9.18965,2.82758 9.89655,6.12643 0.7069,3.29886 3.06322,4.24138 3.06322,7.54023 0,3.29886 -0.7069,4.94828 3.06322,5.89081 3.77011,0.94253 10.36781,-2.59195 12.95977,2.59195 2.59195,5.18391 0.94252,10.60345 4.47701,10.13219 3.53448,-0.47127 9.18965,-0.47127 9.89655,1.17816 0.7069,1.64942 8.48276,-0.7069 6.36207,2.12069 -2.12069,2.82758 -2.59196,1.88506 -2.59196,4.94827 0,3.06322 0.7069,10.36782 2.59196,11.31035 1.88506,0.94253 2.12069,6.83333 1.88506,8.95402 -0.23564,2.12069 0.23563,4.71265 4.24138,4.94828 4.00574,0.23563 7.77586,-1.88506 9.89655,-1.88506 2.12069,0 3.77011,4.00575 4.00574,5.65517 0.23564,1.64943 -2.59195,9.42529 -2.35632,11.07472 0.23563,1.64942 -2.82758,2.35632 -4.24138,4.00574 -1.41379,1.64943 -9.66092,11.31035 -12.25287,11.31035 -2.59195,0 -4.94828,1.17816 -5.41954,2.35632 -0.47127,1.17816 -3.53448,0.94253 -4.00575,2.12069 -0.47126,1.17816 -9.42529,13.66667 -13.1954,13.66667 -3.77012,0 -4.24138,-1.88506 -5.18391,-5.41954 -0.94253,-3.53449 -3.53448,-5.89081 -6.12644,-4.94828 -2.59195,0.94253 -11.7816,8.01149 -11.7816,9.66092 0,1.64942 -1.88506,2.35632 -1.64943,5.41954 0.23563,3.06322 0.47126,5.8908 3.53448,6.5977 3.06322,0.7069 11.31035,1.88506 14.6092,4.71264 3.29885,2.82759 4.94827,4.71265 2.35632,5.18391 -2.59195,0.47127 -10.13218,-0.23563 -12.95977,3.06322 -2.82759,3.29885 -3.29885,5.41954 -4.71264,8.24713 -1.4138,2.82758 -4.94828,2.35632 -3.29885,4.00575 1.64942,1.64942 2.12069,5.41954 4.71264,6.12643 2.59195,0.7069 7.06896,1.88506 7.3046,3.53448 0.23563,1.64943 -1.88506,4.24138 -1.88506,4.24138 0,0 2.35632,2.59196 -2.12069,3.06322 -4.47701,0.47127 -8.95402,-0.94253 -10.36782,-1.41379 -1.41379,-0.47126 -7.54023,-0.7069 -7.06896,0.94253 0.47126,1.64942 4.24138,4.47701 5.18391,7.3046 0.94252,2.82758 5.8908,5.65517 5.8908,7.30459 0,1.64943 -0.7069,6.5977 -0.7069,6.5977"
       id="path3796"
       inkscape:connector-curvature="0" />
    <path
       style="color:#000000;fill:none;stroke:#838383;stroke-width:1px;stroke-linecap:butt;stroke-linejoin:miter;stroke-miterlimit:4;stroke-opacity:1;stroke-dasharray:none;stroke-dashoffset:0;marker:none;visibility:visible;display:inline;overflow:visible;enable-background:accumulate"
       d="m 68.479635,274.39805 c 0,0 2.166023,2.49925 4.665279,2.66587 2.499257,0.16662 6.997919,-1.99941 10.163644,-3.49896 3.165726,-1.49955 10.663496,-2.16602 11.996433,-2.83249 1.332937,-0.66647 1.999405,-6.8313 1.999405,-6.8313 0,0 -1.499554,-4.8319 2.665874,-4.99852 4.16543,-0.16661 19.32759,0.16662 20.99376,-1.83278 1.66617,-1.99941 4.83189,-13.99584 9.66379,-13.99584 4.8319,0 14.32907,-1.16632 14.32907,-1.16632"
       id="path3798"
       inkscape:connector-curvature="0" />
    <path
       style="color:#000000;fill:none;stroke:#838383;stroke-width:1px;stroke-linecap:butt;stroke-linejoin:miter;stroke-miterlimit:4;stroke-opacity:1;stroke-dasharray:none;stroke-dashoffset:0;marker:none;visibility:visible;display:inline;overflow:visible;enable-background:accumulate"
       d="m 95.638225,270.23262 c 0,0 18.494505,5.8316 22.826545,7.16453 4.33205,1.33294 7.33115,7.83101 9.16394,8.83071 1.83279,0.9997 8.49747,2.99911 9.16394,4.99851 0.66647,1.99941 2.66588,10.99673 2.49926,12.49629 -0.16662,1.49955 2.83249,2.49925 2.16602,3.66557 -0.66647,1.16632 -3.33234,1.33294 -3.99881,3.99882 -0.66647,2.66587 1.83279,5.16513 1.83279,7.49777 0,2.33264 2.99911,12.32966 2.99911,12.32966 0,0 3.16572,4.66528 4.16543,9.49718 0.9997,4.83189 4.83189,12.32966 6.33145,12.82952 1.49955,0.49985 7.33115,6.8313 11.16334,6.8313 3.8322,0 6.49807,5.16513 6.8313,6.16483 0.33324,0.9997 0.99971,2.49926 0.99971,2.49926"
       id="path3800"
       inkscape:connector-curvature="0" />
    <path
       style="color:#000000;fill:none;stroke:#838383;stroke-width:1px;stroke-linecap:butt;stroke-linejoin:miter;stroke-miterlimit:4;stroke-opacity:1;stroke-dasharray:none;stroke-dashoffset:0;marker:none;visibility:visible;display:inline;overflow:visible;enable-background:accumulate"
       d="m 141.14368,326.11494 c 0,0 0.7069,3.77012 -6.36207,3.29885 -7.06897,-0.47126 -20.02874,-0.94253 -22.14942,1.41379 -2.12069,2.35633 -4.47702,2.12069 -5.65518,4.71265 -1.17816,2.59195 -4.94827,15.08046 -7.304595,16.25862 -2.356322,1.17816 -14.373564,2.82759 -15.551724,5.18391 -1.178161,2.35632 -1.885058,4.71264 -3.534483,5.41954 -1.649426,0.70689 -4.24138,1.41379 -3.534483,3.06322 0.706896,1.64942 4.005747,4.24138 3.534483,7.06896 -0.471265,2.82759 -0.706897,8.0115 -2.591954,8.95402 -1.885058,0.94253 -2.591954,2.82759 -2.591954,2.82759"
       id="path3803"
       inkscape:connector-curvature="0" />
    <path
       style="color:#000000;fill:none;stroke:#838383;stroke-width:1px;stroke-linecap:butt;stroke-linejoin:miter;stroke-miterlimit:4;stroke-opacity:1;stroke-dasharray:none;stroke-dashoffset:0;marker:none;visibility:visible;display:inline;overflow:visible;enable-background:accumulate"
       d="m 36.051725,172.24712 c 0,0 4.241379,3.53449 4.241379,8.48276 0,4.94828 0.471264,15.55173 2.591954,16.02299 2.12069,0.47126 3.770115,0.7069 4.477011,2.12069 0.706897,1.41379 4.477012,3.06322 5.419541,0.47126 0.942528,-2.59195 1.649425,-6.83333 5.655172,-6.5977 4.005747,0.23564 12.488506,0.94253 15.316092,-2.12069 2.827587,-3.06321 7.304598,-6.36207 5.655173,-7.54023 -1.649426,-1.17816 -3.298851,-1.88505 -2.356322,-4.24138 0.942529,-2.35632 12.488506,-2.59195 16.494253,-2.35632 4.005747,0.23563 6.126437,3.06322 8.247122,2.82759 2.12069,-0.23563 8.0115,-0.7069 9.18966,0.7069 1.17816,1.41379 6.83333,3.53448 7.3046,5.65517 0.47126,2.12069 1.17816,8.71839 4.00574,8.71839 2.82759,0 8.48276,-0.47127 9.66092,-1.88506 1.17817,-1.41379 3.06322,-0.23563 3.06322,-0.23563"
       id="path3805"
       inkscape:connector-curvature="0" />
    <path
       style="color:#000000;fill:none;stroke:#838383;stroke-width:1px;stroke-linecap:butt;stroke-linejoin:miter;stroke-miterlimit:4;stroke-opacity:1;stroke-dasharray:none;stroke-dashoffset:0;marker:none;visibility:visible;display:inline;overflow:visible;enable-background:accumulate"
       d="m 95.138374,401.52691 c 0,0 5.998216,-0.33324 7.331156,-2.8325 1.33293,-2.49925 -0.66647,-5.49836 3.33234,-5.83159 3.99881,-0.33324 11.82981,-0.66647 12.99613,1.66617 1.16632,2.33264 1.33294,6.33145 3.33235,6.49806 1.9994,0.16662 7.66438,0 9.33056,-1.83278 1.66617,-1.83279 0.66646,-7.16454 3.49895,-8.49748 2.8325,-1.33293 5.66499,-1.83279 6.66469,-0.16661 0.9997,1.66617 2.66587,3.99881 4.49866,4.33204 1.83279,0.33324 5.66498,5.66498 6.8313,5.66498 1.16632,0 6.99792,0.16662 7.66439,-3.83219 0.66647,-3.99881 -0.9997,-9.83041 2.49926,-12.32967 3.49896,-2.49925 6.16483,-6.33145 6.16483,-6.33145"
       id="path3807"
       inkscape:connector-curvature="0" />
    <path
       style="color:#000000;fill:none;stroke:#838383;stroke-width:1px;stroke-linecap:butt;stroke-linejoin:miter;stroke-miterlimit:4;stroke-opacity:1;stroke-dasharray:none;stroke-dashoffset:0;marker:none;visibility:visible;display:inline;overflow:visible;enable-background:accumulate"
       d="m 230.59809,339.87857 c 0,0 4.49866,1.33294 8.16424,1.16632 3.66558,-0.16661 14.49569,-0.33323 15.99524,0.9997 1.49956,1.33294 6.66469,4.16543 7.49777,7.16454 0.83309,2.99911 -1.33293,5.16513 -1.33293,6.99792 0,1.83279 -3.16573,5.66498 -1.83279,6.66468 1.33293,0.99971 6.66468,2.49926 7.33115,3.99882 0.66647,1.49955 2.16602,4.33204 2.33264,5.99821 0.16662,1.66617 0.33323,8.66409 -0.83309,10.6635 -1.16632,1.9994 -6.8313,2.16602 -7.66438,3.49896 -0.83309,1.33293 -0.99971,5.33174 -3.16573,7.66438 -2.16602,2.33264 -9.66379,8.33086 -9.83041,10.49688 -0.16662,2.16602 1.33294,2.66588 2.16602,3.99881 0.83309,1.33294 0.66647,2.66588 -0.49985,4.99852 -1.16632,2.33264 -6.33145,8.49747 -9.83041,8.8307 -3.49896,0.33324 -9.49717,0.33324 -9.83041,-1.49955 -0.33323,-1.83279 -0.83308,-6.66469 -2.99911,-6.8313 -2.16602,-0.16662 -7.66438,3.83219 -9.83041,4.33204 -2.16602,0.49985 -8.66409,1.49956 -8.99732,2.99911 -0.33323,1.49955 -1.83279,6.16483 -2.33264,6.99792 -0.49985,0.83309 -2.83249,2.66587 -2.49926,3.83219 0.33324,1.16632 0.49986,1.99941 2.99911,4.49867 2.49926,2.49925 2.99911,5.66498 2.99911,5.66498"
       id="path3809"
       inkscape:connector-curvature="0" />
    <path
       style="color:#000000;fill:none;stroke:#838383;stroke-width:1px;stroke-linecap:butt;stroke-linejoin:miter;stroke-miterlimit:4;stroke-opacity:1;stroke-dasharray:none;stroke-dashoffset:0;marker:none;visibility:visible;display:inline;overflow:visible;enable-background:accumulate"
       d="m 146.56322,215.13218 c 0,0 5.41954,-5.65517 6.5977,-9.42529 1.17816,-3.77011 3.53448,-9.18965 5.89081,-8.95402 2.35632,0.23563 4.24138,5.18391 6.36206,5.41954 2.12069,0.23563 11.78161,-1.64942 13.43104,-3.77011 1.64942,-2.12069 5.65517,-1.88506 7.06897,-6.12644 1.41379,-4.24138 4.00574,-6.83333 5.1839,-6.36207 1.17816,0.47126 5.18391,-0.94253 5.65518,-4.24138 0.47126,-3.29885 -3.77012,-1.88506 0.70689,-3.29885 4.47701,-1.41379 12.01724,-2.35632 13.43104,-4.47701 1.41379,-2.12069 4.47701,-9.18966 7.54023,-9.42529 3.06322,-0.23563 8.48276,-1.64942 8.71839,-4.71264 0.23563,-3.06322 -0.23563,-8.48276 1.88506,-10.13219 2.12068,-1.64942 2.82758,-3.06322 6.12643,-2.82758 3.29885,0.23563 2.59196,2.12069 7.54023,2.35632 4.94828,0.23563 12.01724,-0.7069 13.66667,1.41379 1.64942,2.12069 4.71264,1.4138 4.94827,0 0.23564,-1.41379 0,-11.31034 1.4138,-12.01724 1.41379,-0.7069 3.77011,-4.24138 2.35632,-6.5977 -1.41379,-2.35632 -4.00575,-5.89081 -2.12069,-7.06897 1.88506,-1.17816 11.31034,-5.1839 13.9023,-5.1839 2.59195,0 4.71264,3.77011 8.24713,2.35632 3.53448,-1.4138 4.71264,-4.47701 7.30459,-2.35632 2.59196,2.12069 4.47701,8.01149 9.66092,8.71839 5.18391,0.70689 9.42529,3.77011 12.25288,3.06321 2.82758,-0.70689 15.08046,1.88506 15.55172,4.47702 0.47127,2.59195 0.94253,5.41954 3.06322,7.77586 2.12069,2.35632 0.23563,5.41954 0.47126,8.24713 0.23564,2.82758 0.47127,8.24712 0.94253,11.54597 0.47127,3.29885 -5.18391,14.84483 2.12069,17.20115 7.3046,2.35632 12.72414,11.07471 16.96552,11.54598 4.24138,0.47126 15.78736,-0.47127 16.72988,2.59195 0.94253,3.06322 0.23564,9.66092 2.59196,9.89655 2.35632,0.23564 4.24138,0.94253 4.24138,0.94253"
       id="path3811"
       inkscape:connector-curvature="0" />
    <path
       style="color:#000000;fill:none;stroke:#838383;stroke-width:1px;stroke-linecap:butt;stroke-linejoin:miter;stroke-miterlimit:4;stroke-opacity:1;stroke-dasharray:none;stroke-dashoffset:0;marker:none;visibility:visible;display:inline;overflow:visible;enable-background:accumulate"
       d="m 255.54311,54.313214 c 0,0 -4.59483,10.132184 -4.59483,12.370689 0,2.238506 -0.58908,11.074713 -2.9454,12.135058 -2.35633,1.060345 -6.36207,3.181035 -6.5977,4.83046 -0.23564,1.649425 1.64942,3.063218 1.17816,4.477011 -0.47127,1.413794 -3.6523,3.652299 -3.77012,5.066092 -0.11782,1.413794 0.35345,10.956896 4.12356,11.310346 3.77012,0.35345 14.96265,0.47126 16.14081,1.88506 1.17816,1.41379 1.17816,5.06609 0.23563,6.00862 -0.94253,0.94253 0.23563,4.47701 0.94253,6.00862 0.7069,1.53161 2.9454,6.24425 2.9454,6.24425"
       id="path3813"
       inkscape:connector-curvature="0" />
    <path
       style="color:#000000;fill:none;stroke:#838383;stroke-width:1px;stroke-linecap:butt;stroke-linejoin:miter;stroke-miterlimit:4;stroke-opacity:1;stroke-dasharray:none;stroke-dashoffset:0;marker:none;visibility:visible;display:inline;overflow:visible;enable-background:accumulate"
       d="m 179.61325,109.11387 c 0,0 8.66409,-1.16632 9.83041,1.9994 1.16632,3.16573 5.66498,18.99435 7.83101,19.32759 2.16602,0.33323 12.16305,0.83308 13.16275,-0.16662 0.9997,-0.9997 5.16513,5.33175 6.66468,7.66439 1.49956,2.33264 2.66588,9.49717 4.8319,10.33026 2.16602,0.83308 6.66468,1.9994 6.66468,1.9994"
       id="path3815"
       inkscape:connector-curvature="0" />
    <path
       style="color:#000000;fill:none;stroke:#838383;stroke-width:1px;stroke-linecap:butt;stroke-linejoin:miter;stroke-miterlimit:4;stroke-opacity:1;stroke-dasharray:none;stroke-dashoffset:0;marker:none;visibility:visible;display:inline;overflow:visible;enable-background:accumulate"
       d="m 328.7069,134.54597 c 0,0 2.35632,-7.30459 6.83333,-7.77586 4.47701,-0.47126 11.54598,-1.17816 12.48851,-2.82759 0.94253,-1.64942 4.71264,-7.54022 7.77586,-7.54022 3.06322,0 8.48276,-1.64943 9.18966,-2.59196 0.70689,-0.94253 0.23563,-6.83333 6.12643,-6.83333 5.89081,0 8.48276,-7.775865 8.48276,-7.775865"
       id="path3817"
       inkscape:connector-curvature="0" />
    <path
       style="color:#000000;fill:none;stroke:#838383;stroke-width:1px;stroke-linecap:butt;stroke-linejoin:miter;stroke-miterlimit:4;stroke-opacity:1;stroke-dasharray:none;stroke-dashoffset:0;marker:none;visibility:visible;display:inline;overflow:visible;enable-background:accumulate"
       d="m 178.6092,198.87356 c 0,0 -0.47127,6.36207 1.88505,7.06897 2.35633,0.70689 7.77587,-0.23564 8.48276,-1.64943 0.7069,-1.41379 1.17816,-4.47701 4.47701,-3.77011 3.29886,0.70689 2.59196,3.53448 6.59771,3.77011 4.00574,0.23563 12.25287,0.23563 13.43103,3.29885 1.17816,3.06322 5.89081,17.20115 7.77586,17.20115 1.88506,0 3.53449,2.35632 5.89081,2.12069 2.35632,-0.23563 8.24712,-1.41379 11.78161,-3.06322 3.53448,-1.64942 15.31609,-6.36207 16.02299,-8.71839 0.70689,-2.35632 0.70689,-4.47701 4.00574,-4.24138 3.29885,0.23563 14.13793,0.23563 15.55173,1.64943 1.41379,1.41379 10.83908,8.24712 13.1954,8.71839 2.35632,0.47126 5.18391,2.35632 5.18391,4.71264 0,2.35632 1.64942,10.36782 3.29885,10.60345 1.64942,0.23563 6.12644,-0.47126 6.36207,2.82759 0.23563,3.29885 1.88505,6.5977 2.12069,9.42528 0.23563,2.82759 -0.23564,10.83908 -1.64943,14.13793 -1.41379,3.29886 -2.82758,5.18391 -2.12069,6.12644 0.7069,0.94253 3.53448,2.35632 2.59196,4.24138 -0.94253,1.88506 -3.06322,3.77012 -3.06322,4.71264 0,0.94253 5.65517,2.35633 6.12643,5.18391 0.47127,2.82759 0.47127,8.95403 0.47127,8.95403 0,0 1.64942,0.70689 1.41379,2.35632 -0.23563,1.64942 -0.23563,7.77586 -4.71264,7.77586 -4.47701,0 -6.5977,1.41379 -7.06897,2.82759 -0.47126,1.41379 -13.9023,14.37356 -16.25862,13.66666 -2.35632,-0.70689 -4.24138,-2.59195 -7.06896,-3.29885 -2.82759,-0.70689 -10.83908,0.23563 -12.95977,2.82759 -2.12069,2.59195 -8.7184,17.67241 -10.60345,18.85057 -1.88506,1.17816 -3.06322,4.00575 -3.06322,4.00575"
       id="path3819"
       inkscape:connector-curvature="0" />
    <path
       style="color:#000000;fill:none;stroke:#838383;stroke-width:1px;stroke-linecap:butt;stroke-linejoin:miter;stroke-miterlimit:4;stroke-opacity:1;stroke-dasharray:none;stroke-dashoffset:0;marker:none;visibility:visible;display:inline;overflow:visible;enable-background:accumulate"
       d="m 170.12644,258.4885 c 0,0 7.77586,0 9.66092,-3.06322 1.88506,-3.06321 10.83908,3.06322 13.1954,3.29886 2.35632,0.23563 11.78161,3.06321 13.1954,2.12069 1.4138,-0.94253 5.18391,-0.23564 5.41954,2.35632 0.23564,2.59195 0.94253,5.8908 3.06322,5.18391 2.12069,-0.7069 1.88506,-2.12069 5.65517,-2.12069 3.77012,0 9.66092,2.59195 10.60345,2.82758 0.94253,0.23563 3.06322,-0.47126 4.47701,1.41379 1.4138,1.88506 -1.17816,7.06897 -0.47126,9.66092 0.7069,2.59196 0.94253,3.77012 7.77586,4.94828 6.83334,1.17816 8.95402,4.00575 16.02299,3.77012 7.06897,-0.23564 14.13793,0.70689 16.25862,1.41379 2.12069,0.7069 5.41954,-2.35632 7.77586,-3.06322 2.35633,-0.7069 5.89081,-4.71264 7.54023,-4.71264 1.64943,0 9.89656,4.94827 11.54598,6.5977 1.64943,1.64942 5.41954,8.01149 6.83333,7.54023 1.4138,-0.47127 1.17817,-7.06897 4.47702,-4.94828 3.29885,2.12069 10.83908,5.41954 12.95977,5.65517 2.12069,0.23564 5.1839,0.47127 5.1839,0.47127"
       id="path3821"
       inkscape:connector-curvature="0" />
    <path
       style="color:#000000;fill:none;stroke:#838383;stroke-width:1px;stroke-linecap:butt;stroke-linejoin:miter;stroke-miterlimit:4;stroke-opacity:1;stroke-dasharray:none;stroke-dashoffset:0;marker:none;visibility:visible;display:inline;overflow:visible;enable-background:accumulate"
       d="m 139.62514,320.55099 c 0,0 1.33294,-4.16543 4.49867,-3.99881 3.16572,0.16661 10.16364,-0.49986 10.83011,2.83249 0.66647,3.33234 1.66617,5.16513 3.99881,5.16513 2.33264,0 4.16543,-3.16573 8.49747,-3.33234 4.33205,-0.16662 19.99406,-0.16662 21.99346,-2.49926 1.99941,-2.33264 3.8322,-8.66409 5.66498,-8.16424 1.83279,0.49985 3.8322,2.83249 7.16454,2.83249 3.33234,0 10.33026,-0.9997 11.16335,-2.16602 0.83308,-1.16632 2.16602,-2.66588 2.16602,-2.66588"
       id="path3823"
       inkscape:connector-curvature="0" />
    <path
       style="color:#000000;fill:none;stroke:#838383;stroke-width:1px;stroke-linecap:butt;stroke-linejoin:miter;stroke-miterlimit:4;stroke-opacity:1;stroke-dasharray:none;stroke-dashoffset:0;marker:none;visibility:visible;display:inline;overflow:visible;enable-background:accumulate"
       d="m 262.08872,349.04251 c 0,0 -0.83308,-1.49955 1.99941,-1.9994 2.83249,-0.49985 9.16394,1.66617 12.82952,2.66587 3.66557,0.9997 19.16097,-1.33293 19.66082,3.66558 0.49985,4.99851 0.33323,15.82862 1.49955,16.99494 1.16632,1.16632 1.83279,13.49599 2.33264,13.99584 0.49985,0.49985 2.49926,2.83249 7.99762,2.49926 5.49837,-0.33323 17.32818,-1.16632 17.82803,0.16662 0.49986,1.33293 11.82982,-0.16662 11.82982,-0.16662"
       id="path3825"
       inkscape:connector-curvature="0" />
    <path
       style="color:#000000;fill:none;stroke:#838383;stroke-width:1px;stroke-linecap:butt;stroke-linejoin:miter;stroke-miterlimit:4;stroke-opacity:1;stroke-dasharray:none;stroke-dashoffset:0;marker:none;visibility:visible;display:inline;overflow:visible;enable-background:accumulate"
       d="m 248.82759,414.83046 c 0,0 3.6523,2.47414 5.30172,2.35632 1.64943,-0.11782 5.0661,1.06035 5.89081,3.41667 0.82471,2.35632 1.88506,6.5977 3.88793,6.24425 2.00287,-0.35345 6.5977,-3.06322 7.06896,-4.12356 0.47127,-1.06035 4.59483,-7.06897 8.7184,-7.42242 4.12356,-0.35344 8.8362,0.58908 9.89655,1.17816 1.06034,0.58908 6.12643,-4.35919 7.42241,-6.24425 1.29598,-1.88506 4.59483,2.12069 5.89081,2.47414 1.29597,0.35345 1.17816,-4.12356 3.77011,-3.88793 2.59195,0.23563 9.66092,-0.82471 11.78161,-3.29885 2.12069,-2.47414 6.5977,-10.36782 6.71552,-11.42816 0.11781,-1.06035 2.00287,-6.71552 2.00287,-6.71552"
       id="path3827"
       inkscape:connector-curvature="0" />
    <path
       style="color:#000000;fill:none;stroke:#838383;stroke-width:1px;stroke-linecap:butt;stroke-linejoin:miter;stroke-miterlimit:4;stroke-opacity:1;stroke-dasharray:none;stroke-dashoffset:0;marker:none;visibility:visible;display:inline;overflow:visible;enable-background:accumulate"
       d="m 335.90011,180.25937 c 0,0 -6.49807,5.99822 -6.8313,8.49748 -0.33324,2.49925 0,8.49747 1.83278,9.66379 1.83279,1.16632 5.16513,5.49836 1.83279,7.66439 -3.33234,2.16602 -3.33234,4.49866 -2.66587,4.99851 0.66647,0.49985 -1.66617,1.16632 -2.33264,3.83219 -0.66647,2.66588 0.83308,7.66439 1.33294,8.49748 0.49985,0.83308 0.9997,6.49807 -0.99971,8.66409 -1.9994,2.16602 -3.83219,3.83219 -3.66557,5.16513 0.16661,1.33294 0.83308,9.83041 -1.49956,11.82981 -2.33264,1.99941 -5.99821,2.33264 -7.16453,5.8316 -1.16632,3.49896 -3.33235,4.33205 -5.49837,4.33205 -2.16602,0 -6.33145,-0.66647 -6.33145,-0.66647"
       id="path3829"
       inkscape:connector-curvature="0" />
    <path
       style="color:#000000;fill:none;stroke:#838383;stroke-width:1px;stroke-linecap:butt;stroke-linejoin:miter;stroke-miterlimit:4;stroke-opacity:1;stroke-dasharray:none;stroke-dashoffset:0;marker:none;visibility:visible;display:inline;overflow:visible;enable-background:accumulate"
       d="m 409.21164,253.07105 c 0,0 0,-2.66587 2.99911,-2.66587 2.99911,0 4.33204,0.16662 4.49866,3.83219 0.16662,3.66558 -1.66617,5.33175 -1.66617,7.66439 0,2.33264 5.16513,5.49837 8.16424,5.16513 2.9991,-0.33323 16.49509,0.33324 16.49509,0.33324"
       id="path3831"
       inkscape:connector-curvature="0" />
    <path
       style="color:#000000;fill:none;stroke:#838383;stroke-width:1px;stroke-linecap:butt;stroke-linejoin:miter;stroke-miterlimit:4;stroke-opacity:1;stroke-dasharray:none;stroke-dashoffset:0;marker:none;visibility:visible;display:inline;overflow:visible;enable-background:accumulate"
       d="m 375.36207,326.11494 c 0,0 -3.06322,-0.7069 3.53449,2.82759 6.5977,3.53448 10.60344,4.71264 13.43103,2.35632 2.82759,-2.35632 12.25287,-8.48276 14.84483,-8.48276 2.59195,0 1.41379,-4.00575 3.77011,-1.88506 2.35632,2.12069 4.94828,6.12644 4.47701,7.54023 -0.47126,1.4138 -2.35632,-0.23563 -1.88505,2.59196 0.47126,2.82758 12.95977,26.86207 12.95977,30.16092 0,3.29885 2.12069,10.36781 3.77011,11.07471 1.64943,0.7069 2.82759,1.41379 3.77012,4.24138 0.94253,2.82758 7.54023,5.18391 9.42528,4.71264 1.88506,-0.47126 3.29886,-2.82758 4.94828,-4.00574 1.64943,-1.17817 4.94828,-4.71265 6.12644,-3.06322 1.17816,1.64942 1.64942,10.36781 5.41954,10.36781 3.77011,0 3.06322,-1.88505 6.83333,-1.88505 3.77012,0 4.24138,2.59195 6.12644,3.53448 1.88506,0.94253 5.8908,0.94253 5.8908,0.94253"
       id="path3833"
       inkscape:connector-curvature="0" />
    <path
       style="color:#000000;fill:none;stroke:#838383;stroke-width:1px;stroke-linecap:butt;stroke-linejoin:miter;stroke-miterlimit:4;stroke-opacity:1;stroke-dasharray:none;stroke-dashoffset:0;marker:none;visibility:visible;display:inline;overflow:visible;enable-background:accumulate"
       d="m 490.82184,0.23562714 0.23564,102.50000286 109.33333,0.23563 -0.47126,0"
       id="path3835"
       inkscape:connector-curvature="0" />
    <path
       style="color:#000000;fill:none;stroke:#838383;stroke-width:1px;stroke-linecap:butt;stroke-linejoin:miter;stroke-miterlimit:4;stroke-opacity:1;stroke-dasharray:none;stroke-dashoffset:0;marker:none;visibility:visible;display:inline;overflow:visible;enable-background:accumulate"
       d="m 528.75863,26.626432 c 0,0 -2.12069,3.770115 -6.59771,3.770115 -4.47701,0 -8.71839,1.178161 -9.42528,4.241379 -0.7069,3.063219 0,11.310345 2.59195,11.78161 2.59196,0.471264 10.83908,2.591954 12.95977,0.942528 2.12069,-1.649425 1.41379,-0.942528 2.35632,-3.29885 0.94253,-2.356322 2.82759,-1.649426 3.06322,-6.833334 0.23563,-5.183908 -4.94827,-10.603448 -4.94827,-10.603448 z"
       id="path3837"
       inkscape:connector-curvature="0" />
    <path
       style="color:#000000;fill:none;stroke:#838383;stroke-width:1px;stroke-linecap:butt;stroke-linejoin:miter;stroke-miterlimit:4;stroke-opacity:1;stroke-dasharray:none;stroke-dashoffset:0;marker:none;visibility:visible;display:inline;overflow:visible;enable-background:accumulate"
       d="m 593.08621,40.057466 c 0,0 -1.64942,1.53161 -3.77011,2.12069 -2.12069,0.589081 -5.18391,3.534483 -4.47701,4.712644 0.70689,1.178161 2.00287,1.885057 4.59482,2.002873 2.59196,0.117816 5.30173,0.471265 5.53736,-1.413793 0.23563,-1.885057 1.06035,-4.712643 0.11782,-5.183908 -0.94253,-0.471264 -2.00288,-2.238506 -2.00288,-2.238506 z"
       id="path3839"
       inkscape:connector-curvature="0" />
    <path
       style="fill:#fefee9;fill-opacity:1;stroke:none"
       d="m 519.03583,46.423099 c -1.80745,-0.358827 -3.66806,-1.03419 -4.13467,-1.500807 -1.0432,-1.043198 -1.94122,-6.202109 -1.5449,-8.87503 0.46655,-3.146517 2.34789,-4.309041 7.87516,-4.866247 3.0715,-0.30964 4.16227,-0.646385 5.77432,-1.782667 l 1.9875,-1.400913 1.00054,1.464731 c 3.11371,4.558272 3.73667,9.311584 1.5708,11.985468 -0.56172,0.693479 -1.33049,1.935914 -1.70838,2.760965 -1.4051,3.067788 -3.92476,3.583461 -10.82037,2.2145 l 0,0 z"
       id="path3862"
       inkscape:connector-curvature="0" />
    <path
       style="fill:#fefee9;fill-opacity:1;stroke:none"
       d="m 586.76751,47.55287 c -2.13685,-1.030564 -0.89366,-2.787402 3.52317,-4.978817 l 2.75051,-1.364671 0.81,1.073843 c 0.90982,1.206179 1.0333,2.839825 0.3504,4.635981 -0.428,1.125727 -0.66291,1.206647 -3.41667,1.176945 -1.62638,-0.01754 -3.43422,-0.262019 -4.01741,-0.543281 z"
       id="path3864"
       inkscape:connector-curvature="0" />
    <path
       style="fill:#efefef;fill-opacity:1;stroke:none"
       d="m 170.86288,440.6201 0.18483,-2.99205 -2.68375,-2.82672 c -1.47606,-1.5547 -3.07982,-3.60309 -3.5639,-4.55197 -0.48409,-0.94889 -1.76682,-2.74971 -2.85052,-4.00182 l -1.97036,-2.27658 1.50779,-0.43242 c 1.10658,-0.31737 2.78753,-0.16066 6.31727,0.58895 8.78173,1.86496 12.58003,1.19059 12.15189,-2.15752 -0.0406,-0.31769 0.25235,-1.20846 0.65106,-1.97947 1.65161,-3.19388 0.70148,-4.66256 -4.03126,-6.23138 -3.56308,-1.1811 -4.2834,-1.74031 -5.84835,-4.5403 -1.44728,-2.58948 -1.44741,-2.6259 -0.0126,-3.39378 0.70848,-0.37917 1.92549,-2.13811 3.10793,-4.49187 3.3129,-6.59464 4.76437,-7.56956 12.23577,-8.21854 2.55473,-0.22191 4.86914,-0.54201 5.14312,-0.71134 1.13039,-0.69862 0.40414,-2.41065 -2.01766,-4.75635 -2.72766,-2.64195 -6.03992,-4.00815 -13.63694,-5.62482 -4.30902,-0.91698 -5.10306,-1.74989 -5.43032,-5.69622 -0.15222,-1.83566 0.002,-2.86754 0.55391,-3.71012 0.42063,-0.64197 0.76479,-1.46994 0.76479,-1.83993 0,-1.59182 10.37352,-9.72826 12.40301,-9.72826 1.48981,0 3.42427,2.47042 4.52534,5.77913 1.21572,3.65322 2.24597,4.58869 5.05367,4.58869 1.51258,0 2.45939,-0.36627 4.01606,-1.55358 2.22185,-1.69466 7.20997,-7.40203 9.24329,-10.5761 0.71926,-1.12278 1.863,-2.20087 2.61185,-2.46192 0.73273,-0.25543 1.95046,-0.98462 2.70606,-1.62041 0.78707,-0.66228 2.53316,-1.38812 4.0883,-1.69949 2.64284,-0.52914 2.87242,-0.70582 8.69791,-6.69364 5.21077,-5.35598 6.12359,-6.1055 7.06896,-5.80433 0.59706,0.1902 5.67836,0.49352 11.2918,0.67404 l 10.20625,0.32822 2.02848,1.39038 c 1.11566,0.76471 2.93793,2.25533 4.0495,3.31248 2.53232,2.40837 2.62208,3.94132 0.5635,9.62389 -2.47601,6.83486 -2.53944,6.53988 1.86835,8.68892 3.52488,1.71858 3.8597,2.0112 4.84759,4.23663 1.12443,2.53301 1.71729,8.71054 1.13422,11.81855 -0.40915,2.18097 -1.25575,2.91277 -4.41867,3.81952 -1.47448,0.4227 -2.93401,0.97107 -3.2434,1.21859 -0.30939,0.24752 -1.02796,1.86546 -1.59683,3.59541 -0.94704,2.88004 -1.49382,3.61251 -6.482,8.68336 -4.92495,5.00658 -5.44324,5.69566 -5.40113,7.18094 0.0292,1.03064 0.5031,2.1855 1.27154,3.09873 0.67373,0.80069 1.22497,1.79671 1.22497,2.21338 0,1.46469 -1.93477,4.73 -4.20656,7.09944 -3.55489,3.70768 -4.84021,4.31972 -9.07598,4.32178 -5.00334,0.002 -5.86603,-0.39764 -6.28429,-2.91435 -0.45564,-2.74167 -1.44858,-4.55708 -2.83899,-5.19059 -0.9981,-0.45477 -1.76876,-0.22225 -5.71807,1.72522 -2.51047,1.23796 -6.27341,2.659 -8.36208,3.15786 -5.12646,1.22443 -5.64003,1.63584 -6.79703,5.44499 -0.53656,1.76654 -1.61494,4.05707 -2.3964,5.09008 -2.21304,2.92546 -1.98836,4.0755 1.67492,8.57302 1.13407,1.39233 2.06136,2.78835 2.06065,3.10226 -9.5e-4,0.43038 -2.98523,0.58604 -12.13506,0.63297 -10.82518,0.0555 -17.6385,0.46921 -22.76251,1.38212 l -1.67473,0.29837 0.18483,-2.99205 0,0 z"
       id="path3866"
       inkscape:connector-curvature="0" />
  </g>
</svg>
