<?xml version="1.0" encoding="UTF-8" standalone="no"?>
<!-- Created with Inkscape (http://www.inkscape.org/) -->

<svg
   xmlns:dc="http://purl.org/dc/elements/1.1/"
   xmlns:cc="http://creativecommons.org/ns#"
   xmlns:rdf="http://www.w3.org/1999/02/22-rdf-syntax-ns#"
   xmlns:svg="http://www.w3.org/2000/svg"
   xmlns="http://www.w3.org/2000/svg"
   xmlns:sodipodi="http://sodipodi.sourceforge.net/DTD/sodipodi-0.dtd"
   xmlns:inkscape="http://www.inkscape.org/namespaces/inkscape"
   id="svg2"
   version="1.1"
   inkscape:version="0.48.1 "
   width="600"
   height="433.10999"
   sodipodi:docname="Map_Gyeosangnam-do.svg">
  <metadata
     id="metadata8">
    <rdf:RDF>
      <cc:Work
         rdf:about="">
        <dc:format>image/svg+xml</dc:format>
        <dc:type
           rdf:resource="http://purl.org/dc/dcmitype/StillImage" />
        <dc:title />
      </cc:Work>
    </rdf:RDF>
  </metadata>
  <defs
     id="defs6" />
  <sodipodi:namedview
     pagecolor="#ffffff"
     bordercolor="#666666"
     borderopacity="1"
     objecttolerance="10"
     gridtolerance="10"
     guidetolerance="10"
     inkscape:pageopacity="0"
     inkscape:pageshadow="2"
     inkscape:window-width="1311"
     inkscape:window-height="855"
     id="namedview4"
     showgrid="false"
     inkscape:zoom="1.563987"
     inkscape:cx="242.61934"
     inkscape:cy="195.17353"
     inkscape:window-x="0"
     inkscape:window-y="0"
     inkscape:window-maximized="0"
     inkscape:current-layer="layer2" />
  <g
     inkscape:groupmode="layer"
     id="layer2"
     inkscape:label="bg"
     style="opacity:0.87769781;display:inline"
     sodipodi:insensitive="true">
    <g
       id="g3917">
      <g
         id="g3859">
        <rect
           style="fill:#efefef;fill-opacity:1;stroke:none"
           id="rect2999"
           width="600"
           height="433.11301"
           x="0"
           y="-0.0030146483" />
        <path
           style="color:#000000;fill:none;stroke:#838383;stroke-width:1px;stroke-linecap:butt;stroke-linejoin:miter;stroke-miterlimit:4;stroke-opacity:1;stroke-dasharray:none;stroke-dashoffset:0;marker:none;visibility:visible;display:inline;overflow:visible;enable-background:accumulate"
           d="m 537.06514,0.03335445 c 0,0 -0.83525,10.44061355 -3.341,13.36398455 -2.50575,2.923372 0.41763,16.287357 2.50575,18.375479 2.08812,2.088123 4.59387,8.770115 10.02299,10.022989 5.42912,1.252873 11.27586,0.417624 15.86973,-2.505747 4.59387,-2.923372 9.18774,-7.934866 12.11111,-10.858238 2.92337,-2.923372 3.341,-10.022989 6.68199,-9.187739 3.341,0.835249 7.09962,-1.252874 8.35249,4.593869 1.25288,5.846744 2.50575,12.528736 0,16.704981 -2.50574,4.176245 -5.01149,5.846744 -5.42912,8.352491 -0.41762,2.505747 -4.17624,11.275862 -5.84674,12.528735 -1.6705,1.252874 -4.17624,2.923372 -2.92337,5.429119 1.25287,2.505747 0.83525,10.022989 -2.08812,10.858238 -2.92338,0.835249 -5.42912,2.505747 -5.0115,5.011494 0.41763,2.505747 2.50575,2.088123 1.6705,5.429119 -0.83525,3.340996 -5.01149,6.264368 -5.01149,7.934866 0,1.670498 3.34099,3.340996 1.67049,5.846745 -1.67049,2.50575 -2.92337,2.08812 -2.92337,5.84674 0,3.75862 -0.83525,15.86973 -2.50574,17.95786 -1.6705,2.08812 -1.6705,10.02298 -0.83525,12.52873 0.83525,2.50575 0.41762,6.26437 2.92337,7.09962 2.50574,0.83525 7.93486,2.92337 4.17624,5.01149 -3.75862,2.08813 -4.17624,4.59387 -4.17624,7.93487 0,3.341 2.50574,8.77011 0.41762,11.27586 -2.08812,2.50575 0,8.35249 -2.92337,10.02299 -2.92337,1.6705 -2.92337,4.59387 -6.26437,5.84674 -3.34099,1.25288 -0.83525,-6.26436 -8.35249,-2.50574 -7.51724,3.75862 -11.69348,6.26436 -11.69348,10.02298 0,3.75863 2.50574,3.341 0.83524,10.02299 -1.67049,6.682 -0.41762,12.11111 -4.59387,12.11111 -4.17624,0 -8.77011,-0.83524 -8.77011,1.6705 0,2.50575 1.25287,5.0115 -3.75862,5.84675 -5.0115,0.83524 -15.03448,0 -15.45211,2.08812 -0.41762,2.08812 0.83525,6.26437 -2.50575,10.02299 -3.34099,3.75862 -6.26436,4.17624 -3.34099,5.42912 2.92337,1.25287 4.17624,0.83524 3.75862,3.34099 -0.41763,2.50575 -6.26437,10.02299 -7.09962,13.78161 -0.83525,3.75862 2.50575,7.51724 -2.92337,8.77012 -5.42912,1.25287 -5.01149,0 -5.42912,3.34099 -0.41762,3.341 -0.41762,5.0115 -5.84674,5.42912 -5.42912,0.41763 -14.61686,-0.41762 -15.86973,1.6705 -1.25288,2.08812 -1.25288,4.17624 -0.41763,6.26437 0.83525,2.08812 6.26437,1.67049 2.08812,4.17624 -4.17624,2.50575 -11.27586,5.0115 -12.94636,2.50575 -1.67049,-2.50575 -1.25287,-3.75862 -5.42911,-3.341 -4.17625,0.41763 -4.59387,0.83525 -2.92338,3.341 1.6705,2.50575 7.09962,3.75862 8.77012,8.77011 1.6705,5.0115 7.09962,8.35249 2.50575,8.77012 -4.59387,0.41762 -7.93487,-0.83525 -9.18774,-2.50575 -1.25288,-1.6705 -4.59387,-4.59387 -8.35249,-6.26437 -3.75862,-1.67049 -2.50575,-2.92337 -3.75862,2.50575 -1.25288,5.42912 0.41762,7.09962 -2.08813,6.26437 -2.50574,-0.83525 -5.01149,0.41762 -4.17624,-3.341 0.83525,-3.75862 -2.50575,-0.41762 -3.341,2.08813 -0.83525,2.50574 1.25287,6.68199 -2.92337,3.34099 -4.17625,-3.34099 -2.08812,-18.7931 -5.84674,-19.62835 -3.75862,-0.83525 -2.08813,1.6705 -3.75862,3.341 -1.6705,1.67049 -8.77012,6.26436 -10.02299,2.50574 -1.25288,-3.75862 0.41762,-10.85824 -2.08813,-9.60536 -2.50574,1.25287 -2.50574,7.51724 -5.42911,8.35249 -2.92338,0.83525 -9.60537,2.08812 -12.94636,0.41762 -3.341,-1.67049 -4.59387,-0.41762 -15.86974,-1.25287 -11.27586,-0.83525 -16.70498,-0.83525 -20.88122,-5.01149 -4.17625,-4.17625 -12.94636,-12.52874 -15.03449,-12.11112 -2.08812,0.41763 -4.17624,0.83525 -5.42911,2.50575 -1.25288,1.6705 -2.50575,4.17625 -7.93487,2.92337 -5.42912,-1.25287 -5.42912,0 -5.84674,2.92337 -0.41763,2.92338 -0.83525,6.682 2.50574,8.77012 3.341,2.08812 7.93487,4.59387 4.59387,6.26437 -3.34099,1.6705 -8.77011,2.92337 -12.11111,1.25287 -3.34099,-1.6705 -3.75862,-3.34099 -9.60536,-6.68199 -5.84675,-3.341 -7.09962,-0.83525 -12.11111,-4.17625 -5.0115,-3.34099 -5.84675,-5.01149 -8.35249,-0.83525 -2.50575,4.17625 -5.42912,11.27587 -5.42912,11.27587 0,0 0.41762,0.41762 4.17624,1.25287 3.75862,0.83525 0,3.75862 3.75862,6.68199 3.75862,2.92337 5.84675,1.25288 4.17625,5.0115 -1.6705,3.75862 -0.41763,7.09961 -4.17625,8.35249 -3.75862,1.25287 -5.01149,-0.41763 -8.77011,3.75862 -3.75862,4.17624 -4.17625,4.17624 -5.0115,9.18774 -0.83524,5.01149 -2.50574,3.75862 -2.92337,9.18774 -0.41762,5.42912 0.83525,10.02299 0.41763,12.94636 -0.41763,2.92337 2.50574,5.84674 -0.41763,6.68199 -2.92337,0.83525 -1.25287,4.59387 -8.35249,2.08812 -7.09961,-2.50574 -12.11111,-3.75862 -13.78161,-9.18774 -1.6705,-5.42912 2.08813,-5.01149 -1.6705,-7.93486 -3.75862,-2.92337 -4.59386,-2.08813 -6.26436,0 -1.6705,2.08812 -2.50575,6.68199 -9.18774,3.34099 -6.68199,-3.34099 -2.50575,-9.60536 -10.44062,-12.11111 -7.93486,-2.50575 -6.26436,-2.92337 -11.69348,2.50575 -5.42912,5.42912 -10.02299,7.51724 -20.04598,6.68199 -10.02299,-0.83525 -9.60536,-5.01149 -12.94636,-4.59387 -3.341,0.41763 -8.35249,1.6705 -10.02299,-2.08812 -1.6705,-3.75862 0,-1.25287 -5.01149,-6.26437 -5.0115,-5.01149 -5.42912,-8.35249 -2.92337,-11.27586 2.50574,-2.92337 2.50574,-14.61686 -0.41763,-17.95786 -2.92337,-3.34099 -0.83525,-6.26436 -7.09962,-4.17624 -6.26436,2.08812 -5.84674,5.84674 -3.75862,6.68199 2.08813,0.83525 2.50575,1.25288 2.08813,4.59387 -0.41763,3.341 0.41762,-0.41762 1.25287,4.17625 0.83525,4.59387 -2.50575,5.42912 -6.26437,5.84674 -3.75862,0.41762 -5.84674,3.75862 -10.44061,1.25287 -4.59387,-2.50574 -3.341,-6.68199 -5.84674,-7.09961 -2.50575,-0.41763 -5.0115,-1.6705 -5.0115,1.67049 0,3.341 7.51724,4.17625 4.17625,6.26437 -3.341,2.08813 -7.51724,-0.83525 -8.35249,1.25288 -0.83525,2.08812 -1.6705,5.42912 -4.59387,4.59387 -2.92338,-0.83525 0,2.08812 -5.429122,0.83525 -5.429119,-1.25288 -4.59387,-4.59387 -6.681993,-4.17625 -2.088122,0.41762 1.252874,3.341 -3.340996,6.26437 -4.59387,2.92337 -9.18774,2.92337 -13.363985,1.25287 -4.176245,-1.6705 0,-5.01149 -4.59387,-6.26437 -4.593869,-1.25287 -5.011494,-1.67049 -7.934865,0.41763 -2.923372,2.08812 -2.088123,4.17624 -5.011495,6.26437 -2.923371,2.08812 -3.75862,6.68199 -7.099617,3.34099 -3.340996,-3.34099 -5.011494,-3.75862 -5.846743,-1.6705 -0.835249,2.08813 2.505747,3.75862 -2.505747,4.17625 -5.011494,0.41762 -5.011494,0.41762 -11.693487,-1.25287 -6.681992,-1.6705 -8.770115,-1.25288 -10.440613,2.08812 -1.670498,3.34099 -5.011494,5.84674 0,7.09962 5.011494,1.25287 7.517242,0.83524 11.693487,5.42911 4.176245,4.59387 2.088122,6.26437 8.770115,5.0115 6.681992,-1.25288 7.099617,-0.83525 9.605364,-2.50575 2.505747,-1.6705 -1.252874,-2.92337 2.505747,-4.59387 3.758621,-1.6705 10.022989,1.6705 9.605364,-1.6705 -0.417625,-3.34099 0,-0.83525 -4.59387,-3.75862 -4.59387,-2.92337 -4.59387,-2.50574 -2.088122,-4.59387 2.505747,-2.08812 6.681992,-7.09961 9.605364,-4.59387 2.923371,2.50575 -1.670498,10.02299 4.176245,12.11111 5.846743,2.08813 6.681992,-1.67049 7.517241,2.50575 0.835249,4.17625 4.176246,5.84674 -0.417624,7.93487 -4.59387,2.08812 -3.758621,0 -5.011494,2.92337 -1.252874,2.92337 -1.252874,6.26437 0.417624,8.77011 1.670498,2.50575 5.011494,-2.08812 2.923372,6.26437 -2.088123,8.35249 -2.923372,9.18774 -9.18774,10.44061 -6.264368,1.25288 -12.111111,6.26437 -17.54023,1.6705 -5.429119,-4.59387 -3.758621,-6.26436 -5.846743,-5.01149 -2.088123,1.25287 0.417624,5.84674 -3.340996,7.93486 -3.758621,2.08813 -5.846744,6.26437 -4.176246,10.02299 1.670499,3.75862 7.099617,5.42912 1.670499,7.09962 -5.429119,1.6705 -9.605364,0.41762 -12.111112,-1.25287 -2.505747,-1.6705 -6.681992,-0.41763 -10.022988,-2.50575 -3.340996,-2.08812 -7.9348661,-5.01149 -4.59387,-8.77012 3.340996,-3.75862 5.846743,0.41763 3.758621,-5.84674 -2.088123,-6.26437 -2.088123,-7.51724 0.417624,-7.09962 2.505747,0.41763 2.505747,4.17625 4.176246,-1.25287 1.670498,-5.42912 0.417624,-2.92337 -1.670499,-6.68199 -2.088122,-3.75862 -1.670498,-9.60537 -4.176245,-9.18774 -2.505747,0.41762 1.670498,3.34099 -3.7586205,2.08812 -5.4291188,-1.25287 -7.0996169,-3.34099 -5.4291188,-5.84674 1.6704981,-2.50575 2.9233716,-7.09962 1.2528735,-7.09962 -1.6704981,0 -5.01149425,0.41763 -5.01149425,0.41763"
           id="path3089"
           inkscape:connector-curvature="0" />
      </g>
      <path
         inkscape:connector-curvature="0"
         id="path3878"
         d="m 0.58298457,395.93515 0,-36.75096 1.76791433,0 c 1.8912946,0 1.874604,0.44917 -0.2095641,5.63974 -0.9854542,2.45425 -0.9235975,2.88347 0.641024,4.44809 2.0996482,2.09965 8.5137242,3.19195 9.4878642,1.61576 0.437231,-0.70745 0.862123,-0.11422 1.259138,1.758 0.329572,1.55417 1.344367,4.1731 2.255102,5.81985 0.910735,1.64675 1.52763,3.90192 1.370879,5.01149 -0.237252,1.67941 -0.691214,1.97378 -2.709552,1.75698 -3.296782,-0.35412 -3.8392,0.9438 -2.504774,5.99352 0.691653,2.61736 0.819571,4.397 0.328096,4.56459 -1.679824,0.57283 -4.0449593,3.13925 -4.576779,4.9663 -0.792448,2.72242 3.957929,7.27913 8.810835,8.45162 2.039493,0.49275 5.449994,1.46608 7.578892,2.16296 6.609742,2.16363 15.75763,1.28922 15.75763,-1.50621 0,-0.62925 -0.71738,-1.79331 -1.594177,-2.58681 -4.265238,-3.85998 -3.972125,-7.9098 0.867207,-11.98184 1.570469,-1.32145 2.579917,-3.13326 2.915722,-5.23326 l 0.513626,-3.21205 2.089299,2.48299 c 2.306894,2.74159 6.001578,4.92931 8.322017,4.92769 3.053598,-0.003 18.754133,-5.70156 19.868828,-7.21255 1.060735,-1.43785 2.116515,-4.78921 3.321995,-10.54501 0.396253,-1.89199 0.107396,-2.47766 -1.607314,-3.25894 -2.497996,-1.13816 -3.294882,-3.23379 -2.612615,-6.87059 0.393045,-2.09511 1.126888,-2.91075 3.338313,-3.71041 4.520093,-1.63449 5.003745,-2.73299 3.30685,-7.5107 -1.411058,-3.97293 -1.619511,-4.1601 -5.065743,-4.54854 -4.74258,-0.53455 -6.10079,-1.79682 -6.10079,-5.66981 0,-8.21101 -3.773764,-9.79541 -10.330311,-4.33715 -2.069335,1.7227 -3.786388,3.7302 -3.815675,4.46112 -0.03061,0.76391 1.722377,2.29536 4.122998,3.60194 2.296935,1.25015 4.176245,2.59654 4.176245,2.99197 0,0.39544 -2.030627,0.67143 -4.512506,0.61332 -4.771932,-0.11172 -7.180981,1.07754 -7.180981,3.54501 0,1.49988 -3.199091,2.74809 -9.645546,3.76346 -3.268322,0.51479 -3.499209,0.39259 -6.917371,-3.66115 -3.072625,-3.64395 -4.302943,-4.42205 -9.385123,-5.93559 l -5.848928,-1.74189 1.8679,-3.32348 c 1.027345,-1.82792 2.699752,-3.53226 3.71646,-3.78744 1.016707,-0.25518 4.712719,0.17326 8.21336,0.95207 4.053848,0.9019 7.700745,1.2157 10.044244,0.86427 3.361508,-0.50409 3.701776,-0.77574 3.937912,-3.14382 l 0.258472,-2.59204 2.62632,2.21815 c 1.444476,1.21998 3.178387,2.21816 3.853136,2.21816 1.344254,0 8.972651,-7.76261 8.972651,-9.13051 0,-0.46727 1.033621,-1.36719 2.296935,-1.99981 3.252067,-1.62853 7.530512,-0.38022 8.228507,2.40082 0.791224,3.15249 3.458688,4.55365 8.662322,4.55013 5.3615,-0.003 9.637499,-2.15482 10.903845,-5.48557 l 0.816264,-2.14692 2.198935,1.72968 c 3.798103,2.9876 11.440127,2.01178 13.569897,-1.73275 1.00766,-1.77165 1.98569,-2.37797 3.85586,-2.39043 6.56808,-0.0438 8.14706,-2.46403 3.73539,-5.72572 -2.63835,-1.95063 -2.6427,-3.4559 -0.01,-3.4559 0.86685,0 2.27599,1.24961 3.22726,2.86189 2.32917,3.94765 5.35149,5.7723 8.70219,5.25371 4.92332,-0.76197 11.74662,-3.00406 12.50215,-4.10811 0.40804,-0.59626 0.52639,-3.52722 0.26299,-6.51323 -0.35103,-3.97961 -0.91959,-5.79937 -2.12953,-6.81588 -2.77707,-2.33313 -1.65894,-4.2732 3.27903,-5.68939 2.46633,-0.70733 2.69199,-0.56098 4.88363,3.16727 1.91583,3.25905 2.29783,4.88087 2.29783,9.75562 0,4.22477 -0.4055,6.41965 -1.46169,7.91191 -2.84195,4.01527 -1.89869,6.85594 4.73762,14.26755 1.87334,2.09219 3.82355,4.5353 4.33382,5.42912 0.75843,1.32851 1.74938,1.59793 5.42912,1.47605 3.39556,-0.11246 5.62988,0.40051 9.09523,2.08813 3.90526,1.90185 5.65808,2.23279 11.69348,2.20775 8.17554,-0.0339 10.73102,-1.05781 16.87802,-6.76244 4.39425,-4.07803 6.07161,-4.3794 11.26112,-2.02333 2.85355,1.29553 3.83911,2.37862 5.34073,5.86922 2.04983,4.76496 4.77675,6.70462 9.42586,6.70462 2.40957,0 3.20057,-0.49163 4.70347,-2.92337 0.99371,-1.60785 2.16517,-2.92337 2.60325,-2.92337 1.80242,0 4.97782,2.80515 4.52151,3.9943 -0.90268,2.35234 0.58054,6.84958 3.05784,9.2716 1.53696,1.50266 5.04209,3.27353 9.19824,4.64715 l 6.71502,2.21934 3.27036,-2.26635 c 3.07677,-2.13221 3.24576,-2.46849 2.85489,-5.68114 -1.52359,-12.52274 -1.41656,-14.94966 0.99029,-22.45467 2.8366,-8.84506 6.62927,-13.43164 11.78895,-14.25671 3.87864,-0.62022 4.7471,-1.56012 6.36292,-6.88636 1.67641,-5.52596 1.6655,-5.57372 -1.68572,-7.37847 -1.83182,-0.98651 -3.11972,-2.39862 -3.41076,-3.73975 -0.83952,-3.8687 -1.08945,-4.24289 -2.8338,-4.24289 -2.69825,0 -2.80661,-1.96412 -0.3755,-6.80625 3.49227,-6.95567 3.17433,-6.83263 9.28233,-3.59227 2.98713,1.58471 6.17032,2.88128 7.07375,2.88128 2.08974,0 5.63427,1.83545 11.02864,5.71092 3.55326,2.55276 4.95404,3.0592 8.46165,3.0592 5.224,0 9.63258,-1.74714 9.63258,-3.81745 0,-0.83966 -1.40948,-2.55796 -3.13218,-3.81844 -4.27162,-3.12549 -5.22031,-4.41074 -5.22031,-7.0723 0,-4.43586 0.61182,-4.92016 6.21567,-4.92016 4.72668,0 5.40557,-0.22882 7.43432,-2.50575 3.86671,-4.33973 5.90521,-3.5659 16.44535,6.24282 6.81828,6.34514 8.97888,7.01399 26.17906,8.10414 7.40789,0.46951 15.912,1.03103 18.89802,1.24781 7.1001,0.51545 9.51417,-0.48679 11.83073,-4.91169 l 1.87603,-3.58346 0.56234,4.30054 c 0.30928,2.3653 0.81813,4.71444 1.13077,5.22031 1.4549,2.35407 8.16635,0.15569 11.16574,-3.65742 2.97411,-3.78097 3.78117,-2.86375 4.76244,5.41243 0.87535,7.38292 1.96468,10.5893 4.06516,11.96558 2.40958,1.57882 3.86349,0.48915 3.86349,-2.8956 0,-2.70832 1.30701,-3.8682 1.88184,-1.67002 0.40242,1.53887 5.06988,3.07113 6.55644,2.15238 0.4122,-0.25475 0.75459,-1.66256 0.76086,-3.12846 0.007,-1.46589 0.23505,-3.49948 0.50838,-4.51909 0.47429,-1.76922 0.60947,-1.79566 2.96186,-0.57919 1.3557,0.70105 3.92446,2.59329 5.70839,4.20495 1.78392,1.61167 4.60503,3.30624 6.26914,3.76573 3.28264,0.90638 7.9278,0.27166 7.9278,-1.08325 0,-2.24246 -6.41662,-11.90916 -9.68033,-14.58353 -2.02601,-1.66016 -3.68365,-3.34906 -3.68365,-3.75311 0,-0.40405 1.16746,-0.73463 2.59435,-0.73463 1.7999,0 3.11809,0.66584 4.30468,2.17434 1.49302,1.89807 2.12729,2.10766 4.99192,1.64959 3.76267,-0.60168 11.49602,-4.29428 11.49602,-5.48924 0,-0.44106 -0.95928,-1.43047 -2.13175,-2.1987 -1.656,-1.08506 -2.07541,-1.97395 -1.87931,-3.98304 0.2984,-3.05706 1.91384,-3.59377 11.28019,-3.74762 7.73588,-0.12707 9.95762,-1.14548 10.8645,-4.98015 0.58687,-2.48151 1.16867,-3.08919 3.3933,-3.54417 4.12052,-0.84275 5.20104,-2.17883 5.20104,-6.43118 0,-2.85481 0.82699,-5.30072 3.341,-9.88138 3.94986,-7.19685 4.28531,-10.07356 1.26309,-10.83209 l -2.07789,-0.52152 2.9027,-3.39116 c 2.07472,-2.42384 3.05228,-4.51872 3.42709,-7.34411 0.47297,-3.56541 0.77083,-4.00225 3.03822,-4.45573 1.38261,-0.27652 4.62806,-0.50831 7.21211,-0.51508 6.07915,-0.0159 8.79014,-1.377 9.1587,-4.5982 0.35753,-3.12469 1.45744,-3.81044 5.16639,-3.22108 4.79315,0.76163 6.41115,-1.27871 7.69899,-9.70864 0.73434,-4.80681 0.83674,-8.25358 0.3171,-10.67283 -0.68299,-3.17969 -0.55173,-3.8029 1.1919,-5.65891 2.15898,-2.29813 8.36336,-5.99172 11.30481,-6.72997 1.3569,-0.34056 2.13997,0.0135 2.81349,1.27191 1.43221,2.6761 3.93786,2.09369 7.76962,-1.80598 4.90556,-4.9925 6.3304,-11.08648 5.59946,-23.94879 -0.24102,-4.2414 -0.0819,-4.67579 2.50482,-6.83523 3.33898,-2.7875 3.00546,-4.22577 -1.51461,-6.53174 -3.14155,-1.6027 -3.35071,-1.95935 -4.31564,-7.35876 -0.90753,-5.07824 -0.83467,-6.33129 0.6934,-11.9262 0.93912,-3.43848 1.96916,-9.43004 2.28898,-13.31457 0.41585,-5.05081 1.05333,-7.70097 2.23775,-9.30299 1.4839,-2.00709 1.54336,-2.55233 0.57146,-5.240061 -0.99771,-2.759145 -0.93429,-3.160056 0.7904,-4.9959 2.61741,-2.786107 3.46514,-6.317506 2.14746,-8.945726 -1.27875,-2.550603 -0.81178,-3.447526 2.7431,-5.268764 3.13201,-1.604583 4.81876,-6.301137 3.94184,-10.975544 -0.46089,-2.456729 -0.16109,-3.342188 1.94296,-5.738575 1.36837,-1.558487 3.53499,-5.60172 4.8147,-8.984962 1.27972,-3.383242 3.4014,-7.527403 4.71485,-9.209247 3.03839,-3.890595 4.13007,-9.562516 3.08706,-16.039078 -1.28692,-7.990998 -2.88189,-9.719116 -8.97027,-9.719116 -3.24221,0 -3.43166,0.158992 -6.05551,5.081828 -4.58122,8.595249 -15.46453,17.094818 -22.44685,17.530373 -6.73065,0.419856 -8.21098,0.0023 -11.31922,-3.192661 -4.53341,-4.659937 -6.8364,-9.156196 -7.9291,-15.480426 -0.89905,-5.203536 -0.83146,-6.0092 0.82765,-9.865929 0.99366,-2.309824 2.02647,-6.0557022 2.29514,-8.3241726 l 0.48849,-4.12449182 30.78787,0 30.78787,0 0,216.32950242 0,216.3295 -299.43678,0 -299.43678543,0 0,-36.75095 z"
         style="fill:#c7ecff;fill-opacity:1;stroke:none" />
      <path
         inkscape:connector-curvature="0"
         id="path2991"
         d="m 131.76054,0.659791 c 0,0 1.25287,2.7145594 -0.83525,3.967433 -2.08812,1.2528736 -3.54981,0.6264368 -5.42912,5.637931 -1.87931,5.011494 -2.71456,11.484674 -6.68199,14.199234 -3.96744,2.714559 -14.19924,6.264368 -15.03449,11.484674 -0.83524,5.220307 -1.04406,11.484675 -2.08812,12.94636 -1.04406,1.461686 -3.132182,3.132184 -1.04406,3.758621 2.08812,0.626437 2.92337,2.088123 3.341,3.549809 0.41762,1.461685 11.27586,1.670498 12.11111,3.340996 0.83525,1.670498 0.41762,4.385057 3.96743,5.846743 3.54981,1.461686 3.75862,4.59387 8.35249,4.802682 4.59387,0.208812 13.15517,1.461686 14.40805,2.71456 1.25287,1.252873 5.01149,3.967433 12.94636,3.340996 7.93486,-0.626437 10.85823,-0.208812 12.11111,1.461686 1.25287,1.670498 5.63793,4.802682 5.84674,6.890804 0.20881,2.088123 0.62644,4.802682 2.71456,5.011495 2.08812,0.208812 6.47318,2.714559 7.09962,4.385057 0.62643,1.670498 3.75862,6.473178 6.8908,7.934868 3.13219,1.46168 5.22031,3.34099 5.0115,4.80268 -0.20882,1.46169 0.62643,7.09962 -1.04406,10.02299 -1.6705,2.92337 -6.47318,5.84674 -5.84675,8.77011 0.62644,2.92338 3.96744,2.29694 5.63793,3.13219 1.6705,0.83525 -2.08812,1.04406 3.13219,2.08812 5.2203,1.04406 19.21073,1.04406 20.67241,-0.41762 1.46169,-1.46169 5.22031,-3.341 5.84674,-2.08813 0.62644,1.25288 0.83525,1.25288 5.0115,1.6705 4.17624,0.41763 1.25287,2.08812 7.93486,2.29694 6.682,0.20881 6.47319,1.25287 6.89081,3.34099 0.41762,2.08812 -1.25287,3.341 4.59387,3.96744 5.84674,0.62643 17.33142,-0.62644 20.25479,-2.71456 2.92337,-2.08813 6.68199,-2.71456 9.39655,-2.71456 2.71456,0 7.09962,-2.29694 9.18774,-3.75862 2.08812,-1.46169 0.62644,-3.54981 4.17625,-2.29694 3.5498,1.25287 3.13218,-1.25287 3.75862,3.341 0.62643,4.59387 -0.83525,4.59387 2.71456,8.5613 3.5498,3.96743 5.42911,4.59387 7.51724,5.22031 2.08812,0.62643 2.08812,2.71456 5.2203,3.75862 3.13219,1.04406 11.06705,2.08812 12.94636,1.04406 1.87931,-1.04406 2.92338,-3.341 6.26437,-3.75862 3.341,-0.41763 11.48468,0.41762 11.9023,1.6705 0.41762,1.25287 -1.04406,3.75862 3.96743,3.75862 5.0115,0 25.89272,0.62643 27.77203,-1.46169 1.87931,-2.08812 7.51725,-2.50575 8.77012,-2.50575 1.25287,0 12.52873,-11.48467 17.33142,-11.9023 4.80268,-0.41762 16.91379,2.71456 20.67241,3.13219 3.75862,0.41762 8.77012,0.41762 11.27586,2.50575 2.50575,2.08812 3.96744,5.84674 2.71456,8.35249 -1.25287,2.50574 -6.05555,6.26436 -5.2203,8.97892 0.83524,2.71456 -0.83525,5.22031 5.01149,5.22031 5.84674,0 14.61686,-1.87931 15.66092,1.25287 1.04406,3.13219 0.41762,5.22031 4.17625,6.05556 3.75862,0.83525 12.73754,5.84674 13.99042,9.18774 1.25287,3.34099 5.84674,9.18774 8.14367,8.97893 2.29694,-0.20882 12.73755,1.04406 14.82568,3.13218 2.08812,2.08812 3.34099,10.2318 6.8908,10.64943 3.54981,0.41762 6.47318,-1.6705 9.60536,-1.6705 3.13219,0 6.682,1.25287 7.30843,3.54981 0.62644,2.29693 3.13219,5.63793 3.96744,6.05555 0.83525,0.41763 3.75862,4.38506 3.75862,4.38506"
         style="color:#000000;fill:none;stroke:#838383;stroke-width:1px;stroke-linecap:butt;stroke-linejoin:miter;stroke-miterlimit:4;stroke-opacity:1;stroke-dasharray:none;stroke-dashoffset:0;marker:none;visibility:visible;display:inline;overflow:visible;enable-background:accumulate" />
      <path
         inkscape:connector-curvature="0"
         id="path3761"
         d="m 429.1092,140.14638 c 0,0 -0.20881,-3.34099 2.29693,-4.17624 2.50575,-0.83525 7.09962,-2.08813 8.14368,-4.17625 1.04406,-2.08812 2.08812,-3.54981 3.75862,-4.17624 1.6705,-0.62644 4.17625,-1.6705 4.80268,-3.96744 0.62644,-2.29693 -1.87931,-3.34099 2.29694,-5.63793 4.17624,-2.29693 13.5728,-8.14368 16.07854,-8.14368 2.50575,0 7.30843,-1.25287 8.77012,-1.67049 1.46168,-0.41763 9.39655,3.75862 11.9023,4.17624 2.50574,0.41763 8.5613,1.87931 9.81417,2.29694 1.25288,0.41762 7.09962,0.62643 7.93487,2.71456 0.83525,2.08812 4.17624,2.92337 2.92337,4.38505 -1.25287,1.46169 -2.71456,1.6705 -1.87931,3.54981 0.83525,1.87931 4.38506,3.341 7.72605,3.13219 3.341,-0.20882 5.84675,-1.04407 8.77012,-2.08813 2.92337,-1.04406 3.75862,-2.08812 7.72605,-2.29693 3.96744,-0.20881 6.26437,1.46168 9.81418,1.87931 3.54981,0.41762 7.30843,1.46168 10.02299,2.29693 2.71456,0.83525 9.18774,3.13219 9.18774,3.13219"
         style="color:#000000;fill:none;stroke:#838383;stroke-width:1px;stroke-linecap:butt;stroke-linejoin:miter;stroke-miterlimit:4;stroke-opacity:1;stroke-dasharray:none;stroke-dashoffset:0;marker:none;visibility:visible;display:inline;overflow:visible;enable-background:accumulate" />
      <path
         inkscape:connector-curvature="0"
         id="path3763"
         d="m 380.03832,294.04102 c 0,0 0.20881,-8.77012 1.46168,-12.31992 1.25288,-3.54981 -0.41762,-6.682 2.08813,-6.89081 2.50574,-0.20881 5.63793,0.83525 7.72605,-2.29693 2.08812,-3.13219 7.93486,-13.36399 10.02299,-13.5728 2.08812,-0.20881 5.84674,-1.25287 9.81417,-1.46169 3.96744,-0.20881 12.73755,0.20882 15.03449,-1.46168 2.29693,-1.6705 8.35249,-7.93487 8.35249,-10.2318 0,-2.29694 -0.83525,-2.50575 1.25287,-4.17625 2.08812,-1.6705 5.84674,-6.8908 7.93487,-6.8908 2.08812,0 5.42912,0 6.68199,-1.87931 1.25287,-1.87931 7.09962,-9.60537 8.97893,-9.81418 1.87931,-0.20881 4.59387,0.20881 7.09961,-2.50575 2.50575,-2.71456 2.92337,-6.47318 4.59387,-6.8908 1.6705,-0.41763 6.682,1.87931 10.02299,1.46168 3.341,-0.41762 5.42912,-2.50574 8.14368,-4.59387 2.71456,-2.08812 5.22031,-11.48467 5.22031,-11.48467"
         style="color:#000000;fill:none;stroke:#838383;stroke-width:1px;stroke-linecap:butt;stroke-linejoin:miter;stroke-miterlimit:4;stroke-opacity:1;stroke-dasharray:none;stroke-dashoffset:0;marker:none;visibility:visible;display:inline;overflow:visible;enable-background:accumulate" />
      <path
         inkscape:connector-curvature="0"
         id="path3765"
         d="m 243.03612,132.19406 c 0,0 5.90611,0.2953 2.06714,-4.13428 -3.83897,-4.42957 -3.54366,-13.28873 -3.83897,-15.06056 -0.2953,-1.77183 2.65775,-2.95305 2.95305,-0.59061 0.29531,2.36244 -0.59061,3.54366 2.06714,4.13427 2.65775,0.59061 10.63099,2.36244 11.5169,0.88592 0.88592,-1.47653 4.13427,-2.65775 3.54366,-4.42958 -0.59061,-1.77183 -0.88591,-0.88591 -2.36244,-3.24835 -1.47652,-2.36245 -3.54366,-3.24836 -7.08732,-3.83897 -3.54366,-0.59061 -6.49671,0.2953 -6.49671,-1.47653 0,-1.77183 -2.36245,-4.13427 -2.36245,-6.49671 0,-2.362441 2.36245,-5.315493 4.13428,-5.315493 1.77183,0 8.56384,-0.885915 8.85915,-2.953051 0.29531,-2.067136 2.06714,-5.610797 3.24836,-6.792018 1.18122,-1.181221 6.49671,-2.657746 9.74507,-2.657746 3.24835,0 5.02018,0 4.13427,-2.362441 -0.88592,-2.362441 -11.2216,-0.885916 -12.10751,-2.362441 -0.88592,-1.476526 -7.08733,0.295305 -8.56385,-2.362441 -1.47653,-2.657747 -2.65775,-3.248357 -2.06714,-7.087324 0.59061,-3.838966 4.42958,-14.765256 10.33568,-16.537087 5.9061,-1.771831 10.04038,-1.181221 11.5169,-2.067136 1.47653,-0.885915 2.36244,-4.134272 3.83897,-1.476526 1.47652,2.657747 1.77183,10.630985 3.83897,11.221595 2.06713,0.590611 8.56384,-5.610797 8.56384,-7.973238 0,-2.362441 -1.47652,-1.476526 -1.77183,-3.838967 -0.2953,-2.362441 1.77183,-1.771831 2.95306,-5.020187 1.18122,-3.248357 -0.59062,-5.315492 3.83896,-5.610798 4.42958,-0.295305 2.95305,1.181221 5.31549,1.181221 2.36245,0 13.58404,-6.201408 19.49014,-8.268544 5.90611,-2.067136 15.94648,-4.429577 18.89953,-3.248356 2.95305,1.18122 6.49671,-1.771831 10.04038,4.429577 3.54366,6.201408 7.67793,7.087323 7.67793,14.174646 0,7.087323 2.36244,6.792018 2.65775,8.268544 0.2953,1.476525 -0.59061,5.315492 1.18122,8.563849 1.77183,3.248356 0.88591,9.449764 -0.29531,10.630984 -1.18122,1.181221 -8.26854,5.020188 -9.15446,8.859154 -0.88591,3.838967 -4.42958,12.402816 -6.49671,12.107511 -2.06714,-0.295305 -3.83897,-0.59061 -3.83897,1.18122 0,1.771831 2.36244,4.429577 2.06714,8.563853 -0.29531,4.13427 -0.59061,7.08732 -4.72488,9.15446 -4.13428,2.06713 -12.10751,3.54366 -14.46996,4.13427 -2.36244,0.59061 -6.79201,0 -6.79201,-1.77183 0,-1.77183 1.77183,-7.67794 -1.18122,-6.79202 -2.95306,0.88591 -10.04038,2.06713 -12.99343,3.83897 -2.95305,1.77183 -7.97324,6.49671 -7.08732,10.04037 0.88591,3.54366 -0.59061,7.97324 -0.59061,7.97324"
         style="color:#000000;fill:none;stroke:#838383;stroke-width:1px;stroke-linecap:butt;stroke-linejoin:miter;stroke-miterlimit:4;stroke-opacity:1;stroke-dasharray:none;stroke-dashoffset:0;marker:none;visibility:visible;display:inline;overflow:visible;enable-background:accumulate" />
      <path
         inkscape:connector-curvature="0"
         id="path3767"
         d="m 100.10844,52.314017 c 0,0 -3.838967,1.919483 -6.496713,5.463145 -2.657746,3.543661 -6.496713,11.664552 -8.563849,11.959857 -2.067136,0.295306 -9.597417,1.033568 -11.5169,2.657747 -1.919483,1.624178 -1.328873,3.543661 -5.75845,3.543661 -4.429577,0 -9.154459,0.147653 -10.188027,2.510094 -1.033568,2.362441 -2.067136,5.463145 -5.020187,8.416196 -2.953052,2.953051 -7.825586,4.872535 -10.188027,5.906103 -2.362442,1.033568 -6.496713,2.510093 -6.349061,5.16784 0.147653,2.65775 -3.100704,4.28192 -3.248356,5.75845 -0.147653,1.47653 1.771831,4.28192 1.328873,7.08732 -0.442958,2.8054 -3.100704,4.42958 -4.281925,7.53028 -1.18122,3.10071 -4.724882,7.38263 -5.020187,9.44977 -0.295305,2.06713 -1.033568,14.02699 -2.214788,15.79882 -1.181221,1.77183 -6.496713,10.77864 -7.087324,12.99343 -0.59061,2.21479 0,7.97324 0.590611,8.7115 0.59061,0.73826 4.429577,0.88592 5.463145,3.1007 1.033568,2.21479 1.919483,8.12089 3.396009,9.89273 1.476525,1.77183 4.134272,3.54366 3.986619,5.9061 -0.147653,2.36244 0,9.89272 1.033568,10.77864 1.033568,0.88591 3.838967,2.21478 2.510094,4.28192 -1.328873,2.06714 -2.805399,4.42958 -4.281925,6.93967 -1.476525,2.51009 -6.053755,7.23498 -7.234976,8.85915 -1.18122,1.62418 -3.248356,0.44296 -2.067135,2.65775 1.18122,2.21479 4.134271,1.91948 3.100703,4.42958 -1.033568,2.51009 -4.281924,7.53028 -6.644365,9.0068 -2.362441,1.47653 -1.181221,3.54367 0.442958,4.13428 1.624178,0.59061 7.825586,9.59741 8.268543,11.95985 0.442958,2.36245 2.362441,3.24836 2.067136,5.90611 -0.295305,2.65774 2.067136,8.56385 2.805399,10.33568 0.738263,1.77183 7.382628,8.41619 7.825586,10.04037 0.442958,1.62418 1.181221,3.69132 2.214789,3.83897 1.033567,0.14765 3.986619,1.03357 5.315492,2.21479 1.328873,1.18122 5.315492,4.87253 5.610797,6.79201 0.295306,1.91949 0.147653,5.02019 1.771831,6.20141 1.624178,1.18122 7.382629,7.67794 10.630985,7.97324 3.248356,0.29531 6.053755,1.62418 7.234976,3.39601 1.18122,1.77183 10.778637,12.84577 6.644365,14.02699 -4.134272,1.18122 -5.610797,0.88592 -5.610797,3.69132 0,2.8054 -2.953052,7.08732 -2.953052,7.08732"
         style="color:#000000;fill:none;stroke:#838383;stroke-width:1px;stroke-linecap:butt;stroke-linejoin:miter;stroke-miterlimit:4;stroke-opacity:1;stroke-dasharray:none;stroke-dashoffset:0;marker:none;visibility:visible;display:inline;overflow:visible;enable-background:accumulate" />
      <path
         inkscape:connector-curvature="0"
         id="path3769"
         d="m 45.729885,91.0755 c 0,0 4.59387,1.461686 5.846744,4.59387 1.252873,3.132184 -0.417625,5.42912 1.87931,6.47318 2.296935,1.04406 11.275862,1.46169 12.94636,3.341 1.670498,1.87931 8.561303,7.51724 10.649426,7.93486 2.088122,0.41763 3.340996,0.62644 3.549808,3.13219 0.208812,2.50574 4.385058,6.68199 6.890805,7.51724 2.505747,0.83525 3.340996,2.08812 5.220306,1.25287 1.879311,-0.83525 1.461686,-1.46168 3.758621,-1.25287 2.296935,0.20881 3.758625,0 4.385055,2.50574 0.62644,2.50575 0.62644,6.47319 -0.62643,10.44062 -1.252878,3.96743 -3.967437,7.51724 -6.264372,8.35249 -2.296935,0.83525 -0.626437,-1.46169 0.417624,3.34099 1.044062,4.80269 -0.208812,7.51725 -2.505747,11.48468 -2.296935,3.96743 -3.132184,7.30843 -4.802682,9.60536 -1.670498,2.29694 -5.637931,15.2433 -9.187739,17.54023 -3.549809,2.29694 -4.385058,3.75862 -6.264368,6.682 -1.879311,2.92337 -9.605364,12.31992 -10.858238,16.07854 -1.252873,3.75862 -3.340996,7.93487 -5.846743,10.2318 -2.505747,2.29694 -5.220307,5.84674 -9.18774,5.63793 -3.967433,-0.20881 -12.737548,0.83525 -13.363984,-1.6705 -0.626437,-2.50574 1.044061,-3.96743 -1.879311,-5.01149 -2.923371,-1.04406 -10.649425,-3.54981 -10.649425,-3.54981"
         style="color:#000000;fill:none;stroke:#838383;stroke-width:1px;stroke-linecap:butt;stroke-linejoin:miter;stroke-miterlimit:4;stroke-opacity:1;stroke-dasharray:none;stroke-dashoffset:0;marker:none;visibility:visible;display:inline;overflow:visible;enable-background:accumulate" />
      <path
         inkscape:connector-curvature="0"
         id="path3771"
         d="m 44.477012,227.01228 c 0,0 2.088122,2.71456 1.252873,5.84675 -0.835249,3.13218 -1.461685,6.26436 3.758621,8.77011 5.220307,2.50575 15.66092,3.13219 16.496169,5.0115 0.835249,1.87931 0,5.2203 2.088122,5.63793 2.088123,0.41762 1.670498,6.05555 4.176246,6.47318 2.505747,0.41762 2.923371,0.62643 7.099617,-1.87931 4.176245,-2.50575 18.584291,-9.18774 22.1341,-9.39656 3.54981,-0.20881 6.47318,-0.20881 6.47318,2.29694 0,2.50575 -1.46169,4.17624 -0.41763,6.68199 1.04407,2.50575 4.17625,7.51724 7.09962,7.72606 2.92337,0.20881 7.51724,5.42911 9.39655,6.05555 1.87931,0.62644 2.08813,2.71456 5.42912,2.71456 3.341,0 7.51724,0.20881 8.77012,2.29694 1.25287,2.08812 0.62643,7.72605 3.96743,7.72605 3.341,0 12.31992,0.62644 14.61686,-0.20881 2.29693,-0.83525 3.34099,-2.50575 3.34099,-2.50575 0,0 4.59387,5.22031 8.56131,5.63793 3.96743,0.41763 15.66092,-1.46169 15.86973,3.13218 0.20881,4.59387 -0.62644,12.11112 2.29693,13.99043 2.92338,1.87931 5.0115,4.17624 6.47318,1.04406 1.46169,-3.13219 -0.20881,-10.44062 3.341,-12.11111 3.54981,-1.6705 4.59387,-3.96744 13.99042,-6.47318 9.39655,-2.50575 15.66092,-3.13219 16.49617,-2.92338 0.83525,0.20882 13.36399,0.83525 13.99042,2.08813 0.62644,1.25287 13.5728,9.18774 16.28736,11.06705 2.71456,1.87931 11.69349,4.80268 11.69349,4.80268"
         style="color:#000000;fill:none;stroke:#838383;stroke-width:1px;stroke-linecap:butt;stroke-linejoin:miter;stroke-miterlimit:4;stroke-opacity:1;stroke-dasharray:none;stroke-dashoffset:0;marker:none;visibility:visible;display:inline;overflow:visible;enable-background:accumulate" />
      <path
         inkscape:connector-curvature="0"
         id="path3773"
         d="m 123.19923,268.98355 c 0,0 -2.50574,2.08812 -9.18774,3.34099 -6.68199,1.25288 -11.48467,1.04407 -11.90229,3.54981 -0.41763,2.50575 -0.20882,5.42912 1.25287,7.09962 1.46169,1.6705 5.01149,1.46168 4.59387,5.42912 -0.41763,3.96743 -0.20881,7.51724 0.83525,8.35249 1.04406,0.83525 2.92337,0.20881 3.75862,5.63793 0.83525,5.42912 1.25287,4.17624 2.08812,8.14368 0.83525,3.96743 0,6.26437 0,6.26437"
         style="color:#000000;fill:none;stroke:#838383;stroke-width:1px;stroke-linecap:butt;stroke-linejoin:miter;stroke-miterlimit:4;stroke-opacity:1;stroke-dasharray:none;stroke-dashoffset:0;marker:none;visibility:visible;display:inline;overflow:visible;enable-background:accumulate" />
      <path
         inkscape:connector-curvature="0"
         id="path3775"
         d="m 191.68966,305.52569 c 0,0 -2.19253,3.44541 -3.13219,6.05556 -0.93965,2.61015 -4.28065,7.30843 -6.7864,9.18774 -2.50574,1.87931 -5.74233,3.86303 -7.20402,6.26437 -1.46168,2.40134 -1.25287,6.8908 -3.65421,9.60536 -2.40134,2.71456 -3.65422,3.75862 -3.75862,4.48946 -0.10441,0.73085 -0.10441,2.92338 -0.10441,2.92338"
         style="color:#000000;fill:none;stroke:#838383;stroke-width:1px;stroke-linecap:butt;stroke-linejoin:miter;stroke-miterlimit:4;stroke-opacity:1;stroke-dasharray:none;stroke-dashoffset:0;marker:none;visibility:visible;display:inline;overflow:visible;enable-background:accumulate" />
      <path
         inkscape:connector-curvature="0"
         id="path3777"
         d="m 160.99425,76.24983 c 0,0 1.6705,1.252873 -0.83525,3.967433 -2.50574,2.714559 -8.77011,7.726053 -10.02298,9.187739 -1.25288,1.461686 -3.13219,3.549809 -1.6705,4.176246 1.46168,0.626436 5.2203,-0.208813 5.42912,1.670498 0.20881,1.87931 -1.04406,5.846744 -1.46169,7.099614 -0.41762,1.25288 1.25287,3.54981 3.54981,4.38506 2.29693,0.83525 4.17624,3.341 5.01149,5.63793 0.83525,2.29694 1.04407,7.51724 -2.92337,9.60537 -3.96743,2.08812 -5.84674,6.05555 -10.2318,8.97892 -4.38506,2.92337 -7.51724,3.75862 -8.77011,5.63793 -1.25288,1.87931 -2.50575,5.84675 -2.92338,8.77012 -0.41762,2.92337 -1.87931,8.14368 -3.5498,8.97893 -1.6705,0.83524 -4.59387,2.29693 -6.05556,4.38505 -1.46169,2.08813 -2.92337,2.29694 -2.08812,3.54981 0.83525,1.25288 2.50575,1.6705 1.87931,3.96743 -0.62644,2.29694 -0.41763,6.26437 1.04406,6.682 1.46169,0.41762 3.341,1.04406 4.80268,3.96743 1.46169,2.92337 0.62644,7.72605 2.08812,9.60536 1.46169,1.87931 8.14368,9.60537 10.44062,8.97893 2.29693,-0.62644 5.63793,-3.34099 7.93486,0.62644 2.29694,3.96743 2.92338,7.93486 4.80269,8.14368 1.87931,0.20881 5.63793,1.04406 6.8908,4.17624 1.25287,3.13219 1.46169,3.54981 0.20881,7.30843 -1.25287,3.75862 -0.62643,3.54981 -3.13218,5.0115 -2.50575,1.46168 -5.84674,2.92337 -8.5613,6.05555 -2.71456,3.13218 -10.85824,7.93487 -16.28736,10.44061 -5.42912,2.50575 -13.36399,4.59387 -13.78161,7.09962 -0.41762,2.50575 -2.08812,6.47318 -6.05556,5.42912 -3.96743,-1.04406 -8.77011,-0.41763 -8.77011,-0.41763"
         style="color:#000000;fill:none;stroke:#838383;stroke-width:1px;stroke-linecap:butt;stroke-linejoin:miter;stroke-miterlimit:4;stroke-opacity:1;stroke-dasharray:none;stroke-dashoffset:0;marker:none;visibility:visible;display:inline;overflow:visible;enable-background:accumulate" />
      <path
         inkscape:connector-curvature="0"
         id="path3779"
         d="m 243.4751,137.22301 c 0,0 -2.92337,1.04406 -4.17625,3.341 -1.25287,2.29693 1.25288,5.63793 1.46169,6.8908 0.20881,1.25287 0.41762,6.26437 -0.83525,7.93487 -1.25287,1.6705 -2.08812,7.51724 0,9.18774 2.08812,1.67049 1.04406,4.38505 5.22031,5.63793 4.17624,1.25287 9.60536,1.25287 10.64942,4.80268 1.04406,3.54981 1.87931,4.80268 0.41763,6.26437 -1.46169,1.46168 -7.09962,1.04406 -6.89081,3.13218 0.20881,2.08812 0.20881,2.50575 0.62644,4.38506 0.41762,1.87931 -2.92337,2.08812 -1.25288,3.75862 1.6705,1.6705 5.63793,0.83525 6.682,2.92337 1.04406,2.08812 1.67049,2.08812 4.38505,2.29694 2.71456,0.20881 1.6705,4.17624 4.59387,4.80268 2.92338,0.62644 5.63793,1.46168 6.05556,3.96743 0.41762,2.50575 -5.84674,0.20881 -7.93487,3.341 -2.08812,3.13218 -8.35249,3.54981 -8.77011,6.26437 -0.41763,2.71455 1.87931,4.17624 -4.17625,4.59387 -6.05555,0.41762 -8.35249,-1.46169 -13.15517,-1.46169 -4.80268,0 -5.01149,-0.20881 -6.68199,3.54981 -1.6705,3.75862 -2.08812,8.14368 -4.59387,13.36398 -2.50575,5.22031 -0.62644,13.5728 2.29693,15.86973 2.92337,2.29694 6.47318,5.22031 8.56131,5.42912 2.08812,0.20882 2.92337,0.20882 6.26436,2.08813 3.341,1.87931 16.07855,1.04406 17.33142,2.92337 1.25288,1.87931 0.41763,3.54981 3.341,3.75862 2.92337,0.20881 2.08812,-1.6705 6.8908,-1.46169 4.80268,0.20881 9.60537,-1.25287 9.60537,-3.34099 0,-2.08813 -0.83525,-7.51725 -1.6705,-9.18774 -0.83525,-1.6705 -2.50575,-5.42912 0.83525,-6.47318 3.34099,-1.04406 5.84674,-2.29694 8.77011,-3.75862 2.92337,-1.46169 8.35249,-2.29694 11.06705,-0.41763 2.71456,1.87931 2.71456,3.13219 4.59387,1.46169 1.87931,-1.6705 2.50575,-16.28736 2.08812,-19.41954 -0.41762,-3.13219 -2.50574,-3.75862 -2.29693,-8.35249 0.20881,-4.59387 -3.341,-4.80269 1.87931,-5.22031 5.22031,-0.41762 29.44253,-0.83525 31.11303,0.83525 1.6705,1.6705 4.59387,4.17624 8.35249,5.01149 3.75862,0.83525 11.48467,0.83525 12.31992,3.13219 0.83525,2.29693 0.62644,4.59387 -2.29693,5.63793 -2.92338,1.04406 -4.80269,-0.41763 -6.26437,4.80268 -1.46169,5.22031 1.25287,10.64943 1.04406,13.78161 -0.20881,3.13218 0.41762,11.9023 2.29693,13.36398 1.87931,1.46169 6.26437,1.6705 5.42912,5.22031 -0.83525,3.54981 -3.96743,4.17625 -1.46168,5.84674 2.50574,1.6705 2.92337,1.04407 6.68199,2.08813 3.75862,1.04406 6.05556,0.20881 9.60536,2.08812 3.54981,1.87931 3.341,3.341 5.84675,3.341 2.50574,0 5.42912,1.04406 5.42912,1.04406"
         style="color:#000000;fill:none;stroke:#838383;stroke-width:1px;stroke-linecap:butt;stroke-linejoin:miter;stroke-miterlimit:4;stroke-opacity:1;stroke-dasharray:none;stroke-dashoffset:0;marker:none;visibility:visible;display:inline;overflow:visible;enable-background:accumulate" />
      <path
         inkscape:connector-curvature="0"
         id="path3781"
         d="m 163.5,218.24217 c 0,0 -2.71456,0.62643 4.17625,1.25287 6.8908,0.62644 10.85823,1.04406 13.78161,1.25288 2.92337,0.20881 4.80268,-0.62644 5.2203,2.71455 0.41763,3.341 3.13219,3.96744 2.50575,8.35249 -0.62644,4.38506 -1.25287,4.80269 1.6705,7.30843 2.92337,2.50575 10.44061,3.96744 14.19923,6.682 3.75862,2.71456 2.71456,2.92337 6.89081,3.5498 4.17624,0.62644 13.15517,-0.83524 13.15517,-0.83524"
         style="color:#000000;fill:none;stroke:#838383;stroke-width:1px;stroke-linecap:butt;stroke-linejoin:miter;stroke-miterlimit:4;stroke-opacity:1;stroke-dasharray:none;stroke-dashoffset:0;marker:none;visibility:visible;display:inline;overflow:visible;enable-background:accumulate" />
      <path
         inkscape:connector-curvature="0"
         id="path3783"
         d="m 248.79457,260.94709 c 0,0 0.44296,1.77183 -0.2953,3.54366 -0.73826,1.77184 -1.77183,7.97324 -3.54366,11.66456 -1.77183,3.69131 -2.65775,4.42957 -3.10071,5.75845 -0.44295,1.32887 -0.73826,2.06713 -0.73826,2.06713"
         style="color:#000000;fill:none;stroke:#838383;stroke-width:1px;stroke-linecap:butt;stroke-linejoin:miter;stroke-miterlimit:4;stroke-opacity:1;stroke-dasharray:none;stroke-dashoffset:0;marker:none;visibility:visible;display:inline;overflow:visible;enable-background:accumulate" />
      <path
         inkscape:connector-curvature="0"
         id="path3785"
         d="m 165.58812,210.51611 c 0,0 1.04406,-1.04406 7.30843,-2.50574 6.26437,-1.46169 9.18774,-1.46169 12.73755,-4.17625 3.54981,-2.71456 13.36399,-10.85824 12.31992,-15.03448 -1.04406,-4.17625 -0.62643,-13.36399 -1.67049,-13.5728 -1.04407,-0.20881 -5.22031,0.20881 -3.96744,-1.25287 1.25288,-1.46169 3.341,-4.80268 5.0115,-4.80268 1.6705,0 1.46168,2.29693 5.01149,3.96743 3.54981,1.6705 4.38506,3.75862 7.93487,1.6705 3.54981,-2.08813 3.13218,-3.96744 7.51724,-4.38506 4.38506,-0.41762 12.94636,-0.20881 18.58429,-0.41762 5.63793,-0.20882 6.68199,-0.83525 6.68199,-0.83525"
         style="color:#000000;fill:none;stroke:#838383;stroke-width:1px;stroke-linecap:butt;stroke-linejoin:miter;stroke-miterlimit:4;stroke-opacity:1;stroke-dasharray:none;stroke-dashoffset:0;marker:none;visibility:visible;display:inline;overflow:visible;enable-background:accumulate" />
      <path
         inkscape:connector-curvature="0"
         id="path3787"
         d="m 270.51629,206.8619 c 0,0 1.7749,2.40134 4.28065,2.61015 2.50574,0.20882 3.65421,-1.98371 6.68199,-1.98371 3.02778,0 7.93487,-1.5661 9.70977,-1.35728 1.7749,0.20881 2.50575,2.61015 4.28065,3.02777 1.7749,0.41763 6.15996,1.14847 6.15996,1.14847"
         style="color:#000000;fill:none;stroke:#838383;stroke-width:1px;stroke-linecap:butt;stroke-linejoin:miter;stroke-miterlimit:4;stroke-opacity:1;stroke-dasharray:none;stroke-dashoffset:0;marker:none;visibility:visible;display:inline;overflow:visible;enable-background:accumulate" />
      <path
         inkscape:connector-curvature="0"
         id="path3789"
         d="m 314.49997,150.06002 c 0,0 -1.62418,1.32887 -1.91949,4.28192 -0.2953,2.95305 -1.03356,10.48333 -2.51009,13.73169 -1.47653,3.24836 -2.65775,7.08732 -2.8054,9.89272 -0.14765,2.8054 -0.73826,8.26854 3.39601,8.7115 4.13427,0.44296 11.36925,0.29531 13.14108,2.8054 1.77183,2.51009 4.28192,3.83897 3.69131,6.64437 -0.59061,2.8054 0.88592,7.82558 -0.44296,9.74507 -1.32887,1.91948 -2.51009,3.69131 -2.51009,3.69131"
         style="color:#000000;fill:none;stroke:#838383;stroke-width:1px;stroke-linecap:butt;stroke-linejoin:miter;stroke-miterlimit:4;stroke-opacity:1;stroke-dasharray:none;stroke-dashoffset:0;marker:none;visibility:visible;display:inline;overflow:visible;enable-background:accumulate" />
      <path
         inkscape:connector-curvature="0"
         id="path3791"
         d="m 355.84269,218.12785 c 0,0 8.26854,-0.44296 10.77863,-2.36244 2.5101,-1.91949 9.89272,-6.79202 13.28873,-7.67794 3.39601,-0.88591 18.16127,-6.79201 19.49014,-8.56384 1.32888,-1.77184 18.01362,-14.91291 18.30892,-16.38944 0.29531,-1.47653 7.67793,-10.48333 8.26854,-11.5169 0.59061,-1.03357 4.13428,-8.7115 4.13428,-8.7115"
         style="color:#000000;fill:none;stroke:#838383;stroke-width:1px;stroke-linecap:butt;stroke-linejoin:miter;stroke-miterlimit:4;stroke-opacity:1;stroke-dasharray:none;stroke-dashoffset:0;marker:none;visibility:visible;display:inline;overflow:visible;enable-background:accumulate" />
      <path
         inkscape:connector-curvature="0"
         id="path3793"
         d="m 387.88329,205.13442 c 0,0 4.13427,-0.14765 5.75845,2.06714 1.62418,2.21479 -1.32887,4.87253 3.39601,5.31549 4.72488,0.44296 9.44977,-0.44296 10.48333,1.77183 1.03357,2.21479 3.83897,1.77183 2.65775,3.98662 -1.18122,2.21479 -2.95305,1.62418 -2.21479,3.10071 0.73826,1.47652 2.95305,1.77183 8.12089,3.24835 5.16784,1.47653 7.97324,1.77183 8.26855,4.42958 0.2953,2.65774 1.77183,4.13427 3.1007,4.72488 1.32887,0.59061 3.1007,1.77183 3.1007,3.69131 0,1.91949 -0.14765,3.10071 1.32888,3.39601 1.47652,0.29531 2.65774,1.77183 2.65774,1.77183"
         style="color:#000000;fill:none;stroke:#838383;stroke-width:1px;stroke-linecap:butt;stroke-linejoin:miter;stroke-miterlimit:4;stroke-opacity:1;stroke-dasharray:none;stroke-dashoffset:0;marker:none;visibility:visible;display:inline;overflow:visible;enable-background:accumulate" />
      <path
         inkscape:connector-curvature="0"
         id="path3838"
         d="m 76.185749,335.22024 c -1.661098,-0.56646 -2.105845,-1.05295 -2.264199,-2.47675 -0.206206,-1.85401 -1.594409,-3.83256 -2.699873,-3.84801 -1.740949,-0.0243 -2.171,-0.94526 -1.258319,-2.69456 0.495282,-0.94928 1.064966,-2.59268 1.265964,-3.65199 0.408368,-2.15218 0.833564,-2.54061 3.711497,-3.39053 4.044481,-1.19443 3.934805,-3.25516 -0.528372,-9.92817 -4.516287,-6.75241 -5.702821,-7.79838 -10.450144,-9.21219 -3.553892,-1.0584 -4.808612,-1.82604 -8.361912,-5.11585 -3.314029,-3.06829 -4.255193,-4.32204 -4.540426,-6.04845 -0.197898,-1.19782 -0.620452,-2.86703 -0.939006,-3.70934 -0.885947,-2.34261 -5.839629,-6.8952 -8.485911,-7.79882 -1.81269,-0.61897 -2.706035,-1.42414 -3.838967,-3.46002 -0.812089,-1.45934 -2.954702,-4.42507 -4.761362,-6.59053 -3.449121,-4.13411 -5.440786,-8.72055 -6.171917,-14.2128 -0.539895,-4.05568 -5.199506,-12.79424 -8.959144,-16.80183 l -3.120649,-3.32646 2.292861,-2.37424 c 2.547425,-2.63783 5.954955,-7.94156 5.954955,-9.26873 0,-0.47176 -0.794552,-1.61897 -1.76567,-2.54936 -0.971119,-0.93039 -1.652411,-1.80488 -1.513984,-1.94331 0.330886,-0.33089 9.856203,2.81054 10.809935,3.56509 0.406044,0.32125 0.738263,1.29807 0.738263,2.17071 0,3.13078 1.113898,3.7796 6.969471,4.05956 5.235698,0.25032 5.362979,0.29138 6.050772,1.95186 0.458795,1.10762 0.562173,3.00718 0.29794,5.47455 -0.390188,3.64352 -0.338975,3.85317 1.434675,5.87325 2.003674,2.28206 4.223795,3.18055 12.675114,5.12969 2.904047,0.66976 5.595071,1.47916 5.980053,1.79867 0.384981,0.31951 0.867819,1.63062 1.072972,2.91357 0.220149,1.37674 0.818187,2.57091 1.45935,2.91405 0.59749,0.31977 1.549041,1.79295 2.11456,3.27374 1.959834,5.13175 3.653068,5.07341 14.741197,-0.50793 10.572491,-5.32179 17.645867,-7.76736 20.770337,-7.18121 l 2.18464,0.40984 -0.38166,3.2474 c -0.29493,2.50935 -0.13035,3.81556 0.72417,5.74734 1.52174,3.44014 4.52808,6.71155 6.5824,7.16275 1.83188,0.40235 6.50616,3.52172 6.50616,4.34187 0,0.70544 -4.07066,1.82977 -11.17659,3.08699 -3.52844,0.62427 -6.55377,1.48661 -7.08732,2.02015 -1.14777,1.14778 -1.25021,6.0218 -0.16885,8.03431 0.41913,0.78006 1.68156,2.01872 2.80539,2.75258 1.97562,1.2901 2.04333,1.45842 2.04333,5.07971 0,4.47818 0.8693,7.28673 2.40638,7.77458 0.75063,0.23824 1.4238,1.42853 2.01777,3.5678 0.49024,1.76565 1.29001,4.6465 1.77726,6.40188 0.48725,1.75538 0.88592,4.42147 0.88592,5.92464 0,1.88453 -0.27505,2.83858 -0.88592,3.07299 -0.54134,0.20774 -0.88592,1.10268 -0.88592,2.30091 0,1.54243 0.46567,2.34479 2.1819,3.75945 1.20005,0.98918 1.97345,2.00518 1.71868,2.25779 -0.25478,0.2526 -2.08052,0.45928 -4.05719,0.45928 l -3.59397,0 -1.22808,2.36244 c -0.86318,1.6605 -1.66599,2.41361 -2.70193,2.53467 -0.81063,0.0947 -2.06846,0.47003 -2.79517,0.83401 -1.804422,0.90377 -5.633053,-0.27547 -7.148205,-2.20167 -0.698249,-0.88768 -1.755087,-1.46231 -2.689432,-1.46231 -1.349952,0 -1.539178,0.24147 -1.539178,1.96418 0,4.66352 -7.79801,7.7073 -14.174646,5.53276 l 0,0 z"
         style="fill:#fefeea;fill-opacity:1;stroke:none" />
      <path
         inkscape:connector-curvature="0"
         id="path3851"
         d="m 33.809462,224.56596 c -0.406044,-0.16384 -0.742333,-1.13951 -0.747307,-2.16816 -0.01329,-2.74801 -0.503255,-3.1907 -5.338816,-4.82369 -2.418465,-0.81673 -4.747613,-1.6145 -5.175885,-1.77283 -0.523906,-0.19369 0.36226,-1.68984 2.708464,-4.57283 3.74205,-4.59818 8.405892,-11.96781 8.405892,-13.28267 0,-0.44206 -0.699487,-1.45201 -1.554414,-2.24433 -1.749983,-1.62183 -2.515028,-4.62636 -2.554137,-10.03075 -0.02357,-3.25709 -0.222614,-3.79275 -2.379004,-6.40228 -1.590063,-1.9242 -2.758454,-4.21926 -3.602573,-7.0765 -1.427142,-4.8307 -2.267294,-5.99433 -4.972615,-6.88717 -1.470146,-0.48519 -2.012835,-1.06755 -2.291025,-2.45849 -0.897856,-4.48929 -0.322532,-6.3881 4.31393,-14.2378 3.05245,-5.1679 3.785409,-7.83601 4.536986,-16.5155 0.408962,-4.72283 1.231635,-6.5306 7.864277,-17.28127 1.951459,-3.16307 2.207512,-5.06898 1.153587,-8.58666 -0.607549,-2.02782 -0.529546,-2.40278 0.885916,-4.25855 0.853667,-1.11921 1.552123,-2.561514 1.552123,-3.205109 0,-1.619216 2.05331,-3.391951 6.046048,-5.219888 3.313555,-1.516995 3.422127,-1.527587 5.156557,-0.503034 2.050142,1.211049 3.562652,4.028878 3.562652,6.637277 0,2.414574 1.441678,3.255974 7.677933,4.481034 5.305941,1.04231 6.468031,1.59373 9.941382,4.71726 2.8843,2.59379 7.759615,5.63897 9.027974,5.63897 0.64878,0 1.277254,0.78013 1.727482,2.14434 0.38923,1.17938 1.655404,3.19334 2.813721,4.47545 3.375887,3.7367 9.89532,6.45417 11.040142,4.60181 0.20076,-0.32484 1.535964,-0.59061 2.967125,-0.59061 3.129408,0 3.824893,0.94239 3.824893,5.1828 0,6.05739 -3.168778,12.53621 -6.892381,14.09203 -2.026921,0.8469 -2.057993,0.90741 -1.042256,2.02979 0.629402,0.69548 1.153285,2.43909 1.313565,4.37185 0.25219,3.04108 0.02634,3.70342 -4.175692,12.246 -2.443266,4.96708 -5.905529,12.08745 -7.693927,15.82306 -2.575911,5.38058 -3.799142,7.2448 -5.886347,8.97088 -3.579656,2.96029 -13.299883,16.66308 -16.577786,23.37002 -3.156664,6.45888 -4.203465,7.88105 -8.256097,11.21661 l -3.049711,2.51009 -6.796206,-0.0466 c -3.737914,-0.0257 -7.128425,-0.18071 -7.53447,-0.34455 z"
         style="fill:#fefeea;fill-opacity:1;stroke:none" />
      <path
         inkscape:connector-curvature="0"
         id="path3853"
         d="m 71.135424,255.98312 c -0.470678,-1.12649 -0.855778,-2.31635 -0.855778,-2.64413 0,-0.32778 -0.664436,-1.03132 -1.476526,-1.56342 -0.987649,-0.64714 -1.476525,-1.50996 -1.476525,-2.60594 0,-3.04591 -1.538656,-4.05888 -8.916775,-5.8703 -11.158161,-2.73948 -12.047699,-3.47924 -12.054635,-10.02496 -0.0026,-2.46306 -0.230376,-4.9434 -0.506147,-5.51186 -0.404404,-0.83362 -0.232105,-1.03399 0.890661,-1.03578 3.937648,-0.006 10.155638,-6.37437 13.978527,-14.31605 3.392866,-7.04835 13.056815,-20.62241 16.957645,-23.81885 1.959207,-1.60542 3.202188,-3.39139 4.846939,-6.96429 1.216609,-2.64284 4.391971,-9.23548 7.056361,-14.65031 5.826423,-11.84102 6.40288,-13.69399 5.528525,-17.77097 -0.641109,-2.98939 -0.637448,-3.00203 1.341807,-4.6335 5.242087,-4.32097 7.546777,-18.36966 3.379424,-20.59996 -1.49814,-0.80178 -4.514945,-0.75981 -6.880879,0.0957 -1.610077,0.58221 -2.309473,0.52335 -4.26619,-0.359 -3.107708,-1.40138 -6.363792,-4.81743 -7.364712,-7.72653 -0.662306,-1.92494 -1.224538,-2.49432 -3.073466,-3.1125 -2.288203,-0.76506 -5.177956,-2.739 -9.907562,-6.7677 -2.214231,-1.88609 -3.434179,-2.38186 -8.350113,-3.39335 -3.166368,-0.65151 -5.974464,-1.31894 -6.240214,-1.48318 -0.265749,-0.16424 -0.666624,-1.632412 -0.890832,-3.262598 -0.297689,-2.164461 -0.882466,-3.438791 -2.167898,-4.724222 -0.968136,-0.968136 -2.05236,-1.760248 -2.409387,-1.760248 -0.357027,0 0.601386,-0.88909 2.129805,-1.975757 3.192738,-2.269954 5.337759,-4.912417 6.927155,-8.533604 1.38467,-3.154752 3.726509,-4.255896 9.051155,-4.255896 3.593888,0 3.980836,-0.137457 6.482851,-2.302936 2.259589,-1.95566 3.311487,-2.406695 6.975591,-2.991005 2.373116,-0.378438 4.979193,-1.003969 5.791282,-1.390069 0.812089,-0.386099 3.127916,-3.226097 5.146282,-6.311106 4.571196,-6.986931 8.59943,-10.900413 10.289185,-9.996082 0.63809,0.341492 1.45606,1.270348 1.81773,2.064126 0.67423,1.479763 2.31504,2.118468 7.55243,2.939877 4.19869,0.658502 5.1697,1.213638 5.60723,3.205703 0.3054,1.390456 1.51458,2.653636 5.06563,5.291844 4.17708,3.103308 5.05116,3.506446 8.36506,3.858094 7.32854,0.777653 10.83931,1.621933 13.82781,3.325347 3.41875,1.948658 9.78157,3.036402 14.49568,2.478085 2.29218,-0.271475 2.84047,-0.163613 2.84047,0.558791 0,0.851797 -6.18918,7.243262 -9.55523,9.867537 -2.01114,1.567939 -4.23596,5.137773 -3.84194,6.164573 0.16596,0.432475 1.40973,0.934931 2.76396,1.11657 1.35422,0.18164 2.62117,0.48921 2.81545,0.68349 0.19428,0.19428 0.0148,2.055861 -0.39883,4.136846 -0.41363,2.08099 -0.59684,4.27265 -0.40713,4.87037 0.18971,0.59772 1.67736,1.95905 3.3059,3.02518 3.71334,2.43097 4.83192,4.12654 5.19157,7.86956 0.28069,2.92117 0.24661,2.99429 -2.53035,5.42958 -1.54817,1.35769 -4.41275,3.99559 -6.36574,5.86199 -1.95298,1.8664 -5.65535,4.60732 -8.22748,6.09093 -5.25973,3.03381 -5.92566,4.05972 -7.83661,12.07289 -1.60177,6.71663 -2.27905,7.97097 -5.47408,10.13795 -3.28591,2.22862 -6.64794,5.83132 -6.64794,7.12383 0,0.47523 0.53524,1.34845 1.18942,1.94047 0.92494,0.83706 1.10732,1.51404 0.82018,3.04459 -0.68714,3.66277 0.16334,5.98176 2.66111,7.25603 2.44973,1.24976 4.18626,4.11196 4.19174,6.90892 0.007,3.83281 1.21816,6.11421 5.6006,10.5539 4.69106,4.75236 5.45642,5.04399 9.81236,3.73892 2.95694,-0.88592 3.66403,-0.28631 6.1844,5.24426 1.19364,2.61928 2.31044,4.29337 2.86412,4.29337 0.49916,0 1.96396,0.42269 3.25512,0.93931 1.78703,0.71503 2.64759,1.5591 3.6042,3.5352 1.10526,2.28316 1.17047,2.86375 0.54128,4.81915 -1.22888,3.81913 -2.52841,5.49214 -5.65859,7.28483 -1.66562,0.95392 -4.61873,3.15342 -6.56244,4.88776 -4.96398,4.42927 -11.39872,8.288 -19.37585,11.61913 -8.49108,3.54574 -9.593,4.26316 -10.71232,6.97441 -1.65596,4.01108 -2.06383,4.21141 -7.77902,3.8208 -2.80845,-0.19195 -5.6305,-0.7086 -6.27125,-1.14813 -1.70366,-1.16864 -6.89921,-0.97613 -11.108805,0.41162 -2.019976,0.66592 -7.701948,3.19077 -12.626604,5.6108 -4.924656,2.42003 -9.655717,4.40005 -10.513469,4.40005 -1.221335,0 -1.745139,-0.44418 -2.415328,-2.04817 l 0,0 z"
         style="fill:#fefeea;fill-opacity:1;stroke:none" />
      <path
         inkscape:connector-curvature="0"
         id="path3855"
         d="m 432.89406,240.4834 c -1.29074,-0.65602 -1.62418,-1.23709 -1.62418,-2.83033 0,-1.6289 -0.41533,-2.31507 -2.21479,-3.6591 -2.74465,-2.04998 -3.64836,-3.13928 -3.67253,-4.4267 -0.0417,-2.22324 -2.58689,-3.90137 -8.28733,-5.46419 -3.08594,-0.84604 -6.22629,-1.79959 -6.97856,-2.119 l -1.36776,-0.58074 1.22011,-1.55112 c 1.69199,-2.15102 1.54809,-2.92794 -0.99468,-5.37034 -2.12616,-2.04222 -2.43932,-2.14498 -7.82559,-2.56772 -3.08593,-0.2422 -5.64327,-0.46302 -5.68296,-0.49072 -0.0397,-0.0277 -0.23707,-1.08162 -0.43862,-2.34204 -0.25274,-1.58055 -0.8521,-2.60988 -1.9315,-3.31713 l -1.56505,-1.02546 4.11979,-2.16786 c 2.26588,-1.19232 6.06967,-3.88556 8.45287,-5.98498 12.512,-11.02213 14.76378,-13.08473 14.76378,-13.52341 0,-0.26333 1.95485,-3.15172 4.34412,-6.41863 2.38926,-3.26692 4.91879,-7.35386 5.62117,-9.08211 l 1.27706,-3.14226 8.70113,0 c 4.78562,0 9.02305,0.20865 9.41651,0.46368 0.39346,0.25502 0.88383,1.36156 1.08971,2.45898 0.39733,2.11797 2.18399,4.45997 3.40241,4.45997 1.55253,0 9.26063,4.13571 11.53099,6.18685 1.3115,1.18485 3.17172,3.54909 4.13383,5.25385 0.96211,1.70477 2.68105,3.91767 3.81986,4.91755 1.79439,1.5755 2.68841,1.87441 6.7028,2.24102 2.54773,0.23267 6.07878,0.86536 7.84678,1.40599 2.98011,0.91127 3.33416,1.21908 4.85454,4.22054 1.83924,3.63092 1.78999,4.74569 -0.43152,9.76893 -1.55383,3.51348 -6.03273,7.55712 -9.12217,8.23568 -0.98859,0.21713 -3.61828,0.0694 -5.84374,-0.32833 -5.54445,-0.99085 -6.52429,-0.62825 -8.47878,3.13764 -1.81087,3.48917 -4.06804,5.16215 -6.96472,5.16215 -1.97711,0 -3.99243,1.76626 -10.33551,9.05822 -2.05732,2.36509 -2.70918,2.75399 -4.61605,2.75399 -2.8918,0 -4.12875,0.67681 -8.04889,4.40408 -3.14555,2.99079 -3.29976,3.06241 -4.87253,2.26305 z"
         style="fill:#fefeea;fill-opacity:1;stroke:none" />
      <path
         inkscape:connector-curvature="0"
         id="path3857"
         d="m 378.38627,274.61882 c -1.31254,-0.21576 -3.30585,-1.08069 -4.42958,-1.92205 -2.43011,-1.81949 -4.66896,-2.55392 -10.60699,-3.47952 -4.18544,-0.65241 -8.26855,-1.91569 -8.26855,-2.55822 0,-0.16042 0.55041,-1.22456 1.22314,-2.36474 1.90585,-3.23017 1.37324,-5.09785 -1.95444,-6.85361 -3.45771,-1.82437 -3.91633,-2.97599 -4.58649,-11.5169 -0.28036,-3.5732 -0.77338,-7.98872 -1.09559,-9.81229 -1.02885,-5.82287 0.45912,-9.66163 3.97527,-10.25568 3.21471,-0.54312 4.80056,-2.18605 4.80056,-4.97335 l 0,-2.2568 3.26551,-0.33704 c 3.27276,-0.33777 4.66197,-0.98053 12.31213,-5.69652 4.30067,-2.65118 13.6554,-6.53452 15.74126,-6.53452 1.40871,0 3.60854,1.03776 4.25632,2.0079 0.23865,0.35742 0.43798,1.34819 0.44296,2.20171 0.0132,2.2644 0.90587,2.67814 6.7657,3.13579 4.51873,0.35291 5.55588,0.64083 7.19234,1.99664 2.24125,1.85687 2.43907,2.77499 0.81626,3.78845 -1.56321,0.97624 -1.49808,2.58443 0.14765,3.64572 0.73088,0.47133 3.85373,1.56783 6.93967,2.43666 6.96286,1.96036 7.87069,2.52646 8.74815,5.45516 0.5014,1.67354 1.37553,2.78905 3.05799,3.90245 1.90741,1.26226 2.42847,2.01294 2.73715,3.94331 0.29204,1.82632 0.77725,2.58903 2.07344,3.25932 1.35,0.69811 1.69219,1.2739 1.69219,2.84738 0,2.05008 -1.05066,3.76779 -4.67521,7.64345 -3.13918,3.35667 -4.45668,3.82388 -11.9062,4.22219 -3.71123,0.19843 -8.94351,0.64221 -11.62728,0.98618 -4.69001,0.60111 -4.96111,0.72052 -6.97781,3.07349 -1.15403,1.34645 -3.54786,4.74394 -5.31963,7.54997 -3.39421,5.37557 -4.00544,5.80225 -8.33201,5.81635 -1.36139,0.004 -2.6395,0.27384 -2.84026,0.59867 -0.20076,0.32484 -0.54866,0.55735 -0.77312,0.51669 -0.22445,-0.0406 -1.48199,-0.25046 -2.79453,-0.46624 z"
         style="fill:#fefeea;fill-opacity:1;stroke:none" />
      <path
         inkscape:connector-curvature="0"
         id="path3859"
         d="m 355.05009,217.05812 c -0.17951,-0.18329 -2.86874,-0.71518 -5.97607,-1.18198 -5.91984,-0.8893 -8.64409,-1.93238 -11.14431,-4.26697 -1.51489,-1.41454 -5.97671,-2.59854 -9.79246,-2.59854 l -1.97704,0 1.15131,-2.21478 c 0.9024,-1.73596 1.13442,-3.30014 1.07319,-7.23498 -0.0842,-5.41315 -0.34559,-6.24898 -2.98322,-9.54072 -1.93821,-2.41887 -4.1413,-3.18452 -10.99651,-3.82164 -5.8893,-0.54735 -6.28933,-0.94785 -6.22304,-6.2303 0.0406,-3.23371 0.52465,-5.67015 1.91577,-9.64255 1.02381,-2.92352 2.24066,-8.02549 2.7041,-11.3377 1.14821,-8.20624 1.12712,-8.17856 6.05869,-7.95239 3.7656,0.17269 4.20824,0.0564 6.69014,-1.7581 2.22302,-1.6252 3.2878,-1.98032 6.50966,-2.17101 4.93025,-0.2918 8.84621,0.69673 8.84621,2.23312 0,0.61394 0.44095,1.55722 0.9799,2.09616 0.87218,0.87218 2.57642,0.95576 15.50351,0.76028 14.50934,-0.2194 14.52647,-0.2212 17.41699,-1.82363 1.65738,-0.9188 3.80902,-1.604 5.03686,-1.604 2.32243,0 2.9895,-0.40888 10.8537,-6.65277 7.29182,-5.78943 7.89012,-5.97461 15.62397,-4.8356 3.48932,0.51389 7.5402,1.20059 9.00196,1.52599 1.46176,0.32541 4.87439,0.84523 7.58362,1.15516 5.74788,0.65754 7.9773,1.64984 9.56799,4.25866 1.70948,2.80365 1.44318,4.23159 -1.57906,8.46688 -2.68618,3.76434 -2.73045,3.9 -2.41347,7.39568 0.28021,3.09025 0.098,4.03664 -1.37864,7.1589 -2.10598,4.45308 -8.81225,13.97042 -12.37105,17.55662 -1.46176,1.47302 -5.94684,5.51586 -9.96685,8.9841 -7.76352,6.69793 -9.65392,7.73917 -23.83194,13.12674 -3.15964,1.20065 -7.81069,3.53345 -10.33568,5.184 -2.52498,1.65055 -5.39962,3.34041 -6.38809,3.75524 -2.01748,0.8467 -8.65705,1.72383 -9.16014,1.21013 l 0,0 z"
         style="fill:#fefeea;fill-opacity:1;stroke:none" />
      <path
         inkscape:connector-curvature="0"
         id="path3861"
         d="m 303.92836,298.97885 c -8.41466,-5.79586 -9.97967,-6.67265 -13.11589,-7.34807 -3.39468,-0.73108 -7.20525,-2.41884 -10.44351,-4.62559 -3.55365,-2.42168 -5.06533,-1.25596 -8.98647,6.9299 -2.96757,6.19514 -2.2457,5.94544 -9.02715,3.12254 -4.5121,-1.87823 -19.35781,-11.41683 -19.87774,-12.77175 -0.20051,-0.5225 0.69652,-3.06501 2.03531,-5.76884 2.0622,-4.16485 3.48096,-8.44001 5.08463,-15.32164 0.37356,-1.60302 0.4311,-1.62203 3.76318,-1.24332 4.22707,0.48043 6.04157,1.1335 6.04157,2.17446 0,1.70709 2.19084,2.91949 4.55088,2.51844 1.23263,-0.20946 4.45855,-0.62859 7.16872,-0.93139 2.85255,-0.3187 5.7127,-1.01493 6.79202,-1.65333 1.8096,-1.07035 1.86085,-1.21432 1.7425,-4.89476 -0.0671,-2.08558 -0.63338,-5.381 -1.25846,-7.32317 -0.62508,-1.94216 -1.02961,-3.80979 -0.89896,-4.15028 0.46423,-1.20974 12.23324,-5.78072 15.56809,-6.0465 2.77342,-0.22104 3.57601,-0.0351 5.48937,1.27141 4.47286,3.05432 5.86162,1.54108 6.86792,-7.48353 0.89994,-8.07072 0.79636,-11.2068 -0.47693,-14.44107 -0.61219,-1.555 -1.21018,-4.42191 -1.32888,-6.37093 l -0.2158,-3.54366 15.76091,0 15.76092,0 1.66208,1.5166 c 3.11365,2.84111 5.08663,3.64776 11.60065,4.74289 6.86189,1.15362 7.12782,1.26626 7.73342,3.27569 0.51599,1.71213 -0.89337,3.01076 -4.16023,3.83336 -4.51521,1.13695 -5.72182,5.14495 -4.3733,14.52683 0.31603,2.19867 0.82186,6.52244 1.12408,9.60838 0.68812,7.02653 1.29842,8.35824 4.55562,9.94071 2.98619,1.4508 3.33038,2.83138 1.42363,5.71046 -1.53264,2.31422 -1.48465,3.02232 0.28335,4.18076 1.57554,1.03233 3.90099,1.63976 11.09164,2.89727 3.35715,0.5871 5.24228,1.28633 7.04788,2.61418 1.58234,1.16367 3.50245,1.95035 5.36262,2.19712 l 2.8977,0.38439 -0.26167,2.42699 c -0.14392,1.33485 -0.62478,5.05499 -1.06857,8.26699 l -0.80691,5.83999 -8.87701,-0.39609 c -10.10995,-0.4511 -18.01337,-1.28746 -20.88202,-2.20979 -1.09065,-0.35067 -5.16312,-3.52682 -9.15446,-7.13965 -3.9544,-3.57938 -8.01758,-6.86277 -9.02928,-7.29641 -2.42949,-1.04134 -5.73408,-0.14879 -8.05975,2.17688 -2.64903,2.64902 -3.51632,2.91391 -8.23472,2.51506 -4.28804,-0.36247 -4.35554,-0.34632 -5.06587,1.21268 -0.91224,2.00215 -0.93254,7.49893 -0.035,9.46888 0.37672,0.8268 1.95094,2.31566 3.49826,3.30859 4.26302,2.73556 4.5244,3.25487 2.23434,4.43911 -1.06402,0.55023 -3.54124,1.11984 -5.50493,1.2658 -3.18664,0.23687 -3.83125,0.0857 -5.9978,-1.40659 l -2e-5,0 z"
         style="fill:#fefeea;fill-opacity:1;stroke:none" />
      <path
         inkscape:connector-curvature="0"
         id="path3863"
         d="m 249.7798,363.75448 c -2.53127,-0.94075 -5.555,-2.29924 -6.7194,-3.01888 -2.72565,-1.68454 -4.54431,-5.57493 -3.98926,-8.53361 0.32291,-1.72126 0.14077,-2.37654 -1.00655,-3.62117 -1.68039,-1.82294 -4.82522,-3.26122 -6.07885,-2.78015 -0.49781,0.19102 -1.8411,1.65014 -2.98508,3.24248 -2.26529,3.15313 -3.72281,3.60405 -6.68989,2.06972 -2.32715,-1.20342 -3.7095,-2.94081 -5.09261,-6.40056 -1.41332,-3.53536 -3.55537,-5.24483 -8.30053,-6.62428 -4.8442,-1.40825 -5.35798,-1.255 -9.95766,2.97017 -6.16577,5.66375 -7.72462,6.34531 -15.16318,6.62961 -3.41483,0.13052 -7.27105,-0.0487 -8.56936,-0.39833 -3.17166,-0.85404 -7.36973,-3.64354 -7.36973,-4.89697 0,-0.55733 1.05888,-2.23677 2.35306,-3.73208 1.63583,-1.89006 2.74238,-4.01627 3.63034,-6.97559 1.01132,-3.37046 1.75906,-4.68728 3.59097,-6.32398 8.5983,-7.68209 9.33072,-8.50838 11.96749,-13.50117 1.48225,-2.80668 3.22765,-5.77249 3.87867,-6.59068 0.79678,-1.00139 1.34884,-2.96051 1.68902,-5.99383 0.27794,-2.47841 0.70267,-4.82548 0.94384,-5.2157 0.24117,-0.39022 2.04447,-1.74749 4.00734,-3.01615 4.10616,-2.65395 12.01752,-5.34839 19.99319,-6.80926 4.83298,-0.88524 6.42176,-0.92406 12.59593,-0.30776 4.40819,0.44003 7.51786,1.042 8.26855,1.60064 4.53106,3.37187 16.92512,11.26429 19.7012,12.54553 1.84501,0.85153 5.74466,2.23978 8.66588,3.08501 l 5.31132,1.53678 0.37492,2.30655 c 0.3727,2.29289 3.34683,5.59478 5.03941,5.59478 0.39915,0 0.85452,0.20839 1.01193,0.4631 0.28414,0.45975 -1.58558,7.85719 -2.26294,8.95317 -0.19445,0.31463 -2.00619,0.8857 -4.02608,1.26905 -3.31082,0.62835 -4.00274,1.03156 -7.02489,4.09368 -2.37222,2.40359 -3.55347,4.15003 -4.04027,5.97339 -0.37836,1.41719 -1.32822,4.31083 -2.1108,6.43031 -1.21244,3.28367 -1.42288,4.9095 -1.42288,10.99333 0,3.92685 0.27116,8.56953 0.60257,10.31707 0.42017,2.21556 0.41356,3.24033 -0.0218,3.38546 -0.34342,0.11447 -1.38382,0.84714 -2.312,1.62816 -2.11971,1.78361 -2.8245,1.75471 -8.48185,-0.34784 l -3e-5,0 z"
         style="fill:#fefeea;fill-opacity:1;stroke:none" />
      <path
         inkscape:connector-curvature="0"
         id="path3865"
         d="m 188.20777,302.71001 -2.28992,-1.97947 -0.40565,-6.73203 c -0.22311,-3.7026 -0.43291,-6.81202 -0.46623,-6.90981 -0.0333,-0.0978 -0.98225,-0.56288 -2.10874,-1.03356 -1.35066,-0.56435 -4.17649,-0.85578 -8.29787,-0.85578 -6.92619,0 -8.24289,-0.42713 -12.12314,-3.9327 l -2.31786,-2.09405 -1.84627,1.55354 c -1.81369,1.52611 -1.98229,1.55063 -9.55055,1.3892 l -7.70427,-0.16435 -1.23739,-3.83896 c -1.05154,-3.26238 -1.54786,-3.99407 -3.30452,-4.87162 -1.15117,-0.57507 -3.3945,-1.03306 -5.06268,-1.03357 -2.64552,-8.3e-4 -3.50815,-0.35692 -7.38263,-3.04767 -2.4129,-1.67571 -5.28794,-3.66902 -6.38899,-4.42958 -1.10104,-0.76055 -2.44422,-1.38282 -2.98484,-1.38282 -1.20437,0 -4.28734,-3.16643 -5.57812,-5.72912 -1.16727,-2.31748 -1.22937,-5.47805 -0.13698,-6.97198 0.75158,-1.02785 1.14855,-1.06305 5.09676,-0.45192 5.98399,0.92623 8.04781,-0.13819 9.17795,-4.73356 0.45936,-1.86784 1.41353,-2.43959 9.98032,-5.98032 7.67644,-3.17274 14.93372,-7.48924 19.46608,-11.57806 1.98548,-1.79118 4.93628,-4.02071 6.55732,-4.9545 1.62104,-0.9338 3.34601,-2.01814 3.83327,-2.40966 0.69198,-0.55601 2.43741,-0.54457 7.97324,0.0523 3.89802,0.42025 8.41619,0.78154 10.04037,0.80286 1.62418,0.0213 3.21883,0.23402 3.54366,0.47267 0.32484,0.23865 1.24634,1.89568 2.04779,3.68227 1.19219,2.65764 1.42984,4.0339 1.30687,7.56808 -0.14379,4.1323 -0.0728,4.39214 1.63671,5.98904 0.98287,0.91813 4.23598,2.6495 7.22914,3.8475 2.99317,1.19799 6.92518,3.21847 8.73779,4.48994 3.85482,2.70401 7.64244,3.34298 14.65369,2.47207 4.25761,-0.52886 4.32055,-0.51686 5.21327,0.99441 1.29434,2.19113 7.19168,6.42162 9.96723,7.15003 1.29934,0.341 3.55842,1.11038 5.02018,1.70974 1.46176,0.59936 3.78729,1.27436 5.16784,1.49999 1.38055,0.22564 2.5101,0.6497 2.5101,0.94236 0,1.99639 -2.88881,10.64572 -5.16506,15.46464 -2.02247,4.28165 -2.96197,5.69468 -3.65155,5.492 -0.51065,-0.15009 -3.50443,-0.55111 -6.65284,-0.89115 -10.54462,-1.13887 -23.82002,1.71132 -33.36682,7.16378 -4.79659,2.73946 -5.25595,3.48137 -6.0336,9.74469 -0.78899,6.35472 -1.36747,6.75434 -5.10306,3.52517 l 0,0 z"
         style="fill:#fefeea;fill-opacity:1;stroke:none" />
      <path
         inkscape:connector-curvature="0"
         id="path3867"
         d="m 209.83329,248.15524 c -0.46401,-0.18316 -1.95242,-1.17936 -3.30758,-2.21378 -1.35516,-1.03441 -4.69636,-2.77246 -7.42489,-3.86232 -2.72853,-1.08986 -5.95762,-2.60086 -7.17575,-3.3578 l -2.21479,-1.37623 0,-4.22817 c 0,-3.16487 -0.38644,-5.20527 -1.53663,-8.11349 -0.84515,-2.13692 -1.70892,-4.05955 -1.91949,-4.27251 -0.21056,-0.21297 -5.01838,-0.81758 -10.68402,-1.34359 -5.66565,-0.526 -10.42573,-1.08093 -10.57796,-1.23316 -0.15223,-0.15223 0.0316,-1.30599 0.40845,-2.5639 0.37688,-1.25792 0.68524,-2.84303 0.68524,-3.52246 0,-1.01682 0.70522,-1.44053 3.98662,-2.39526 2.19264,-0.63795 5.58127,-1.4776 7.53028,-1.86589 1.94901,-0.38829 4.7686,-1.32483 6.26576,-2.08119 3.17198,-1.60249 11.70772,-9.4342 13.57473,-12.45509 1.24356,-2.01213 1.26497,-2.33586 0.66034,-9.98524 -0.34369,-4.34812 -0.79382,-8.17902 -1.0003,-8.5131 -0.20647,-0.33409 -1.21906,-0.60743 -2.25019,-0.60743 l -1.87479,0 2.19225,-2.19225 2.19224,-2.19224 1.73818,1.77784 c 0.95599,0.97782 3.09383,2.51569 4.75075,3.4175 3.57108,1.94362 5.59828,1.74287 8.54737,-0.84647 1.06135,-0.93188 2.60626,-1.95154 3.43313,-2.26591 1.28389,-0.48814 24.47116,-1.72281 27.03296,-1.43945 1.68258,0.18611 9.17942,2.37351 10.43175,3.04374 1.33249,0.71313 2.56168,3.49885 2.56168,5.80556 0,0.76361 -0.0664,1.39588 -0.14765,1.40502 -0.0812,0.009 -1.60942,0.50356 -3.39601,1.0987 l -3.24836,1.08206 -0.0194,3.26344 c -0.0106,1.7949 -0.36481,3.67969 -0.78703,4.18843 -1.41473,1.70464 -0.53296,2.9936 2.77418,4.05529 1.7881,0.57403 3.64318,1.65246 4.3178,2.5101 0.78402,0.99672 1.76318,1.50366 2.90434,1.50366 1.36482,0 2.02913,0.48722 3.20585,2.35128 0.92412,1.46389 2.09713,2.49822 3.10812,2.74063 4.50182,1.07943 6.70028,3.76724 3.08136,3.76724 -2.22301,0 -5.31465,1.25465 -6.4424,2.61446 -0.46782,0.56408 -2.38998,1.80269 -4.27148,2.75246 -3.34371,1.6879 -3.64114,2.08364 -4.16062,5.53589 -0.23876,1.58663 -3.15306,2.09761 -8.04544,1.41064 -7.7072,-1.08221 -11.68447,-1.25256 -12.98565,-0.55618 -1.71738,0.91911 -2.46695,2.51146 -5.7213,12.15406 -2.54273,7.53408 -2.76361,8.63035 -2.51606,12.48772 l 0.27137,4.22859 -2.12209,0.35104 c -2.61916,0.43327 -10.67708,0.39086 -11.8249,-0.0622 l 0,0 z"
         style="fill:#fefeea;fill-opacity:1;stroke:none" />
      <path
         inkscape:connector-curvature="0"
         id="path3869"
         d="m 164.6467,207.52677 c -0.9583,-1.77944 -3.18515,-3.17004 -6.55144,-4.09117 -0.76098,-0.20822 -2.00157,-1.95075 -3.39786,-4.7726 -2.68682,-5.42998 -3.86027,-6.14887 -7.82929,-4.79649 -2.63408,0.89753 -2.86234,0.88791 -4.36789,-0.18414 -1.86745,-1.32974 -5.99363,-5.72103 -7.2882,-7.75647 -0.49868,-0.78408 -1.09213,-2.88735 -1.31878,-4.67395 -0.57698,-4.54813 -1.73457,-6.68535 -4.4466,-8.2096 l -2.34105,-1.31574 0,-3.90232 c 0,-2.72613 -0.28099,-4.21282 -0.93225,-4.93246 -0.85074,-0.94006 -0.84231,-1.1674 0.0964,-2.60006 0.56576,-0.86346 2.60463,-2.64015 4.53083,-3.9482 3.84383,-2.6103 4.41127,-3.59539 6.0646,-10.52823 1.88005,-7.88358 2.60622,-9.03464 7.47288,-11.84522 2.37865,-1.37371 6.23022,-4.25379 8.55906,-6.40016 2.32883,-2.14638 5.31879,-4.85672 6.64436,-6.02299 2.34985,-2.06744 2.41013,-2.21542 2.41013,-5.91665 0,-4.60214 -1.52506,-7.25555 -5.51362,-9.593 -1.43909,-0.84336 -2.75503,-1.8943 -2.92429,-2.3354 -0.16927,-0.44111 0.11218,-2.55715 0.62545,-4.702319 1.09926,-4.594322 0.5851,-5.748578 -2.56068,-5.748578 -1.07798,0 -2.13775,-0.28766 -2.35504,-0.639245 -0.22212,-0.359402 2.47742,-3.364667 6.16655,-6.864904 3.60889,-3.424112 6.5657,-6.525078 6.57067,-6.891036 0.0429,-3.153792 3.77475,-2.269039 7.80849,1.851237 1.96597,2.008138 2.93976,3.601899 3.44681,5.641223 0.67643,2.720615 0.87403,2.922969 4.6139,4.724882 3.25253,1.567108 4.2733,2.439888 6.09214,5.208904 2.17882,3.317056 3.25251,4.341726 8.00309,7.637666 l 2.51009,1.7415 0,4.4647 c 0,5.02723 -0.32245,5.84633 -3.93184,9.9877 -1.88238,2.15982 -2.56487,3.44745 -2.56487,4.83904 0,2.00373 1.69279,3.73495 3.65207,3.73495 0.56474,0 1.53839,0.54913 2.16367,1.22029 1.52064,1.63222 7.89646,2.49806 16.33214,2.21792 5.89298,-0.19569 6.7812,-0.3773 9.55799,-1.9542 2.91016,-1.65266 3.11652,-1.68846 4.18077,-0.72532 0.61573,0.55723 1.84664,1.01314 2.73535,1.01314 0.88871,0 2.86109,0.5109 4.38307,1.13532 1.52198,0.62443 4.49214,1.30929 6.60035,1.5219 2.10822,0.21262 4.16798,0.66447 4.57723,1.00413 1.25005,1.03745 0.82806,2.48804 -1.03165,3.54627 -2.77832,1.58095 -3.34221,3.4513 -2.16572,7.18353 1.22536,3.8873 1.26353,7.84001 0.10252,10.61869 -1.48448,3.55285 -1.1585,7.62392 0.84504,10.55351 l 1.73094,2.53101 -2.76451,0.39122 c -1.52049,0.21517 -6.61826,0.41742 -11.32837,0.44946 -11.13195,0.0757 -12.32453,0.30923 -15.66159,3.06682 -1.52677,1.26165 -3.31561,2.29391 -3.97519,2.29391 -1.43861,0 -6.17082,-2.82749 -8.30639,-4.96306 -0.84351,-0.84351 -1.84648,-1.53365 -2.22882,-1.53365 -1.04643,0 -5.85524,5.02005 -5.85524,6.11244 0,0.55838 0.67193,1.10057 1.62418,1.31059 0.8933,0.19703 1.88828,0.42301 2.21107,0.50219 0.32279,0.0792 0.88575,3.17879 1.25103,6.88801 0.82441,8.37146 0.52686,9.10409 -6.30959,15.53533 -5.87048,5.52253 -7.6546,6.477 -15.11762,8.08763 -3.19383,0.68927 -6.62735,1.59353 -7.63005,2.00946 -1.75805,0.72927 -1.86024,0.68726 -2.86443,-1.17741 l 0,0 z"
         style="fill:#fefeea;fill-opacity:1;stroke:none" />
      <path
         inkscape:connector-curvature="0"
         id="path3871"
         d="m 300.4497,209.34121 c -0.32483,-0.12862 -1.57944,-0.39907 -2.78801,-0.60102 -1.20857,-0.20194 -3.03023,-1.06794 -4.04813,-1.92445 l -1.85072,-1.55728 -5.40164,0.72851 c -2.9709,0.40068 -6.62526,1.15059 -8.12081,1.66645 -3.50658,1.20954 -5.5877,0.67904 -7.04844,-1.79671 -1.09099,-1.84911 -4.37185,-3.9334 -6.19149,-3.9334 -0.47216,0 -1.5214,-1.05014 -2.33164,-2.33366 -1.12107,-1.77588 -1.97786,-2.42833 -3.58465,-2.72978 -1.24881,-0.23427 -2.47745,-0.95466 -3.00724,-1.76322 -0.49267,-0.75191 -1.73999,-1.54826 -2.77182,-1.76968 -3.09505,-0.66414 -4.1297,-1.39358 -3.33495,-2.35119 0.39333,-0.47394 0.59798,-2.13502 0.48109,-3.90496 l -0.20342,-3.08018 2.82475,-0.72248 c 1.55362,-0.39736 3.21471,-1.04611 3.69132,-1.44166 1.25978,-1.04552 1.06218,-4.07234 -0.46231,-7.08193 -1.39409,-2.75213 -1.96379,-3.04375 -10.25064,-5.24711 -2.07631,-0.55205 -2.74976,-1.17084 -4.6829,-4.30277 l -2.25783,-3.65799 1.05397,-3.57876 c 1.55028,-5.26392 1.79637,-9.74677 0.68154,-12.41493 -1.33169,-3.18719 -1.16937,-4.77196 0.6341,-6.19057 1.50229,-1.1817 1.61578,-1.18964 2.72091,-0.19052 0.97516,0.88163 2.26066,1.03594 8.32505,0.99939 8.19726,-0.0494 12.50277,-0.82851 17.69678,-3.20236 2.00732,-0.91741 5.23829,-1.85156 7.17994,-2.07589 3.93007,-0.45405 9.77512,-3.10917 11.1426,-5.06153 0.7486,-1.06877 1.23592,-1.19419 3.29095,-0.847 l 2.41224,0.40755 0,2.86269 c 0,1.57447 0.28121,3.60234 0.62492,4.50636 1.12486,2.95859 4.61814,6.57945 7.8938,8.18208 1.75453,0.85842 3.63121,2.04822 4.17038,2.644 0.8872,0.98033 2.19684,1.63662 5.17327,2.59243 0.82737,0.26569 0.91573,0.59607 0.44918,1.67954 -0.31943,0.74183 -0.96727,4.01963 -1.43965,7.28399 -0.47237,3.26436 -1.55726,7.78252 -2.41085,10.04037 -1.1098,2.93556 -1.644,5.70376 -1.87497,9.71597 -0.44296,7.69465 -0.004,8.22868 7.32386,8.90483 6.56534,0.60582 8.43644,1.35612 10.76682,4.31746 1.69264,2.15093 1.8068,2.61231 1.8068,7.30222 0,4.05259 -0.24572,5.44341 -1.28997,7.30141 l -1.28998,2.2952 -8.60275,0.005 c -4.7315,0.003 -9.93162,0.12982 -11.55579,0.28221 -1.62418,0.15238 -3.21883,0.17184 -3.54367,0.0432 l 0,-1.8e-4 z"
         style="fill:#fefeea;fill-opacity:1;stroke:none" />
      <path
         inkscape:connector-curvature="0"
         id="path3873"
         d="m 262.02617,264.67224 c -0.50212,-0.56659 -1.36435,-1.63235 -1.91606,-2.36836 -0.88397,-1.17926 -1.80988,-1.41015 -7.79514,-1.94386 -4.33865,-0.38688 -8.17871,-1.11019 -10.63099,-2.00244 -2.11143,-0.76823 -4.62419,-1.57329 -5.58391,-1.78901 -2.88749,-0.64907 -9.01595,-5.53179 -9.98598,-7.95613 -2.0043,-5.00925 -1.8578,-6.77648 1.37259,-16.55782 4.19097,-12.68986 3.65095,-12.08486 10.27555,-11.51213 2.96905,0.25669 7.73382,0.49122 10.58838,0.52118 5.74986,0.0603 6.30179,-0.2565 6.31775,-3.62689 0.008,-1.70801 0.33628,-2.07464 3.10975,-3.47401 1.70539,-0.86046 3.94176,-2.29863 4.96971,-3.19594 2.42131,-2.11357 6.83161,-2.82064 9.36244,-1.501 2.11661,1.10366 4.04415,1.17554 5.78743,0.21582 0.70952,-0.39061 3.94779,-1.14002 7.19615,-1.66535 l 5.9061,-0.95515 2.06714,1.611 c 1.33693,1.04194 3.1425,1.75136 5.11142,2.00833 3.34919,0.4371 3.72444,0.96017 3.73967,5.21268 0.005,1.23913 0.57904,3.58025 1.27692,5.20249 1.15271,2.67956 1.23709,3.63565 0.92188,10.44517 -0.34151,7.37783 -1.14616,11.3346 -2.30499,11.3346 -0.32413,0 -1.42767,-0.59799 -2.45232,-1.32887 -3.0561,-2.1799 -8.27997,-1.84296 -14.56113,0.93921 -2.7611,1.22299 -5.88395,2.60401 -6.93967,3.06892 -1.60487,0.70675 -1.91807,1.16147 -1.91089,2.77433 0.005,1.06097 0.43005,3.12502 0.94515,4.58678 0.51511,1.46176 1.07719,4.1582 1.24907,5.99207 0.28594,3.05091 0.19495,3.39723 -1.07042,4.07444 -0.76061,0.40707 -3.25342,0.85412 -5.53958,0.99344 -2.28616,0.13933 -5.15485,0.62982 -6.37486,1.08998 -2.00523,0.75634 -2.30586,0.73776 -3.13116,-0.19348 l 0,0 z"
         style="fill:#fefeea;fill-opacity:1;stroke:none" />
      <path
         inkscape:connector-curvature="0"
         id="path3875"
         d="m 157.26958,342.1136 c -0.67325,-0.85589 -1.22409,-1.86163 -1.22409,-2.23496 0,-0.37333 -1.48223,-2.13148 -3.29385,-3.90697 -5.23915,-5.1347 -6.00505,-7.45611 -3.69566,-11.20142 0.91117,-1.47771 1.35157,-3.34409 1.54448,-6.54544 0.35134,-5.83056 -0.53708,-9.75488 -3.12388,-13.7987 -1.83933,-2.87534 -2.33308,-3.27867 -3.9997,-3.2673 -2.62996,0.0179 -6.62978,1.94576 -7.8265,3.7722 -1.25964,1.92245 -0.76946,4.06904 1.12643,4.93287 1.14152,0.52011 1.49644,1.22757 1.75452,3.49726 0.17794,1.56489 0.49362,3.79024 0.70152,4.94523 0.27847,1.54713 0.12989,2.30587 -0.56441,2.88209 -1.16318,0.96535 -8.02447,3.01427 -11.41482,3.40869 -2.25766,0.26266 -2.70252,0.0917 -4.42957,-1.70261 -1.05593,-1.09702 -2.34947,-2.81098 -2.87454,-3.8088 -0.62579,-1.18923 -1.5529,-1.93386 -2.69119,-2.16152 -1.55747,-0.31149 -1.71614,-0.5491 -1.53882,-2.30439 0.10874,-1.0764 -0.58796,-5.14639 -1.54821,-9.04442 -1.50835,-6.12295 -1.9928,-7.29408 -3.56027,-8.60686 -1.73759,-1.45525 -1.81435,-1.7125 -1.81435,-6.0806 0,-4.88972 0.0366,-4.81875 -4.35333,-8.4493 -1.26008,-1.04212 -1.55277,-1.78966 -1.55277,-3.96584 0,-3.31409 0.55806,-3.66908 7.55147,-4.80361 4.63142,-0.75134 8.82338,-1.81519 11.38358,-2.88896 0.54182,-0.22724 1.85308,0.24576 3.18276,1.14811 1.64469,1.11611 3.46568,1.66963 6.67798,2.02988 2.42917,0.27242 4.75613,0.85336 5.17102,1.29099 0.41489,0.43762 1.1916,2.33445 1.72602,4.21518 1.24942,4.39698 2.04718,4.71189 11.28744,4.45569 5.60791,-0.1555 7.45599,-0.4214 8.72908,-1.25596 1.60659,-1.05318 1.628,-1.04824 4.10752,0.94817 3.45739,2.78376 5.59593,3.35889 12.48961,3.35889 8.22752,0 8.36978,0.12249 8.72568,7.5135 0.3167,6.57695 0.80288,7.80954 3.99137,10.11927 l 2.27669,1.64923 -2.28112,4.62156 c -2.55749,5.18147 -3.89202,6.7686 -9.44625,11.23424 -3.88244,3.12151 -5.00103,4.87798 -6.39638,10.04389 -0.35095,1.29934 -1.8403,3.82231 -3.30964,5.60661 -1.46934,1.78429 -2.67153,3.84404 -2.67153,4.57722 0,1.24541 -0.24961,1.33307 -3.7961,1.33307 -3.39753,0 -3.92462,-0.1634 -5.02019,-1.55618 l 0,0 z"
         style="fill:#fefeea;fill-opacity:1;stroke:none" />
      <path
         inkscape:connector-curvature="0"
         id="path3877"
         d="m 109.41763,335.80347 c 0,0 -3.341,-2.71456 -3.96744,-1.46168 -0.62643,1.25287 -5.42912,3.96743 -6.473178,5.63793 -1.044061,1.67049 -3.758621,4.38505 -3.967433,6.26436 -0.208812,1.87931 -2.714559,3.341 -4.176245,4.17625 -1.461686,0.83525 -5.429119,4.17624 -5.846743,5.84674 -0.417625,1.6705 -0.417625,15.03449 0.626436,16.07855 1.044062,1.04406 5.011495,7.51724 5.846744,9.18774 0.835249,1.67049 1.670498,2.29693 2.088122,6.26436 0.417625,3.96744 1.879311,8.97893 4.385058,9.39656 2.505749,0.41762 7.099619,1.87931 8.561299,0.83525 1.46169,-1.04407 4.59387,-0.20882 5.22031,-2.71456 0.62644,-2.50575 1.04406,-6.47318 3.96743,-9.18774 2.92337,-2.71456 6.47318,-6.682 6.47318,-11.06705 0,-4.38506 2.71456,-8.14368 -3.54981,-8.77012 -6.26436,-0.62644 -6.05555,0 -6.8908,-2.29693 -0.83525,-2.29694 -0.83525,-4.59387 -2.29693,-5.22031 -1.46169,-0.62644 0.41762,-1.46169 1.04406,-4.38506 0.62643,-2.92337 5.63793,-7.51724 5.63793,-8.5613 0,-1.04406 -2.08813,-10.2318 -2.92337,-10.02299 -0.83525,0.20881 -3.75862,0 -3.75862,0 z"
         style="color:#000000;fill:none;stroke:#838383;stroke-width:1px;stroke-linecap:butt;stroke-linejoin:miter;stroke-miterlimit:4;stroke-opacity:1;stroke-dasharray:none;stroke-dashoffset:0;marker:none;visibility:visible;display:inline;overflow:visible;enable-background:accumulate" />
      <path
         inkscape:connector-curvature="0"
         id="path3879"
         d="m 138.65134,345.20002 c 0,0 -8.14368,4.80269 -8.35249,7.09962 -0.20881,2.29693 0.20881,6.05556 1.46169,9.60536 1.25287,3.54981 0.20881,6.89081 -1.6705,8.35249 -1.87931,1.46169 0.20881,-0.41762 -1.46169,4.38506 -1.67049,4.80268 -2.50574,2.50575 -3.13218,6.47318 -0.62644,3.96744 -2.29694,8.35249 -2.92337,11.48468 -0.62644,3.13218 -0.41763,6.47318 2.71456,6.8908 3.13218,0.41763 19.41954,0.20881 22.96935,-1.46168 3.5498,-1.6705 5.63793,-4.17625 5.84674,-8.14368 0.20881,-3.96744 3.341,-3.96744 3.54981,-6.89081 0.20881,-2.92337 -5.63793,-2.08812 -5.63793,-4.80268 0,-2.71456 0.83525,-5.84674 3.96743,-7.30843 3.13218,-1.46168 5.01149,-1.87931 4.59387,-5.42912 -0.41763,-3.54981 -3.75862,-14.19923 -6.47318,-13.99042 -2.71456,0.20881 -5.0115,1.25287 -8.97893,-0.62644 -3.96743,-1.87931 -6.47318,-5.63793 -6.47318,-5.63793 z"
         style="color:#000000;fill:none;stroke:#838383;stroke-width:1px;stroke-linecap:butt;stroke-linejoin:miter;stroke-miterlimit:4;stroke-opacity:1;stroke-dasharray:none;stroke-dashoffset:0;marker:none;visibility:visible;display:inline;overflow:visible;enable-background:accumulate" />
      <path
         inkscape:connector-curvature="0"
         id="path3881"
         d="m 200.45977,370.25749 -8.77011,-5.84674 c 0,0 -1.46169,-2.92337 -3.75862,2.29694 -2.29694,5.2203 -2.08813,8.14367 0.62643,9.18774 2.71456,1.04406 4.80268,0.62643 5.0115,1.87931 0.20881,1.25287 -1.04406,1.87931 2.08812,2.71456 3.13218,0.83524 3.341,-0.20882 4.17624,-1.87931 0.83525,-1.6705 -0.20881,-2.50575 0.83525,-3.96744 1.04406,-1.46168 -0.20881,-4.38506 -0.20881,-4.38506 z"
         style="color:#000000;fill:none;stroke:#838383;stroke-width:1px;stroke-linecap:butt;stroke-linejoin:miter;stroke-miterlimit:4;stroke-opacity:1;stroke-dasharray:none;stroke-dashoffset:0;marker:none;visibility:visible;display:inline;overflow:visible;enable-background:accumulate" />
      <path
         inkscape:connector-curvature="0"
         id="path3883"
         d="m 257.04789,367.96056 c 0,0 -1.46168,2.50575 -3.13218,2.92337 -1.6705,0.41763 -3.96743,-0.20881 -4.17624,2.08812 -0.20882,2.29694 -0.62644,3.13219 0.41762,8.14368 1.04406,5.0115 2.29693,5.63793 2.29693,6.89081 0,1.25287 3.54981,1.67049 3.54981,1.67049 l -0.83525,-4.59386 c 0,0 2.08813,1.25287 3.54981,-2.92338 1.46169,-4.17624 -0.62643,-6.47318 1.87931,-7.30843 2.50575,-0.83524 5.22031,0 4.59387,-3.96743 -0.62643,-3.96743 0.62644,-7.51724 -2.08812,-6.26437 -2.71456,1.25288 -6.05556,3.341 -6.05556,3.341 z"
         style="color:#000000;fill:none;stroke:#838383;stroke-width:1px;stroke-linecap:butt;stroke-linejoin:miter;stroke-miterlimit:4;stroke-opacity:1;stroke-dasharray:none;stroke-dashoffset:0;marker:none;visibility:visible;display:inline;overflow:visible;enable-background:accumulate" />
      <path
         inkscape:connector-curvature="0"
         id="path3885"
         d="m 273.75288,384.24792 c 0,0 -2.92338,1.46168 -2.50575,-3.96744 0.41762,-5.42912 2.71456,-8.35249 2.71456,-8.35249 0,0 2.29693,-1.04406 3.13218,3.13219 0.83525,4.17624 1.46169,8.14367 1.46169,8.14367 0,0 -2.92337,0 -2.92337,1.04407 0,1.04406 -1.6705,2.71456 0.20881,3.5498 1.87931,0.83525 3.34099,2.92338 2.29693,6.05556 -1.04406,3.13218 -3.75862,6.68199 -5.2203,6.47318 -1.46169,-0.20881 -2.08813,1.6705 -2.08813,-1.46169 0,-3.13218 0.83525,-6.26436 1.87931,-7.30842 1.04407,-1.04407 1.04407,-7.30843 1.04407,-7.30843 z"
         style="color:#000000;fill:none;stroke:#838383;stroke-width:1px;stroke-linecap:butt;stroke-linejoin:miter;stroke-miterlimit:4;stroke-opacity:1;stroke-dasharray:none;stroke-dashoffset:0;marker:none;visibility:visible;display:inline;overflow:visible;enable-background:accumulate" />
      <path
         inkscape:connector-curvature="0"
         id="path3887"
         d="m 293.38123,330.37435 c 0,0 -7.09962,2.92337 -6.89081,4.17625 0.20882,1.25287 2.08813,2.29693 1.87931,4.80268 -0.20881,2.50575 -0.62643,4.38506 -3.5498,6.05556 -2.92338,1.67049 -6.682,3.5498 -8.14368,6.8908 -1.46169,3.341 -2.50575,3.54981 -2.08813,5.42912 0.41763,1.87931 2.50575,3.341 3.75863,5.63793 1.25287,2.29693 2.08812,6.8908 5.84674,10.85824 3.75862,3.96743 6.26437,5.01149 6.05555,10.2318 -0.20881,5.2203 0.62644,5.42912 1.46169,6.68199 0.83525,1.25287 1.25287,2.50575 3.96743,0.20881 2.71456,-2.29693 7.51724,-6.8908 8.56131,-6.8908 1.04406,0 4.38505,-1.46169 4.17624,1.25287 -0.20881,2.71456 1.87931,2.50575 -0.83525,5.0115 -2.71456,2.50574 -3.54981,2.08812 -2.50575,4.17624 1.04407,2.08812 3.75863,2.71456 4.38506,3.96743 0.62644,1.25288 -2.08812,2.08813 -1.46168,4.17625 0.62643,2.08812 6.05555,1.87931 7.09961,1.25287 1.04406,-0.62643 7.51724,-6.8908 7.51724,-8.77011 0,-1.87931 -0.41762,-7.30843 1.87931,-8.14368 2.29694,-0.83525 5.84675,0 7.30843,-2.92337 1.46169,-2.92337 1.6705,-7.93487 3.54981,-7.09962 1.87931,0.83525 2.92337,3.341 5.84675,3.96743 2.92337,0.62644 9.39655,1.6705 10.64942,-0.41762 1.25287,-2.08812 5.63793,-4.17625 3.75862,-6.8908 -1.87931,-2.71456 -6.05555,-8.56131 -6.47318,-11.06705 -0.41762,-2.50575 1.87931,-4.59387 4.17625,-6.26437 2.29693,-1.6705 7.09961,-3.54981 1.25287,-5.0115 -5.84674,-1.46168 -9.81418,0 -10.02299,-2.50574 -0.20881,-2.50575 -0.20881,-1.87931 2.50575,-4.80269 2.71456,-2.92337 2.08812,-4.38505 2.08812,-7.93486 0,-3.54981 -0.83525,-8.97893 -5.42912,-9.39655 -4.59387,-0.41763 -4.59387,-2.50575 -1.46168,-4.59387 3.13218,-2.08813 5.01149,-3.13219 5.01149,-6.05556 0,-2.92337 -2.08812,-6.47318 -5.01149,-6.05555 -2.92337,0.41762 -4.38506,-0.41763 -6.89081,3.13218 -2.50574,3.54981 -6.68199,4.38506 -9.60536,8.35249 -2.92337,3.96743 -3.341,8.35249 -7.30843,8.5613 -3.96743,0.20881 -3.341,0.62644 -4.38506,3.54981 -1.04406,2.92337 0.83525,3.54981 1.04406,6.89081 0.20882,3.34099 1.25288,4.59387 -0.62643,6.05555 -1.87931,1.46169 -1.87931,0.83525 -4.38506,-0.41762 -2.50575,-1.25288 -7.93487,1.04406 -9.39655,2.08812 -1.46169,1.04406 -2.29694,3.341 -3.54981,1.87931 -1.25287,-1.46169 6.26437,-4.59387 0.62644,-7.30843 -5.63794,-2.71456 -3.54981,0.41763 -2.08813,-3.54981 1.46169,-3.96743 3.96744,-6.8908 2.92337,-8.14368 -1.04406,-1.25287 -5.2203,-1.04406 -5.2203,-1.04406 z"
         style="color:#000000;fill:none;stroke:#838383;stroke-width:1px;stroke-linecap:butt;stroke-linejoin:miter;stroke-miterlimit:4;stroke-opacity:1;stroke-dasharray:none;stroke-dashoffset:0;marker:none;visibility:visible;display:inline;overflow:visible;enable-background:accumulate" />
      <path
         inkscape:connector-curvature="0"
         id="path3919"
         d="m 271.48574,398.02255 c 0.1986,-2.58372 0.66383,-4.38342 1.47478,-5.70506 0.68918,-1.12318 1.16209,-2.88081 1.16209,-4.31901 0,-0.71285 0.26933,-0.90852 0.56386,-0.40966 0.0918,0.15556 0.55885,0.52788 1.0378,0.82737 2.66505,1.66649 2.78829,4.30983 0.38145,8.18195 -1.45786,2.34542 -2.63007,3.23659 -4.25727,3.23659 l -0.50201,0 0.1393,-1.81218 0,0 z"
         style="fill:#fefeea;fill-opacity:1;stroke:none" />
      <path
         inkscape:connector-curvature="0"
         id="path3921"
         d="m 274.34965,384.85644 -0.0182,-1.30108 -0.93851,0.12864 c -0.93303,0.12788 -0.94051,0.12389 -1.27935,-0.68264 -0.26782,-0.63748 -0.31466,-1.21384 -0.21865,-2.69058 0.20419,-3.14092 1.75776,-7.61272 2.70756,-7.79349 1.02057,-0.19424 1.65537,1.27281 2.44333,5.64666 0.33686,1.86984 0.66029,3.65811 0.71873,3.97394 0.0947,0.51189 0.0445,0.57427 -0.46275,0.57456 -0.31296,1.8e-4 -0.89789,0.16461 -1.29986,0.36542 -0.61713,0.30829 -0.8011,0.57627 -1.18244,1.72237 l -0.4516,1.35728 -0.0182,-1.30108 0,0 z"
         style="fill:#fefeea;fill-opacity:1;stroke:none" />
      <path
         inkscape:connector-curvature="0"
         id="path3934"
         d="m 311.00962,404.00082 c -2.39783,-0.29024 -2.9814,-1.37934 -1.68521,-3.14509 0.86275,-1.17531 0.98102,-2.05025 0.3686,-2.72696 -0.20463,-0.22611 -1.10672,-0.92591 -2.00466,-1.55511 -1.23521,-0.86553 -1.74297,-1.37115 -2.08598,-2.07717 l -0.45336,-0.93315 0.82636,-0.67029 c 1.67023,-1.35478 3.19434,-2.91429 3.449,-3.52908 0.21809,-0.52651 0.20409,-0.81362 -0.0843,-1.72846 -0.1902,-0.60339 -0.34582,-1.52142 -0.34582,-2.04008 0,-0.72468 -0.12495,-1.07783 -0.53965,-1.52531 -0.52873,-0.57051 -0.57479,-0.57981 -2.27573,-0.45978 -2.75508,0.19443 -2.82692,0.23755 -8.25167,4.95228 -4.56735,3.96955 -4.52541,3.95301 -5.68388,2.24098 -1.26462,-1.86891 -1.27569,-1.9142 -1.41567,-5.79454 -0.12899,-3.57581 -0.14652,-3.68489 -0.81696,-5.08361 -0.5463,-1.13975 -1.2641,-2.02833 -3.54228,-4.38506 -3.85892,-3.99198 -4.50325,-4.93065 -6.0422,-8.80241 -1.31078,-3.29769 -1.8352,-4.27792 -3.18387,-5.95115 -1.68192,-2.08665 -2.15003,-3.00619 -2.0115,-3.95131 0.16907,-1.15353 2.5402,-5.41133 3.65412,-6.56164 1.04658,-1.08077 2.93926,-2.431 5.45725,-3.89316 2.86365,-1.66289 3.94521,-2.97695 4.37824,-5.31941 0.46471,-2.51386 0.18904,-3.78137 -1.30451,-5.9979 l -0.37838,-0.56155 0.90315,-0.65935 c 0.49674,-0.36264 1.98029,-1.179 3.29679,-1.81414 2.3302,-1.1242 2.4298,-1.15171 3.75862,-1.03807 0.75074,0.0642 1.74085,0.24059 2.20024,0.39198 1.31487,0.4333 1.24636,0.86769 -0.82778,5.24831 -1.49056,3.1481 -1.95901,3.94341 -2.74093,4.65343 l -0.94311,0.85638 1.15523,0.232 c 1.56615,0.31453 4.06423,1.37799 4.76607,2.02898 0.90698,0.84126 0.7676,1.43644 -0.78208,3.33955 -1.47262,1.80847 -1.67354,2.49881 -0.94062,3.23173 0.40085,0.40085 0.78762,0.51374 1.46168,0.42662 0.17228,-0.0223 0.87702,-0.58796 1.5661,-1.25711 1.9172,-1.86174 4.83245,-3.11545 7.66375,-3.2958 1.52131,-0.0969 1.69321,-0.0615 3.18186,0.65464 1.90187,0.91499 2.51498,0.94105 3.60267,0.15313 1.31345,-0.95146 1.73491,-1.61124 1.733,-2.71299 -0.003,-1.9536 -0.61451,-5.83401 -1.13773,-7.22406 -0.2921,-0.77606 -0.5311,-1.73761 -0.5311,-2.13678 0,-0.81833 0.73208,-3.38866 1.11387,-3.91079 0.171,-0.23385 0.88158,-0.43075 2.23857,-0.62027 3.36558,-0.47007 4.00694,-0.99618 6.25879,-5.13406 2.33346,-4.28784 3.19034,-5.25611 7.02319,-7.93626 3.0223,-2.11337 3.11915,-2.19865 4.88349,-4.30022 0.84313,-1.00429 1.74153,-1.84402 2.21139,-2.06698 1.06747,-0.50655 4.32217,-0.83142 5.33372,-0.53239 2.17075,0.6417 3.78632,4.6408 2.81167,6.95989 -0.35291,0.83972 -1.67173,2.06188 -3.70689,3.4352 -1.74339,1.17642 -2.82487,2.28776 -3.0329,3.11663 -0.32819,1.3076 0.7554,2.38324 2.8067,2.78612 3.42329,0.67233 4.37525,1.33834 5.2483,3.67177 0.69565,1.8593 0.85625,3.03326 0.89735,6.55972 0.0461,3.95197 -0.064,4.245 -2.67067,7.11024 -0.9785,1.07557 -1.83524,2.17929 -1.90387,2.45273 -0.0686,0.27344 -0.0711,1.01708 -0.006,1.65254 0.20427,1.97923 0.99857,2.41834 4.84243,2.67701 3.51966,0.23687 6.98839,0.94738 7.76281,1.59009 0.40584,0.33682 0.13459,0.59743 -2.42463,2.32952 -4.52804,3.0646 -6.09173,5.37464 -5.44972,8.05086 0.31188,1.30003 1.98488,4.27333 4.62447,8.2187 2.08315,3.11366 2.311,3.68982 1.82489,4.61451 -0.38366,0.72981 -4.15655,4.60769 -4.75172,4.88395 -1.20494,0.5593 -7.1935,0.13454 -9.67268,-0.68607 -0.66079,-0.21872 -1.5234,-0.81402 -2.61015,-1.80131 -3.42364,-3.11028 -4.24315,-2.78893 -5.69836,2.23447 -1.2399,4.28013 -1.78165,4.83911 -5.15112,5.31496 -2.53784,0.35841 -3.36584,0.63288 -3.92932,1.30254 -0.78135,0.92858 -1.1434,2.50393 -1.2867,5.59868 -0.12893,2.78461 -0.13973,2.83357 -0.86998,3.94372 -0.89224,1.35643 -4.91976,5.58793 -6.02766,6.33295 -0.90665,0.60968 -2.24794,0.79667 -4.1035,0.57206 l 0,0 z"
         style="fill:#fefeea;fill-opacity:1;stroke:none" />
      <path
         inkscape:connector-curvature="0"
         id="path3947"
         d="m 254.09365,388.57897 c -0.76804,-0.31149 -0.96502,-0.51072 -1.17554,-1.189 -0.13909,-0.44815 -0.49687,-1.35272 -0.79506,-2.01015 -1.23773,-2.72884 -2.13662,-7.60425 -1.94365,-10.54194 0.179,-2.72503 0.29737,-2.87447 2.52775,-3.19107 2.03221,-0.28848 2.96468,-0.82417 4.12384,-2.36909 0.46068,-0.61398 1.24792,-1.23707 2.36155,-1.86911 2.59954,-1.47538 4.69604,-2.47156 4.91573,-2.33578 0.11009,0.068 0.20352,0.75243 0.20762,1.52087 0.004,0.76844 0.0901,2.3222 0.19107,3.4528 0.28546,3.19563 0.23543,3.26283 -2.96956,3.98885 -2.50767,0.56806 -2.86689,1.07805 -2.86689,4.07019 0,2.0647 -0.41379,3.89336 -1.17492,5.1924 -0.66208,1.12998 -1.28452,1.44186 -2.27248,1.13865 -0.87412,-0.26828 -0.86169,-0.35976 -0.34001,2.50398 0.20399,1.11976 0.3174,2.03067 0.25204,2.02425 -0.0654,-0.006 -0.53404,-0.18005 -1.04149,-0.38585 z"
         style="fill:#fefeea;fill-opacity:1;stroke:none" />
      <path
         inkscape:connector-curvature="0"
         id="path3949"
         d="m 195.45259,379.76945 -1.30507,-0.41347 0,-0.94581 c 0,-1.66799 -0.12337,-1.75052 -4.07184,-2.7241 -1.13646,-0.28022 -1.63592,-0.53211 -2.24473,-1.13208 -0.72941,-0.7188 -0.78305,-0.85617 -0.78305,-2.00523 0,-3.02353 2.25245,-8.21212 3.56501,-8.21212 0.22133,0 0.40242,0.0798 0.40242,0.1773 0,0.0975 2.01965,1.52077 4.4881,3.16279 4.06984,2.70728 4.50758,3.05563 4.69711,3.73794 0.31896,1.14825 0.2536,2.17979 -0.20169,3.18317 -0.24112,0.53137 -0.41495,1.36946 -0.41763,2.01347 -0.003,0.75558 -0.16899,1.42764 -0.52633,2.13282 -0.80399,1.5866 -1.34481,1.74053 -3.6023,1.02532 z"
         style="fill:#fefeea;fill-opacity:1;stroke:none" />
      <path
         inkscape:connector-curvature="0"
         id="path3951"
         d="m 100.46316,397.1135 c -2.318526,-0.49485 -2.900769,-0.69658 -3.412669,-1.18244 -1.295734,-1.2298 -2.076711,-3.3524 -2.7891,-7.5804 -0.280643,-1.66561 -0.645951,-3.49821 -0.811796,-4.07245 -0.338059,-1.17051 -3.58713,-6.85381 -5.711999,-9.99146 -1.932247,-2.85321 -1.908612,-2.79545 -2.124776,-5.19298 -0.270199,-2.99683 -0.256576,-11.56231 0.02002,-12.58759 0.315664,-1.17009 3.247948,-4.03098 5.969127,-5.82378 2.56652,-1.69091 3.484618,-2.65813 3.922384,-4.13224 0.353188,-1.18932 1.134923,-2.46527 3.080701,-5.02835 1.496378,-1.9711 1.639028,-2.10937 4.149008,-4.02164 1.10064,-0.83855 2.29148,-1.81493 2.64629,-2.16975 0.35482,-0.35481 0.77873,-0.64512 0.94203,-0.64512 0.1633,0 0.89522,0.38671 1.62649,0.85936 1.27743,0.82564 1.40363,0.86163 3.21676,0.91731 l 1.88718,0.058 0.55598,1.64063 c 0.51577,1.52201 1.45396,5.26373 1.74697,6.96742 0.13837,0.80451 0.30584,0.52887 -2.62776,4.3251 -1.86907,2.41868 -2.31179,3.1546 -2.80711,4.66619 -0.20439,0.62372 -0.64043,1.67165 -0.96899,2.32875 -0.81665,1.63325 -0.79088,2.30584 0.10965,2.86239 0.61056,0.37735 0.78337,0.68592 1.26669,2.26177 0.9225,3.00782 1.20485,3.67681 1.80567,4.27834 0.31545,0.31583 0.74522,0.57451 0.95504,0.57485 0.20981,4.2e-4 1.82736,0.13972 3.59454,0.30972 3.45951,0.33281 4.3881,0.62722 5.1149,1.62168 0.4012,0.54896 0.40791,0.67072 0.14958,2.71456 -0.14876,1.17691 -0.346,2.98551 -0.4383,4.01913 -0.30683,3.43575 -1.58962,5.74968 -5.41998,9.77668 -2.75092,2.89213 -3.48334,4.21569 -4.43856,8.02095 -0.78527,3.12827 -1.03016,3.46098 -2.79611,3.79893 -0.67723,0.12961 -1.70298,0.42103 -2.27943,0.64761 -1.40043,0.55045 -2.74426,0.50199 -6.13243,-0.22114 z"
         style="fill:#fefeea;fill-opacity:1;stroke:none" />
      <path
         inkscape:connector-curvature="0"
         id="path3953"
         d="m 125.00487,398.78478 c -0.74066,-0.22196 -1.33368,-0.7469 -1.74727,-1.5467 -0.24737,-0.47837 -0.29328,-1.07782 -0.2079,-2.71505 0.0876,-1.68017 0.32393,-2.85419 1.17945,-5.85976 0.58844,-2.06724 1.34333,-4.99878 1.67754,-6.51454 0.54002,-2.44918 0.69937,-2.87195 1.43165,-3.79836 1.01748,-1.2872 2.10596,-3.84892 2.41613,-5.68632 0.19983,-1.18375 0.36345,-1.5235 1.1388,-2.36466 1.32113,-1.43326 1.76559,-2.57766 1.86977,-4.81428 0.0777,-1.66871 0.004,-2.18351 -0.65976,-4.59387 -0.91545,-3.32537 -1.1734,-4.90457 -1.17545,-7.19607 l -0.002,-1.76695 1.40949,-1.36911 c 1.19506,-1.16084 5.60346,-4.38913 5.99357,-4.38913 0.069,0 0.9529,0.82219 1.96419,1.8271 1.91566,1.90356 3.28988,2.84735 5.50462,3.78047 1.18182,0.49792 1.56844,0.55239 3.92124,0.55239 1.43558,0 3.05543,-0.0685 3.59966,-0.15229 0.90264,-0.13893 1.05021,-0.099 1.6809,0.45475 1.77716,1.56037 4.95263,10.24909 4.95046,13.54546 -0.001,1.82594 -0.41,2.31634 -2.97968,3.57446 -2.7202,1.33181 -3.716,2.17505 -4.52652,3.83303 -0.68108,1.39323 -1.17977,4.11284 -0.9478,5.16897 0.18409,0.83816 1.06737,1.51554 2.85866,2.19229 3.31288,1.2516 3.46615,2.00513 0.98254,4.83077 -1.30162,1.48087 -1.40338,1.71882 -1.8593,4.34758 -0.45089,2.59975 -1.0413,3.88366 -2.40058,5.2203 -2.2569,2.21932 -4.83616,2.97337 -11.76336,3.43904 -3.7956,0.25515 -13.45855,0.25547 -14.30947,4.2e-4 l 0,6e-5 z"
         style="fill:#fefeea;fill-opacity:1;stroke:none" />
      <path
         sodipodi:nodetypes="cssssscc"
         inkscape:connector-curvature="0"
         id="path3147"
         d="m 94.470092,154.49514 c 0,0 -0.159847,-0.31969 2.557567,0.79924 2.717413,1.11894 3.037111,-0.63939 3.676501,3.51666 0.63939,4.15604 0.79924,4.63558 3.9962,5.11513 3.19695,0.47954 8.95148,-1.27878 9.27117,0.31969 0.3197,1.59848 0.15985,3.03711 2.23787,3.19696 2.07803,0.15985 5.59468,-1.43863 6.07422,-2.39772 0.47955,-0.95908 2.07802,-3.99619 2.07802,-3.99619"
         style="color:#000000;fill:none;stroke:#838383;stroke-width:1px;stroke-linecap:butt;stroke-linejoin:miter;stroke-miterlimit:4;stroke-opacity:1;stroke-dasharray:none;stroke-dashoffset:0;marker:none;visibility:visible;display:inline;overflow:visible;enable-background:accumulate" />
    </g>
  </g>
</svg>
