<?xml version="1.0" encoding="UTF-8" standalone="no"?>
<!-- Created with Inkscape (http://www.inkscape.org/) -->

<svg
   xmlns:dc="http://purl.org/dc/elements/1.1/"
   xmlns:cc="http://creativecommons.org/ns#"
   xmlns:rdf="http://www.w3.org/1999/02/22-rdf-syntax-ns#"
   xmlns:svg="http://www.w3.org/2000/svg"
   xmlns="http://www.w3.org/2000/svg"
   xmlns:sodipodi="http://sodipodi.sourceforge.net/DTD/sodipodi-0.dtd"
   xmlns:inkscape="http://www.inkscape.org/namespaces/inkscape"
   id="svg2"
   version="1.1"
   inkscape:version="0.48.1 "
   width="600"
   height="472"
   sodipodi:docname="Map Ulsan-gwangyeoksi.svg"
   style="display:inline">
  <metadata
     id="metadata8">
    <rdf:RDF>
      <cc:Work
         rdf:about="">
        <dc:format>image/svg+xml</dc:format>
        <dc:type
           rdf:resource="http://purl.org/dc/dcmitype/StillImage" />
        <dc:title />
      </cc:Work>
    </rdf:RDF>
  </metadata>
  <defs
     id="defs6" />
  <sodipodi:namedview
     pagecolor="#ffffff"
     bordercolor="#666666"
     borderopacity="1"
     objecttolerance="10"
     gridtolerance="10"
     guidetolerance="10"
     inkscape:pageopacity="0"
     inkscape:pageshadow="2"
     inkscape:window-width="1440"
     inkscape:window-height="878"
     id="namedview4"
     showgrid="false"
     inkscape:zoom="1.5640243"
     inkscape:cx="294.53861"
     inkscape:cy="219.59478"
     inkscape:window-x="-8"
     inkscape:window-y="-8"
     inkscape:window-maximized="1"
     inkscape:current-layer="layer3" />
  <g
     inkscape:groupmode="layer"
     id="layer3"
     inkscape:label="background"
     style="opacity:1;display:inline">
    <rect
       style="fill:#f0f0f0;fill-opacity:1;stroke:#838383;stroke-width:0.50188856999999998;stroke-miterlimit:4;stroke-opacity:1;stroke-dasharray:none"
       id="rect3012"
       width="599.49811"
       height="471.49811"
       x="0.25094429"
       y="0.25095057" />
    <path
       style="fill:#c6ecff;fill-opacity:1;stroke:none"
       d="m 373.93055,470.27848 c -0.18973,-0.49445 0.24168,-1.42954 0.9587,-2.07797 0.71702,-0.64845 1.85843,-2.26595 2.53647,-3.59447 0.67804,-1.32851 2.97976,-3.77211 5.11494,-5.43023 4.57132,-3.54995 6.54589,-6.99476 7.64132,-13.33094 0.86839,-5.02293 2.03112,-6.4441 5.76009,-7.04039 3.07597,-0.49187 3.61148,-1.13395 4.39605,-5.27099 1.08683,-5.73085 1.42207,-6.03731 6.06086,-5.54054 5.70584,0.61104 7.08641,-1.02611 5.50757,-6.53121 -0.7606,-2.65204 -0.27359,-2.65836 5.79695,-0.0751 4.33006,1.84261 5.09649,1.97129 9.81743,1.64835 6.04378,-0.41343 10.94062,-1.97738 11.91976,-3.80693 0.89865,-1.67915 0.33084,-5.79567 -1.33569,-9.68352 -0.71908,-1.67755 -1.30741,-3.86883 -1.30741,-4.86953 0,-2.47854 -1.1876,-3.48156 -6.03042,-5.09315 -4.91023,-1.63402 -8.03274,-3.63422 -8.74873,-5.60422 -0.43815,-1.20555 -0.19888,-1.60039 1.50322,-2.48058 1.11338,-0.57574 2.41859,-1.44108 2.90047,-1.92296 0.48189,-0.48189 1.39917,-0.87616 2.03841,-0.87616 2.07708,0 3.83643,-2.11904 4.51217,-5.4347 0.35834,-1.75828 1.16887,-5.20825 1.80117,-7.66659 l 1.14963,-4.46971 2.40572,0.20726 c 2.54328,0.21912 4.86212,-1.186 4.86212,-2.94624 0,-0.51177 -1.46094,-2.93911 -3.24654,-5.39408 -3.53709,-4.86305 -10.61911,-17.76955 -9.7562,-17.77999 0.2942,-0.004 2.30271,0.61434 4.46337,1.37311 2.16065,0.75877 4.36569,1.2118 4.90009,1.00673 1.36858,-0.52517 2.58,-6.57898 2.24455,-11.2166 -0.34616,-4.7855 -1.36625,-6.04104 -6.39915,-7.87613 -2.8093,-1.02432 -4.25988,-2.02976 -5.76142,-3.99344 -1.10375,-1.44344 -3.3108,-3.98804 -4.90457,-5.65467 -2.77109,-2.89777 -2.90761,-3.2192 -3.12311,-7.35283 -0.12394,-2.37742 -0.68528,-5.4022 -1.24741,-6.72172 -0.95576,-2.2435 -0.94708,-2.48198 0.13386,-3.67641 1.19638,-1.32198 3.59968,-1.61206 7.27158,-0.87768 1.58426,0.31686 1.99805,0.72346 1.99805,1.96338 0,0.86007 0.93509,3.2762 2.07797,5.36916 3.62077,6.63073 6.58637,5.91804 11.00939,-2.64574 3.04765,-5.90082 6.4503,-9.56204 8.88673,-9.56204 0.80826,0 3.09226,0.32588 5.07555,0.72419 4.6725,0.93837 5.95506,0.13682 9.02153,-5.63806 2.73791,-5.15612 2.92408,-7.05112 0.74639,-7.59769 -0.90069,-0.22606 -2.60922,-1.89764 -4.09687,-4.00829 -4.82573,-6.84664 -7.9232,-8.63174 -17.89656,-10.31397 -5.48897,-0.92583 -7.0263,-2.03541 -5.6673,-4.0904 0.71369,-1.07918 1.66374,-1.40461 4.54619,-1.55728 3.25725,-0.17252 4.27925,0.12443 9.63021,2.7981 7.11354,3.55436 10.24567,3.94256 12.75906,1.58134 1.47544,-1.3861 1.60469,-1.87596 1.26213,-4.78347 -0.70121,-5.95144 -1.40756,-7.28797 -5.17294,-9.78804 -3.77516,-2.50657 -5.06684,-4.38238 -5.68662,-8.25824 -0.46276,-2.89394 0.76287,-4.42305 4.07638,-5.08575 1.87872,-0.37575 2.41589,-0.0347 6.99118,4.43802 l 4.9561,4.84504 0,6.78351 0,6.78352 3.67641,3.42181 c 2.02448,1.88428 3.67642,3.97646 3.67642,4.65618 0,1.46694 1.62079,3.01765 3.83626,3.67038 0.87914,0.25901 2.10789,0.91846 2.73057,1.46543 1.07496,0.94429 1.04958,1.08066 -0.50271,2.7009 -0.89916,0.93853 -2.21353,3.22939 -2.92081,5.09081 l -1.28598,3.3844 2.7654,2.63049 c 1.52097,1.44678 3.09229,3.3808 3.49182,4.29783 0.89386,2.05165 3.50994,2.6837 8.68477,2.09823 4.1799,-0.4729 4.93359,-1.25901 4.94926,-5.16212 0.013,-3.25378 0.39565,-3.72229 4.5343,-5.5526 l 3.54157,-1.56624 2.98842,1.86004 c 6.15698,3.83219 8.96735,1.71662 13.82058,-10.40373 1.64182,-4.10025 1.95914,-5.76211 1.95914,-10.26034 0,-3.1602 -0.49703,-7.32345 -1.2086,-10.1235 -0.66473,-2.61575 -1.36766,-7.45288 -1.56204,-10.74918 l -0.35345,-5.99328 2.96803,0.33454 c 1.63242,0.18399 3.61298,0.0893 4.40125,-0.21037 2.03404,-0.77334 8.54234,-9.61978 8.54234,-11.61122 0,-0.89154 -0.43158,-2.8442 -0.95907,-4.33926 -0.52748,-1.49505 -0.95906,-2.78929 -0.95906,-2.87609 0,-0.0868 1.46681,-1.99272 3.25958,-4.2354 3.84369,-4.80828 3.88558,-5.81431 0.55728,-13.38462 -5.46568,-12.43183 -4.36385,-18.20815 4.36012,-22.85798 5.13864,-2.73887 5.46522,-4.22171 3.57712,-16.24214 -0.99792,-6.35317 -1.13521,-6.69253 -3.9961,-9.87766 -1.62948,-1.81415 -4.11356,-4.73831 -5.52018,-6.49814 -1.40663,-1.75983 -5.76116,-6.63053 -9.67674,-10.82377 -7.66285,-8.20626 -8.5254,-9.94667 -7.61122,-15.35764 0.64114,-3.79485 1.065,-4.16349 3.43042,-2.98347 4.45016,2.22004 8.41613,-0.9612 8.41995,-6.75393 10e-4,-2.3746 1.19974,-5.27849 6.85907,-16.623784 l 6.85716,-13.746589 0.24044,-12.84638 0.24045,-12.846384 8.96607,-7.613658 c 7.16173,-6.081475 10.14931,-9.157685 14.84579,-15.286173 5.20432,-6.791173 6.45313,-8.976167 10.87152,-19.021443 l 4.9918,-11.34892873 4.71442,0 4.71442,0 0,235.29045973 0,235.29046 -112.46182,0 c -96.03622,0 -112.5122,-0.1313 -112.80679,-0.89899 z"
       id="path3839"
       inkscape:connector-curvature="0" />
    <g
       id="g3843">
      <path
         inkscape:connector-curvature="0"
         id="path3043"
         d="M 589.09579,-2.4904432e-7 579.14943,22.605364 c 0,0 -9.94636,13.563218 -11.75479,15.371647 -1.80843,1.808429 -18.5364,15.823755 -18.5364,15.823755 0,0 1.35632,24.8659 -1.35632,28.482759 -2.71265,3.616858 -12.2069,24.413795 -12.2069,24.413795 0,0 0.90421,9.94636 -4.52107,9.94636 -5.42529,0 -4.97318,-4.97318 -6.78161,-0.45211 -1.80843,4.52107 -0.90422,12.2069 1.35632,13.56322 2.26054,1.35632 5.87739,6.3295 5.87739,6.3295 0,0 12.65901,12.659 12.65901,14.46743 0,1.80843 5.87739,4.06897 5.42529,6.78161 -0.45211,2.71265 4.52107,17.63219 -0.45211,19.44062 -4.97318,1.80843 -7.23372,4.52107 -8.59004,6.3295 -1.35632,1.80843 -1.80843,7.23371 -1.80843,7.23371 0,0 0.45211,3.61686 1.80843,7.23372 1.35632,3.61686 4.52107,8.59004 4.52107,11.75479 0,3.16475 -5.87739,6.3295 -6.3295,9.49425 -0.45211,3.16475 4.06897,6.32951 0.45211,10.39847 -3.61686,4.06897 -5.42529,9.04215 -9.04215,8.13793 -3.61686,-0.90421 -6.78161,-1.35632 -5.42529,3.16475 1.35633,4.52108 -0.4521,9.49426 1.35633,12.65901 1.80843,3.16475 2.26053,13.11111 1.35632,16.72797 -0.90422,3.61685 -5.42529,14.46743 -8.59004,16.27586 -3.16475,1.80843 -8.59004,-4.97318 -9.94636,-3.61686 -1.35632,1.35632 -5.42529,1.80843 -7.23372,3.61686 -1.80843,1.80843 0.90422,8.59004 -3.61685,8.59004 -4.52108,0 -8.59004,1.35632 -9.49426,-2.26054 -0.90421,-3.61686 -6.78161,-4.52107 -5.42529,-7.23372 1.35633,-2.71264 1.35633,-5.42528 3.61686,-6.78161 2.26054,-1.35632 1.80843,-3.16475 -0.4521,-4.52107 -2.26054,-1.35632 -5.42529,-0.45211 -5.42529,-4.06896 0,-3.61686 -8.13793,-5.8774 -7.68583,-10.39847 0.45211,-4.52107 0.90422,-10.39847 -1.35632,-13.11111 -2.26053,-2.71265 -8.13793,-8.13793 -9.94636,-8.13793 -1.80843,0 -6.3295,1.35632 -6.3295,4.06896 0,2.71265 0.90422,7.23372 3.16475,9.04215 2.26054,1.80843 5.8774,3.16475 6.78161,5.42528 0.90422,2.26054 1.35632,8.59004 1.35632,8.59004 0,0 -1.35632,2.71265 -4.52107,2.71265 -3.16475,0 -7.23372,-2.26054 -9.49425,-3.61686 -2.26054,-1.35632 -4.06897,-3.16475 -10.39847,-2.71265 -6.3295,0.45211 -5.42529,6.32951 -1.80843,6.78161 3.61686,0.45211 13.11111,2.26054 16.27586,4.52108 3.16475,2.26053 6.78161,9.94636 9.04215,10.39846 2.26053,0.45211 2.71264,0.90422 0.45211,4.52108 -2.26054,3.61686 -2.71265,8.13793 -6.78161,7.68582 -4.06897,-0.45211 -8.59004,-2.71264 -11.75479,0.45211 -3.16475,3.16475 -3.61686,4.52107 -5.8774,9.04214 -2.26053,4.52108 -3.16475,6.32951 -5.87739,5.8774 -2.71265,-0.45211 0,0 -3.61686,-4.52107 -3.61686,-4.52108 1.35632,-6.78161 -4.97318,-7.23372 -6.3295,-0.45211 -6.3295,-0.45211 -8.13793,2.26054 -1.80843,2.71264 2.26053,4.52107 1.80843,7.23371 -0.45211,2.71265 -0.90422,7.68583 2.26053,9.49425 3.16475,1.80843 5.8774,8.59004 9.04215,9.94636 3.16475,1.35633 7.68582,1.80843 8.59004,5.42529 0.90421,3.61686 0,14.46744 -2.26054,13.56322 -2.26053,-0.90421 -10.85057,-4.97318 -9.49425,-1.80843 1.35632,3.16475 3.16475,5.8774 4.97318,9.94636 1.80843,4.06897 8.59004,12.65901 8.59004,12.65901 0,0 -0.90422,3.61685 -4.06897,2.71264 -3.16475,-0.90422 -4.06896,-0.90422 -4.06896,2.71264 0,3.61686 -1.80843,5.42529 -2.26054,8.13793 -0.45211,2.71265 0,4.97318 -2.26054,5.8774 -2.26053,0.90421 -4.06896,0.45211 -4.97318,2.26054 -0.90421,1.80842 -4.06896,0.4521 -4.06896,3.16475 0,2.71264 2.71264,4.97318 4.97318,5.87739 2.26053,0.90422 9.94636,2.71264 9.94636,4.52107 0,1.80843 0,4.06897 1.35632,6.32951 1.35632,2.26053 3.61686,9.04214 0.45211,10.39846 -3.16475,1.35632 -12.2069,4.06897 -16.72797,1.80843 -4.52108,-2.26053 -10.85058,-4.97318 -10.39847,-2.71264 0.45211,2.26053 2.71264,7.23371 -0.45211,8.13793 -3.16475,0.90421 -7.68582,-2.71264 -9.49425,1.80843 -1.80843,4.52107 -0.45211,8.13793 -3.16475,8.59004 -2.71264,0.4521 -6.78161,0.90421 -7.23372,3.61685 -0.4521,2.71265 -0.4521,7.23372 -3.16475,12.2069 -2.71264,4.97318 -9.04214,6.3295 -9.94636,9.94636 -0.90421,3.61686 -4.52107,4.06897 -4.06896,6.3295 C 373.44061,472 374.34483,472 374.34483,472"
         style="color:#000000;fill:none;stroke:#838383;stroke-width:1px;stroke-linecap:butt;stroke-linejoin:miter;stroke-miterlimit:4;stroke-opacity:1;stroke-dasharray:none;stroke-dashoffset:0;marker:none;visibility:visible;display:inline;overflow:visible;enable-background:accumulate" />
      <path
         inkscape:connector-curvature="0"
         id="path3841"
         d="m 534.83823,112.67055 c 0,0 0.15985,-9.4308 -3.9961,-9.75049 -4.15595,-0.31969 -15.98441,0.95907 -17.74269,-2.5575 -1.75829,-3.516573 -5.11501,-8.471739 -10.70955,-7.992207 -5.59455,0.479532 -17.10332,0.79922 -17.74269,-0.959064 -0.63938,-1.758285 -3.19689,-6.713451 -6.8733,-6.873295 -3.67641,-0.159844 -7.51267,-0.319688 -9.91033,-0.79922 -2.39766,-0.479532 -12.30799,-0.319688 -13.74659,1.758284 -1.4386,2.077973 -3.83626,1.918129 -4.15595,0.319689 -0.31968,-1.598441 2.55751,-5.434699 -2.23781,-6.233919 -4.79532,-0.79922 -11.34893,-7.672515 -20.93957,-2.077973 -9.59065,5.594542 -23.49708,16.144251 -32.60819,16.623783 -9.11111,0.479532 -16.94347,3.037037 -17.90254,4.955166 -0.95906,1.918126 2.39766,7.832356 1.11891,8.311886 -1.27875,0.47954 -15.50487,2.23782 -16.78363,-0.79922 -1.27875,-3.03703 -1.1189,-6.713446 -3.35672,-6.23391 -2.23782,0.47953 -3.19688,1.59844 -5.27486,2.23781 -2.07797,0.63938 -15.34503,1.59844 -17.74269,-2.87719 -2.39766,-4.475634 -3.35672,-17.902535 -1.75828,-19.66082 1.59844,-1.758284 6.23392,-2.877193 4.15594,-4.635477 -2.07797,-1.758285 -6.39376,-4.475634 -4.79532,-7.512671 1.59844,-3.037038 4.95517,-7.992203 2.23782,-9.910332 -2.71735,-1.918129 -2.87719,-6.713451 -3.9961,-7.512671 -1.11891,-0.79922 0.15984,1.118908 -5.11501,1.758285 -5.27486,0.639376 -5.4347,0.79922 -5.4347,0.79922 0,0 -10.8694,1.59844 -12.78753,-2.717349 -1.91812,-4.31579 -3.19688,-9.750488 -11.02924,-10.070176 -7.83235,-0.319688 -12.94736,-3.356725 -15.18518,-5.91423 -2.23782,-2.557505 -9.4308,-0.799221 -11.18909,-0.159844 -1.75828,0.639376 -11.02924,3.836257 -14.06627,0.479532 -3.03704,-3.356726 -5.27486,-3.196881 -7.35283,-3.196881 -2.07797,0 -7.03314,0 -8.47174,2.237816 -1.43859,2.237817 -9.11111,6.873295 -13.4269,5.274854 -4.31579,-1.59844 -7.67251,-8.471735 -12.78752,-8.152047 -5.11501,0.319688 -11.50877,7.992203 -12.78753,8.311891 -1.27875,0.319689 -6.87329,0.159845 -7.67251,-2.39766 -0.79922,-2.557505 -4.95517,1.918128 -5.4347,3.196881 -0.47953,1.278752 0.31969,3.196881 -2.23782,4.155945 -2.5575,0.959065 -15.18518,-2.717349 -18.70175,2.717349 -3.51657,5.434699 0.47953,7.352827 -8.47174,7.192983 -8.95126,-0.159844 -14.06627,1.918129 -16.62378,5.274854 -2.5575,3.356726 -6.55361,7.672515 -5.75439,9.590644 0.79922,1.918129 3.67642,4.31579 2.55751,5.754386 -1.11891,1.438597 -3.67641,3.676414 -4.79532,4.635478 -1.11891,0.959064 -4.47564,1.278753 -4.95517,3.037037 -0.47953,1.758285 -0.47953,14.385966 2.39766,16.14425 2.8772,1.758283 6.07408,2.237813 6.71345,3.836253 0.63938,1.59845 3.9961,1.91813 3.67642,3.83626 -0.31969,1.91813 2.23781,4.79532 -1.4386,5.59454 -3.67641,0.79922 -11.66862,3.35673 -12.94737,0.95907 -1.27875,-2.39766 1.75829,-7.03314 -3.9961,-7.51267 -5.75439,-0.47953 -13.90643,-1.11891 -16.46394,3.35672 -2.5575,4.47564 -8.152046,9.11111 -7.992202,10.8694 0.159844,1.75828 -1.278752,4.95517 -4.475634,4.79532 -3.196881,-0.15984 -0.959064,0 -7.992203,-0.79922 -7.033139,-0.79922 -12.627681,0.79922 -14.066277,2.07797 -1.438597,1.27876 -8.63158,2.39766 -11.02924,4.79533 -2.397661,2.39766 -2.557505,13.10721 0.79922,13.74659 3.356725,0.63937 10.709552,0.63937 11.668616,3.03703 0.959065,2.39766 8.471736,17.26316 5.11501,21.25926 -3.356725,3.9961 -15.664718,12.46784 -16.783626,14.54581 -1.118909,2.07797 -13.586745,12.30799 -15.824562,13.26706 -2.237817,0.95906 -16.783627,-0.15984 -19.021444,1.59844 -2.237817,1.75828 -2.877193,3.83626 -1.918128,5.75439 0.959064,1.91812 6.074074,10.70955 7.51267,11.9883 1.438597,1.27875 8.311892,-0.15984 13.426902,3.51657 5.11501,3.67641 10.709552,5.75439 9.430799,7.9922 -1.278752,2.23782 -4.315789,6.23392 -3.996101,8.47174 0.319688,2.23782 0.959064,4.15594 4.315789,4.63548 3.356726,0.47953 17.742691,0.95906 20.140352,-1.27876 2.397661,-2.23781 1.438597,-3.19688 5.754386,-3.51657 4.31579,-0.31968 15.34503,-0.15984 19.341133,-1.75828 3.9961,-1.59844 11.66862,-1.27875 12.14815,0.31969 0.47953,1.59844 -1.4386,2.87719 -1.75829,5.59454 -0.31969,2.71735 1.11891,8.79142 5.11501,10.07018 3.9961,1.27875 6.71345,-0.15985 7.67252,3.19688 0.95906,3.35672 1.27875,7.35282 3.19688,8.47173 1.91813,1.11891 11.18908,6.71345 19.02144,8.15205 7.83236,1.4386 19.98051,0.63938 21.25926,3.03704 1.27876,2.39766 2.71735,11.9883 8.95127,18.54191 6.23392,6.5536 19.66082,28.13255 23.49708,30.53021 3.83625,2.39766 14.70565,8.63158 15.9844,10.07018 1.27876,1.4386 3.99611,5.75439 12.308,6.39376 8.31189,0.63938 20.77972,2.07797 26.69395,-1.75828 5.91423,-3.83626 6.8733,-7.35283 10.38987,-5.27486 3.51657,2.07798 6.55361,7.83236 6.71345,10.70956 0.15984,2.87719 1.11891,7.67251 4.15594,8.47173 3.03704,0.79922 9.11112,3.67641 9.59065,7.19298 0.47953,3.51657 -2.23782,12.62768 -3.83626,14.22613 -1.59844,1.59844 -7.35283,8.63157 -6.39376,11.34892 0.95906,2.71735 1.11891,5.27486 -1.4386,5.4347 -2.5575,0.15985 2.07797,1.59844 6.55361,2.23782 4.47563,0.63937 8.15205,-0.79922 11.50877,0.95906 3.35673,1.75829 15.34503,2.39766 17.10332,1.91813 1.75828,-0.47953 8.63157,-2.71735 12.14814,-2.71735 3.51657,0 13.42691,0.47953 16.94347,3.51657 3.51657,3.03704 12.46784,11.02924 13.74659,14.8655 1.27876,3.83626 2.23782,8.47173 2.55751,10.8694 0.31969,2.39766 2.39766,7.67251 2.23782,9.75048 -0.15985,2.07798 -1.4386,5.75439 3.03703,7.19299 4.47564,1.43859 13.90644,6.87329 15.34503,7.83236 1.4386,0.95906 7.19299,4.79532 8.15205,5.75438 0.95906,0.95907 2.71735,3.83626 2.71735,3.83626"
         style="color:#000000;fill:none;stroke:#838383;stroke-width:1px;stroke-linecap:butt;stroke-linejoin:miter;stroke-miterlimit:4;stroke-opacity:1;stroke-dasharray:none;stroke-dashoffset:0;marker:none;visibility:visible;display:inline;overflow:visible;enable-background:accumulate" />
    </g>
    <path
       style="fill:#fefee9;fill-opacity:1;stroke:none"
       d="m 384.70764,450.91512 c -2.83584,-3.05068 -9.59336,-7.46423 -17.76287,-11.60149 -4.4239,-2.24037 -8.41582,-4.38244 -8.87093,-4.76015 -0.4821,-0.4001 -0.8247,-2.05514 -0.82081,-3.96518 0.004,-1.80315 -1.03728,-7.69199 -2.31322,-13.08633 -2.21838,-9.3788 -2.45193,-9.96621 -5.33868,-13.4269 -3.52207,-4.22233 -10.38075,-10.36113 -13.1345,-11.75591 -5.05405,-2.5599 -15.63471,-3.05761 -22.71071,-1.06829 -3.92526,1.10351 -5.92849,1.28654 -11.17623,1.0211 -3.51657,-0.17786 -7.25692,-0.67041 -8.31189,-1.09455 -1.05497,-0.42414 -5.08304,-1.00318 -8.95127,-1.28677 -3.86823,-0.28359 -7.46472,-0.68736 -7.9922,-0.89726 -0.71538,-0.28468 -0.94946,-1.39503 -0.92127,-4.36983 0.0416,-4.38984 0.57772,-5.70622 4.18299,-10.2708 3.0546,-3.86739 5.08953,-9.15495 5.52962,-14.36815 0.31917,-3.78078 0.22695,-4.1477 -1.50834,-6.00098 -1.01657,-1.08568 -3.63521,-2.79582 -5.8192,-3.8003 -4.46583,-2.05395 -5.0648,-2.85803 -6.01006,-8.06811 -1.32,-7.27567 -6.0675,-12.84556 -10.55541,-12.38386 -0.39364,0.0405 -2.11995,1.18506 -3.83626,2.54349 -6.57659,5.20527 -10.62103,6.06229 -24.3095,5.15123 -9.83019,-0.65428 -13.10048,-1.72462 -17.03275,-5.57468 -1.32915,-1.30136 -5.92094,-4.52645 -10.20398,-7.16686 -7.48991,-4.61737 -7.97153,-5.04879 -12.60872,-11.29461 -2.65175,-3.57162 -7.55469,-10.14004 -10.89543,-14.59648 -10.23388,-13.65168 -11.13872,-15.10103 -13.12263,-21.01943 -1.14451,-3.41431 -2.41228,-6.0128 -3.18147,-6.52091 -0.71831,-0.4745 -5.6473,-1.26127 -11.2465,-1.79518 -11.01247,-1.05009 -15.30338,-2.21699 -23.16843,-6.30058 -5.55402,-2.88369 -6.33581,-3.78712 -7.44842,-8.60726 -0.93104,-4.03351 -1.43106,-4.48801 -5.8336,-5.3026 -4.01432,-0.74277 -5.92277,-2.50961 -6.9894,-6.47079 -0.57648,-2.14086 -0.50283,-3.16653 0.40958,-5.70383 1.55403,-4.32161 0.81168,-5.09246 -4.90414,-5.09246 -2.39672,0 -6.17377,0.41111 -8.393451,0.91358 -2.219678,0.50246 -7.914398,1.1185 -12.654939,1.36896 -8.503069,0.44924 -8.643291,0.48121 -10.410407,2.37291 -2.149796,2.30136 -4.961117,2.95062 -12.943463,2.98922 -11.397653,0.0551 -13.337808,-1.96779 -9.16578,-9.5567 1.170873,-2.12982 1.850532,-4.11195 1.617862,-4.71828 -0.220671,-0.57506 -2.916777,-2.68529 -5.991345,-4.68939 -5.483707,-3.57446 -10.038176,-5.30408 -13.966829,-5.30408 -2.759253,0 -3.652472,-0.85164 -7.315905,-6.97534 -5.501575,-9.19631 -4.619823,-10.35799 8.294167,-10.92728 l 8.899225,-0.39232 3.679304,-2.52114 c 2.023617,-1.38664 6.422583,-5.12722 9.775478,-8.31241 3.352895,-3.18519 8.541787,-7.82349 11.530871,-10.30731 9.664187,-8.03061 9.163945,-7.33464 8.797733,-12.23987 -0.307799,-4.12279 -3.545105,-13.52163 -5.890003,-17.1004 -0.924544,-1.41103 -3.098216,-2.09127 -10.129614,-3.16997 -3.014653,-0.46248 -3.866522,-2.27895 -3.504378,-7.4725 0.293841,-4.21398 1.446496,-5.85217 4.889345,-6.94888 1.276192,-0.40652 4.244532,-1.57077 6.596314,-2.58721 5.170062,-2.23451 9.941083,-2.77876 17.065192,-1.94669 7.291754,0.85165 10.307966,-0.33935 10.307966,-4.07026 0,-1.5944 9.473487,-13.06703 11.420277,-13.83025 2.39556,-0.93916 13.32548,-0.8457 14.49381,0.12392 0.55229,0.45836 0.93972,1.88113 0.93972,3.45093 0,3.28524 0.85031,4.20553 3.8857,4.20553 3.40622,0 11.28522,-1.897 12.13581,-2.9219 0.80082,-0.96493 0.21983,-7.30812 -0.66937,-7.30812 -0.28175,0 -1.18984,-0.7336 -2.01798,-1.63022 -0.82814,-0.89662 -3.12268,-2.46433 -5.09898,-3.483801 -4.13858,-2.134877 -4.28982,-2.466886 -4.82857,-10.600202 l -0.38445,-5.803895 3.50445,-1.977789 c 3.41744,-1.928679 6.90029,-5.314225 6.90029,-6.707499 0,-0.381694 -0.71573,-1.91528 -1.5905,-3.407967 l -1.5905,-2.713977 2.75584,-3.743532 c 5.19453,-7.056269 9.35212,-9.163085 18.08243,-9.163085 6.49977,0 7.56875,-0.537338 8.87143,-4.459356 1.62547,-4.893806 2.85258,-5.444141 12.22979,-5.4848 8.32726,-0.03611 9.8341,-0.514436 9.8341,-3.121724 0,-0.770291 0.86366,-2.227966 1.91924,-3.239278 1.73608,-1.663269 1.99541,-1.73845 2.71735,-0.787788 1.00276,1.320447 3.81923,2.387293 6.30244,2.387293 1.34713,0 3.02946,-0.936191 5.74833,-3.198852 4.36004,-3.628471 6.94059,-5.11304 8.88769,-5.11304 1.77717,0 4.49347,1.443266 6.07558,3.228172 1.90499,2.149171 6.76053,5.08372 8.41158,5.08372 2.65449,0 8.66537,-2.682779 11.25715,-5.0243 2.35532,-2.127892 2.92236,-2.330069 7.10934,-2.534812 4.06427,-0.198744 4.78869,-0.04781 6.78768,1.414172 1.2308,0.900164 2.95711,1.958984 3.83626,2.352934 1.95144,0.874453 7.5765,0.384069 11.50877,-1.003316 1.5757,-0.555941 4.4714,-1.178713 6.43489,-1.383937 3.30268,-0.3452 3.73397,-0.23061 5.76052,1.530544 3.71117,3.225158 7.82586,4.786911 14.70055,5.579689 5.05597,0.583044 7.08075,2.054732 9.52835,6.925571 2.23754,4.452822 3.45874,5.365042 8.01897,5.990092 2.74535,0.376292 12.85304,-0.771841 15.47862,-1.758217 1.24063,-0.466076 1.57738,-0.19446 2.67922,2.160985 0.69314,1.481736 1.76338,3.465115 2.37832,4.407508 1.09114,1.672168 1.07064,1.815548 -0.85121,5.951941 -1.08311,2.331174 -1.82345,4.796241 -1.64517,5.477928 0.17826,0.681687 1.45965,2.341591 2.84753,3.688674 l 2.52343,2.449244 -2.29416,1.548469 c -2.87645,1.941482 -3.17342,3.124669 -2.70677,10.784279 0.77093,12.654212 3.02475,15.037782 14.19175,15.008722 5.12967,-0.0134 6.98276,-0.28491 9.37291,-1.37351 l 2.97916,-1.35685 0.73869,2.03044 c 1.66878,4.58696 2.19177,5.17451 5.12162,5.75392 3.08211,0.60952 12.65131,0.0343 14.07587,-0.84613 0.72645,-0.44897 0.7477,-1.12278 0.12102,-3.83773 -0.41808,-1.81122 -0.76015,-3.66732 -0.76015,-4.124677 0,-1.276143 5.50321,-3.339788 11.18908,-4.195785 9.7805,-1.472438 11.74415,-1.989356 16.74639,-4.408385 2.76709,-1.338132 8.48461,-4.594147 12.70559,-7.235586 14.33443,-8.9703 15.49251,-9.2336 24.89501,-5.660143 3.16491,1.202837 6.03103,2.428956 6.36915,2.724708 0.33812,0.295752 0.53343,1.664214 0.43402,3.041026 -0.27551,3.815879 2.04446,4.613546 5.53779,1.904031 2.16073,-1.675915 7.26381,-2.081867 16.19045,-1.287955 l 7.91303,0.703766 2.06344,2.396863 c 5.03031,5.843175 3.47693,5.274055 14.39523,5.274055 11.63864,0 11.93295,0.118739 16.16028,6.519892 1.97099,2.98454 4.39897,3.70185 12.54609,3.70656 7.79989,0.004 8.9233,0.71082 9.35195,5.87973 0.36303,4.37769 -0.52719,6.27199 -2.94749,6.27199 -0.97539,0 -2.33193,-0.42243 -3.01454,-0.93874 -2.82279,-2.13505 -4.51436,-0.34567 -5.20774,5.50883 -0.56078,4.73488 0.73533,8.67556 3.846,11.69334 4.49519,4.36097 14.85102,15.90815 16.09195,17.9432 0.64329,1.05497 2.25282,2.92514 3.57671,4.15594 2.37055,2.20385 2.42428,2.36091 3.53993,10.34713 1.35412,9.69321 1.15313,10.39865 -3.75132,13.16654 -4.5873,2.58892 -6.61679,5.12039 -7.49448,9.3482 -0.85044,4.09651 0.088,8.59525 3.1654,15.17416 3.16195,6.7597 3.14543,7.45672 -0.27161,11.45988 -3.57869,4.19255 -3.99417,5.58894 -2.65716,8.93046 1.45589,3.63861 1.33839,4.25545 -1.53552,8.06192 -4.33482,5.74144 -4.95128,6.14531 -8.67946,5.68641 -2.39248,-0.29448 -3.44694,-0.16432 -3.99231,0.4928 -0.96197,1.15911 0.0364,14.64916 1.4514,19.6122 1.57816,5.53515 1.31024,12.12112 -0.69868,17.17461 -2.01891,5.07863 -5.01149,10.55116 -6.39985,11.70339 -0.83849,0.69589 -1.62859,0.49613 -4.92346,-1.24482 -2.15859,-1.14055 -4.24855,-2.06561 -4.64436,-2.05568 -1.68567,0.0423 -7.89758,3.27222 -8.51617,4.42805 -0.37098,0.69318 -0.6745,2.37257 -0.6745,3.73198 0,3.38331 -0.86254,4.00617 -5.54784,4.00617 -3.6929,0 -4.09863,-0.14038 -5.0818,-1.75829 -0.58766,-0.96705 -2.08651,-2.66642 -3.33077,-3.77636 -2.21133,-1.97261 -2.24523,-2.07503 -1.50485,-4.5462 0.41659,-1.39046 1.62108,-3.61487 2.67665,-4.94313 1.05557,-1.32826 1.91921,-2.65196 1.91921,-2.94157 0,-0.93558 -2.63593,-3.01492 -4.37539,-3.4515 -2.29242,-0.57536 -3.29712,-1.50546 -3.29712,-3.0523 0,-0.75685 -1.52668,-2.70481 -3.67287,-4.68639 l -3.67287,-3.39115 -0.0323,-6.26457 c -0.0237,-4.58557 -0.3195,-6.80334 -1.10385,-8.27482 -1.32134,-2.47886 -7.93872,-8.4641 -9.90317,-8.95715 -2.20815,-0.5542 -5.52262,0.28029 -7.15552,1.80156 -1.26414,1.17773 -1.41784,1.79423 -1.10528,4.4333 0.51665,4.36234 1.87866,6.58214 5.82932,9.50067 1.90322,1.40599 3.61405,2.80497 3.80186,3.10885 0.18781,0.30388 0.61228,2.25237 0.94326,4.32997 0.49641,3.11597 0.4274,3.9734 -0.39407,4.89637 -1.66161,1.86691 -4.80573,1.34712 -10.79196,-1.78417 -6.18972,-3.23773 -9.53424,-3.96297 -13.43358,-2.91298 -3.4164,0.91994 -4.81214,3.62195 -3.16751,6.13197 0.5774,0.88122 1.15537,1.60222 1.28438,1.60222 0.12901,0 3.02893,0.57496 6.44427,1.27769 9.3414,1.92207 11.08817,2.89742 15.23758,8.50825 1.95681,2.646 4.14931,4.99863 4.87224,5.22808 0.72293,0.22945 1.30532,0.61358 1.29421,0.85363 -0.0111,0.24004 -1.09007,2.45048 -2.39766,4.91207 l -2.37745,4.47564 -6.43352,-0.21962 c -6.13009,-0.20926 -6.52548,-0.14224 -8.3833,1.42102 -1.07238,0.90235 -3.04006,3.73451 -4.37262,6.29369 -4.94943,9.50537 -6.1841,10.14821 -9.24387,4.8129 -1.05879,-1.8462 -1.92776,-4.13783 -1.93107,-5.09252 -0.008,-2.33267 -1.58852,-3.05953 -6.65252,-3.05953 -3.46955,0 -4.39285,0.23591 -5.47673,1.39932 -1.53031,1.64259 -1.68859,4.24112 -0.36493,5.99115 0.56228,0.7434 0.94689,2.69875 0.95907,4.8759 0.0258,4.61693 0.57789,6.01788 3.62507,9.19908 1.35813,1.41787 3.70811,4.07345 5.22216,5.90128 1.51405,1.82783 3.04316,3.32333 3.39804,3.32333 1.86815,0 6.86825,2.81467 7.51269,4.22905 0.92482,2.02976 0.92399,6.55231 -0.002,10.2293 -0.57042,2.26532 -0.94399,2.78536 -1.75829,2.44769 -7.03107,-2.91556 -9.66554,-3.24447 -9.66554,-1.20673 0,1.71875 6.33841,13.50046 10.03475,18.6524 3.93257,5.48117 3.81813,6.24868 -0.9317,6.24868 l -2.96139,0 -0.75179,3.51657 c -0.72154,3.37513 -1.89696,8.18847 -2.79778,11.4569 -0.28634,1.03893 -1.21105,1.81826 -2.8173,2.37435 -1.31507,0.4553 -3.13593,1.41373 -4.04633,2.12986 -0.91041,0.71613 -2.02869,1.30205 -2.48505,1.30205 -1.38897,0 -1.69084,2.39831 -0.59306,4.71171 1.09989,2.31785 3.38808,3.73096 10.219,6.31095 3.78082,1.42799 3.83364,1.48251 4.2488,4.38481 0.23121,1.61637 0.87387,3.81581 1.42815,4.88766 1.22775,2.3742 1.91172,6.61378 1.22649,7.60234 -0.7466,1.07708 -6.22776,2.77623 -10.32632,3.20114 -3.14062,0.3256 -4.36969,0.0732 -9.58779,-1.96885 -7.32297,-2.86577 -8.16306,-2.79877 -7.84756,0.6259 0.57361,6.22641 0.90382,5.72972 -3.80933,5.72972 -2.56658,0 -4.61698,0.33261 -5.24215,0.85037 -1.09664,0.90821 -2.0144,3.42115 -2.6648,7.29653 -0.32471,1.93474 -0.7326,2.46565 -2.13181,2.77477 -3.94455,0.87146 -5.92602,1.70853 -6.42978,2.71629 -0.29355,0.58723 -0.88453,3.08173 -1.31327,5.54333 -0.42874,2.4616 -1.1358,5.13091 -1.57123,5.9318 l -0.79168,1.45615 -1.56655,-1.68522 0,0 z"
       id="path3860"
       inkscape:connector-curvature="0" />
    <path
       style="color:#000000;fill:none;stroke:#838383;stroke-width:1px;stroke-linecap:butt;stroke-linejoin:miter;stroke-miterlimit:4;stroke-opacity:1;stroke-dasharray:none;stroke-dashoffset:0;marker:none;visibility:visible;display:inline;overflow:visible;enable-background:accumulate"
       d="m 154.39464,469.96552 c 0,0 -2.48659,-7.00767 -0.90422,-10.17242 1.58238,-3.16475 11.07663,-12.659 8.59004,-16.95402 -2.48659,-4.29502 -7.00766,-11.75479 -4.52107,-14.69349 2.48659,-2.93869 9.7203,-3.61685 14.91954,-3.3908 5.19923,0.22605 19.89272,-2.71264 21.02299,2.03448 1.13026,4.74713 1.35632,8.36399 3.61685,9.49425 2.26054,1.13027 8.59004,1.58238 11.30269,3.61686 2.71264,2.03449 4.29502,2.03449 8.13793,2.48659 3.84291,0.45211 13.11111,2.9387 15.5977,-1.13027 2.48659,-4.06896 1.35632,-8.36398 4.97318,-8.59003 3.61686,-0.22606 12.2069,2.48659 13.33716,-2.48659 1.13027,-4.97318 3.39081,-6.10345 2.48659,-12.43295 -0.90421,-6.32951 -6.7816,-13.78928 -5.19923,-15.59771 1.58238,-1.80843 4.06897,-13.1111 8.81609,-13.33716 4.74713,-0.22605 17.18008,-0.45211 17.18008,-0.45211"
       id="path3862"
       inkscape:connector-curvature="0"
       sodipodi:nodetypes="cssssssssssssssc" />
    <path
       style="color:#000000;fill:none;stroke:#838383;stroke-width:1px;stroke-linecap:butt;stroke-linejoin:miter;stroke-miterlimit:4;stroke-opacity:1;stroke-dasharray:none;stroke-dashoffset:0;marker:none;visibility:visible;display:inline;overflow:visible;enable-background:accumulate"
       d="m 370.99807,108.19492 c 0,0 -2.39766,5.91423 -1.91813,7.67251 0.47953,1.75828 2.87719,3.9961 2.07797,8.15205 -0.79922,4.15594 -5.11501,6.23392 -4.15594,7.9922 0.95906,1.75829 4.31579,8.15205 4.79532,11.50877 0.47953,3.35673 0.79922,5.4347 -2.07797,6.55361 -2.8772,1.11891 -5.75439,2.39766 -6.55361,4.47563 -0.79922,2.07798 -0.31969,7.19299 1.11891,8.31189 1.43859,1.11891 4.63547,0.63938 6.23392,1.91813 1.59844,1.27876 8.79142,3.03704 8.79142,3.03704 0,0 8.63158,1.59844 9.75049,-0.31969 1.1189,-1.91813 0.95906,-10.23002 5.11501,-10.38986 4.15594,-0.15985 11.82846,-0.31969 12.94737,1.59844 1.1189,1.91813 3.35672,4.31579 6.87329,4.15594 3.51657,-0.15984 12.78753,0.31969 12.14815,2.07798 -0.63938,1.75828 -6.23392,10.38986 -4.15595,13.4269 2.07798,3.03704 10.07018,16.30409 9.27096,19.82066 -0.79922,3.51657 -6.07408,7.83236 -6.23392,9.59065 -0.15984,1.75828 5.91423,2.39766 8.15205,5.11501 2.23781,2.71734 13.26705,13.4269 15.66472,14.38596 2.39766,0.95907 8.31189,5.59454 8.63158,6.71345 0.31968,1.11891 1.59844,4.79532 1.59844,4.79532"
       id="path3864"
       inkscape:connector-curvature="0" />
    <path
       style="color:#000000;fill:none;stroke:#838383;stroke-width:1px;stroke-linecap:butt;stroke-linejoin:miter;stroke-miterlimit:4;stroke-opacity:1;stroke-dasharray:none;stroke-dashoffset:0;marker:none;visibility:visible;display:inline;overflow:visible;enable-background:accumulate"
       d="m 371.63744,165.25925 c 0,0 -4.79532,8.79142 -8.31189,8.95126 -3.51657,0.15985 -27.97271,1.75829 -30.53021,3.35673 -2.55751,1.59844 -5.4347,2.23781 -5.75439,4.15594 -0.31969,1.91813 2.71735,4.15595 4.15595,6.8733 1.43859,2.71735 4.79532,8.79142 4.95516,10.86939 0.15985,2.07798 -1.75828,6.55361 0,7.19299 1.75829,0.63937 9.59065,-0.31969 11.34893,1.59844 1.75829,1.91813 16.78363,12.46783 19.82066,11.9883 3.03704,-0.47953 8.15205,-9.11111 13.10722,-9.11111 4.95516,0 27.81286,-1.27875 32.44834,-0.79922 4.63548,0.47953 8.31189,1.59844 9.91033,0.95907 1.59844,-0.63938 3.67642,-2.39767 3.67642,-2.39767"
       id="path3866"
       inkscape:connector-curvature="0" />
    <path
       style="color:#000000;fill:none;stroke:#838383;stroke-width:1px;stroke-linecap:butt;stroke-linejoin:miter;stroke-miterlimit:4;stroke-opacity:1;stroke-dasharray:none;stroke-dashoffset:0;marker:none;visibility:visible;display:inline;overflow:visible;enable-background:accumulate"
       d="m 335.67253,205.85964 c 0,0 -16.46394,0.95906 -20.3002,8.63158 -3.83625,7.67251 -5.91423,16.78362 -3.67641,17.74269 2.23782,0.95906 9.91033,-0.47953 11.02924,-1.11891 1.11891,-0.63938 2.07797,-4.47563 3.19688,-2.55751 1.11891,1.91813 0,5.27486 3.35673,5.59455 3.35672,0.31968 15.50487,0.47953 17.74269,3.67641 2.23782,3.19688 9.27095,11.9883 10.23002,14.22612 0.95906,2.23782 10.70955,14.06628 11.50877,15.82456 0.79922,1.75829 0.95907,2.23782 5.11501,2.55751 4.15595,0.31969 10.07018,2.39766 13.10721,5.11501 3.03704,2.71735 9.59065,7.83236 13.4269,7.35282 3.83626,-0.47953 13.10722,0.63938 14.38597,2.71735 1.27875,2.07798 3.9961,8.79143 3.9961,8.79143 l 3.35673,4.47563"
       id="path3868"
       inkscape:connector-curvature="0" />
    <path
       style="color:#000000;fill:none;stroke:#838383;stroke-width:1px;stroke-linecap:butt;stroke-linejoin:miter;stroke-miterlimit:4;stroke-opacity:1;stroke-dasharray:none;stroke-dashoffset:0;marker:none;visibility:visible;display:inline;overflow:visible;enable-background:accumulate"
       d="m 482.62452,272.62069 c 0,0 -0.45211,-3.84291 1.13027,-5.19923 1.58238,-1.35633 2.9387,-2.71265 2.9387,-4.52108 0,-1.80843 0,-1.80843 0,-1.80843 0,0 -2.71265,-0.90421 -2.03449,-3.84291 0.67817,-2.9387 5.65135,-7.91188 4.74713,-9.7203 -0.90421,-1.80843 -4.52107,-6.78161 -5.65134,-7.00767 -1.13027,-0.22605 -4.06897,-3.3908 -2.26054,-5.19923 1.80843,-1.80843 5.42529,-5.65134 5.42529,-7.91188 0,-2.26053 -2.71264,-8.59004 -2.26054,-11.98084 0.45211,-3.39081 8.8161,-17.40613 10.17242,-18.08429 1.35632,-0.67816 7.00766,-1.58238 7.00766,-1.58238 0,0 -0.45211,1.35632 1.80843,2.48659 2.26054,1.13027 9.49425,-2.9387 10.85057,-3.61686 1.35633,-0.67816 12.88506,-0.4521 14.46744,-1.58237 1.58237,-1.13027 3.16475,-6.55556 5.19923,-8.13793 2.03448,-1.58238 5.65134,-0.90422 5.65134,-0.90422"
       id="path3870"
       inkscape:connector-curvature="0" />
  </g>
</svg>
