<?xml version="1.0" encoding="UTF-8" standalone="no"?>
<!-- Created with Inkscape (http://www.inkscape.org/) -->

<svg
   xmlns:dc="http://purl.org/dc/elements/1.1/"
   xmlns:cc="http://creativecommons.org/ns#"
   xmlns:rdf="http://www.w3.org/1999/02/22-rdf-syntax-ns#"
   xmlns:svg="http://www.w3.org/2000/svg"
   xmlns="http://www.w3.org/2000/svg"
   xmlns:sodipodi="http://sodipodi.sourceforge.net/DTD/sodipodi-0.dtd"
   xmlns:inkscape="http://www.inkscape.org/namespaces/inkscape"
   id="svg2"
   version="1.1"
   inkscape:version="0.48.1 "
   width="600"
   height="466"
   sodipodi:docname="Map_Busan-gwangyeoksi.svg">
  <metadata
     id="metadata8">
    <rdf:RDF>
      <cc:Work
         rdf:about="">
        <dc:format>image/svg+xml</dc:format>
        <dc:type
           rdf:resource="http://purl.org/dc/dcmitype/StillImage" />
        <dc:title />
      </cc:Work>
    </rdf:RDF>
  </metadata>
  <defs
     id="defs6" />
  <sodipodi:namedview
     pagecolor="#ffffff"
     bordercolor="#666666"
     borderopacity="1"
     objecttolerance="10"
     gridtolerance="10"
     guidetolerance="10"
     inkscape:pageopacity="0"
     inkscape:pageshadow="2"
     inkscape:window-width="1440"
     inkscape:window-height="878"
     id="namedview4"
     showgrid="false"
     inkscape:zoom="1"
     inkscape:cx="297.05484"
     inkscape:cy="210.67295"
     inkscape:window-x="-8"
     inkscape:window-y="-8"
     inkscape:window-maximized="1"
     inkscape:current-layer="layer1" />
  <g
     inkscape:groupmode="layer"
     id="layer1"
     inkscape:label="outline"
     style="display:inline">
    <path
       style="fill:#c6ecff;fill-opacity:1;stroke:none"
       d="M 0,233 0,1.27e-5 l 299.95401,0 299.95402,0 0,232.9999873 0,233 -299.95402,0 L 0,466 0,233 z"
       id="path3018"
       inkscape:connector-curvature="0" />
    <path
       style="color:#000000;fill:none;stroke:#838383;stroke-width:1px;stroke-linecap:butt;stroke-linejoin:miter;stroke-miterlimit:4;stroke-opacity:1;stroke-dasharray:none;stroke-dashoffset:0;marker:none;visibility:visible;display:inline;overflow:visible;enable-background:accumulate"
       d="m 0,392.45954 c 0,0 5.3656128,1.89375 6.62811,-1.57812 1.2624971,-3.47187 5.996861,-14.51872 7.574983,-12.9406 1.578121,1.57813 5.049988,5.68124 7.259358,5.04999 2.20937,-0.63125 3.156243,-0.63125 6.312486,-3.47186 3.156243,-2.84062 6.943734,-3.15625 7.890607,-6.62811 0.946873,-3.47187 0.946873,-8.20624 4.41874,-8.83748 3.471867,-0.63125 18.937457,-0.63125 19.568706,-3.15625 0.631248,-2.52499 1.262497,-8.20623 0,-7.8906 -1.262497,0.31562 -5.049989,-4.41874 -5.996862,-7.57499 -0.946873,-3.15624 -4.103115,-13.25622 -6.943734,-13.88747 -2.840619,-0.63124 -13.25622,0.94688 -19.253081,-4.41874 -5.996862,-5.36561 -9.468729,-3.15624 -10.415602,-7.25935 -0.946873,-4.10312 -7.8906068,-16.41247 -8.206231,-18.93746 -0.3156243,-2.52499 5.049989,-7.57498 7.259358,-7.57498 2.20937,0 17.67496,-0.31563 20.515579,2.84062 2.840619,3.15624 5.681237,4.41874 9.468728,2.52499 3.787492,-1.89375 14.834342,-3.78749 16.412463,-4.41874 1.578122,-0.63125 6.62811,-8.52186 8.83748,-7.89061 2.20937,0.63125 17.67496,0 19.88433,1.2625 2.20937,1.2625 3.156243,3.15624 10.731222,2.84062 7.57499,-0.31563 10.41561,0.94687 11.36248,-2.20937 0.94687,-3.15624 -1.2625,-8.52186 -3.78749,-9.78435 -2.525,-1.2625 -4.10312,0.63124 -4.10312,-5.36562 0,-5.99686 0.63125,-16.41246 -2.84062,-19.5687 -3.471865,-3.15625 -10.099975,-8.52186 -7.57498,-11.04685 2.524994,-2.525 12.62497,-14.83434 18.62183,-14.51872 5.99686,0.31562 11.99373,0.31562 13.25622,-1.89375 1.2625,-2.20937 6.31249,-11.67809 9.46873,-11.67809 3.15624,0 10.4156,0 11.04685,2.84061 0.63125,2.84062 1.2625,7.25936 3.78749,6.94374 2.525,-0.31563 17.04371,-8.20623 20.19996,-7.89061 3.15624,0.31563 12.94059,3.15624 17.35933,2.525 4.41874,-0.63125 22.72495,-5.04999 27.14369,-6.62811 4.41874,-1.57813 24.61869,-11.6781 25.56557,-15.14997 0.94687,-3.47187 2.52499,-11.6781 3.47186,-13.25622 0.94688,-1.57812 4.10312,-7.57498 6.62811,-10.4156 2.525,-2.84062 3.7875,-2.84062 3.47187,-6.31249 -0.31562,-3.47186 -3.47187,-14.20309 3.15624,-15.14996 6.62811,-0.94688 22.0937,-3.47187 23.98745,-3.78749 1.89375,-0.31563 7.57498,1.57812 11.6781,-5.04999 4.10311,-6.62811 11.36247,-13.57185 13.57184,-14.2031 2.20937,-0.63124 18.62184,-0.94687 22.40933,-2.05155 3.78749,-1.10469 32.35149,-15.30778 33.45617,-17.04371 1.10469,-1.73594 3.15624,-13.098413 5.83905,-14.992158 2.68281,-1.893746 9.1531,-11.835911 9.94217,-15.149966 0.78906,-3.314055 1.73593,-15.149966 6.15467,-19.253081 4.41874,-4.103116 4.73436,-6.312486 2.68281,-8.04842 -2.05156,-1.735933 -8.67967,-5.365612 -4.10312,-8.521855 4.57655,-3.156243 23.3562,-3.945304 24.77651,-3.156243 1.42031,0.789061 7.10154,7.732795 8.36404,8.364043 1.2625,0.631249 12.30935,6.312486 17.99058,5.996862 5.68124,-0.315624 9.94217,-0.315624 12.15154,-3.314055 2.20937,-2.998431 5.04999,-4.103116 7.10155,-4.734364 2.05155,-0.631249 4.10311,-1.262497 4.57655,-5.83905 0.47343,-4.576552 1.26249,-7.101546 2.20937,-8.048419 0.94687,-0.946873 3.47186,-3.945303 0.47343,-6.470298 -2.99843,-2.524994 -6.94373,-4.734364 -6.94373,-6.154673 0,-1.42031 1.73593,-7.259359 3.78749,-7.417171 2.05156,-0.157812 11.36247,1.262497 14.51872,5.207801 3.15624,3.945303 5.36561,6.943734 9.94216,6.943734 4.57655,0 22.72495,-5.523425 27.45932,-5.681237 4.73436,-0.157812 10.25778,-3.156243 16.72808,-4.103116 6.4703,-0.946873 12.78279,-0.157812 14.04528,4.41874 1.2625,4.576552 2.99843,8.679668 6.15468,11.362474 3.15624,2.682807 10.09997,8.364044 9.94216,10.25779 -0.15781,1.893745 -1.57812,3.471867 -1.73593,6.470297 -0.15781,2.998431 4.41874,9.310917 3.9453,11.204663 -0.47343,1.893745 -2.99843,6.62811 -2.84062,8.364043 0.15782,1.735934 5.99686,9.942165 8.67967,10.889038 2.68281,0.946873 14.83434,7.101546 14.67653,8.206231 -0.15781,1.104685 -0.78906,2.367182 -0.78906,5.365613 0,2.998431 -1.57812,4.576552 1.89375,4.734364 3.47186,0.157813 6.78592,-1.104685 7.73279,-4.260927 0.94687,-3.156243 1.57812,-13.729657 2.84062,-14.834342 1.2625,-1.104685 3.47187,-3.156243 5.2078,-2.99843 1.73593,0.157812 3.31405,0.157812 3.31405,0.157812"
       id="path3050"
       inkscape:connector-curvature="0" />
    <path
       style="fill:#f0f0f0;fill-opacity:1;stroke:none"
       d="m 0.54227031,195.98887 0,-196.00267877 299.52744969,0 299.80642,0.05579502 c -0.16739,0.44636014 0.11159,37.09542575 0.11159,37.09542575 l 0.0558,37.095427 -2.60951,-0.164885 c -1.39547,0.0016 -2.67156,0.447795 -4.0051,1.257943 -1.33354,0.810148 -2.44554,1.872659 -2.95489,3.106892 -0.46251,1.12075 -0.97778,5.427569 -1.41781,8.684174 -0.95142,7.041256 -2.15178,8.476134 -6.09671,9.00526 -1.49387,0.20037 -3.44068,0.01599 -3.67185,-0.358031 -0.11063,-0.179015 0.29177,-1.496548 0.2628,-2.7311 -0.029,-1.234551 0.0128,-2.720892 0.18533,-3.907065 0.3811,-2.620597 1.29176,-1.938495 0.0566,-3.330315 -1.23515,-1.39182 -4.05816,-2.904736 -8.91261,-5.340181 -3.38513,-1.698302 -4.41435,-1.570887 -6.3949,-3.043227 -1.98056,-1.47234 -4.63346,-4.544436 -6.02123,-7.062258 l -1.54713,-2.806966 1.88285,-5.499195 c 1.48681,-4.342527 1.24627,-3.829544 -0.10255,-6.698411 -3.77812,-8.035885 -3.11306,-7.106819 -2.0554,-10.586607 0.53856,-1.771908 1.01436,-3.403738 1.01436,-3.7551 0,-0.351362 -2.37257,-3.509241 -6.26856,-7.023623 -2.76151,-2.491019 -5.00867,-4.235963 -6.28574,-5.862577 -1.23809,-1.576971 -1.86302,-3.350175 -2.30643,-4.626964 -1.85568,-5.3434 -2.54855,-6.864485 -4.81507,-7.945313 -3.48523,-1.661992 -10.25941,-1.357507 -17.97053,0.807738 -3.62,1.016479 -8.56934,2.185738 -10.99852,2.598353 -2.42917,0.412615 -7.96745,1.593948 -12.30729,2.625184 -15.62086,3.711847 -16.20016,3.650626 -22.03755,-2.328948 -3.38863,-3.471179 -4.64077,-4.306968 -8.0129,-5.348513 -4.90505,-1.515015 -8.66815,-1.790133 -9.94872,-0.727348 -1.45896,1.210826 -3.13697,6.118022 -2.65901,7.776047 0.22953,0.796228 2.10981,2.806198 4.17841,4.4666 2.06861,1.660403 3.7611,3.423174 3.7611,3.917271 0,0.494096 -0.67638,1.895063 -1.50307,3.113259 -0.82669,1.218195 -1.69414,3.574321 -1.92768,5.235834 -0.86501,6.154204 -1.44699,7.118625 -5.31966,8.815497 -1.95741,0.857671 -4.70079,2.669311 -6.09638,4.025865 -4.10289,3.988107 -11.39314,4.852827 -18.97225,2.250358 -8.41294,-2.88878 -11.14761,-4.469328 -15.2811,-8.831951 l -3.96587,-4.18571 -5.18723,0.0045 c -6.28434,0.0054 -15.68049,1.358627 -18.92686,2.725814 -2.44685,1.030477 -3.66046,2.974404 -3.12803,5.01041 0.16678,0.637816 1.68673,2.326232 3.37765,3.752036 1.69092,1.425804 3.0744,3.076036 3.0744,3.667182 0,0.591145 -1.09458,2.322066 -2.43241,3.846489 -3.78624,4.314352 -4.73761,6.794768 -7.01501,18.289469 -0.80662,4.071225 -4.87553,11.328204 -9.10661,16.241805 -2.31632,2.689959 -3.2846,4.605735 -4.89421,9.683299 -2.40671,7.592 -1.20202,6.64982 -20.92518,16.3655 -14.93464,7.35686 -13.85769,7.05192 -28.7673,8.14551 -6.66213,0.48866 -8.1499,0.79985 -10.14916,2.1229 -2.50965,1.6608 -7.92327,7.63709 -11.43857,12.62744 -2.42706,3.44548 -4.60614,4.82341 -7.66028,4.84394 -1.1456,0.008 -8.15187,0.98307 -15.56949,2.16749 -17.51088,2.79608 -17.48187,3.34335 -16.09539,14.40079 0.72966,5.81913 0.86869,4.55108 -3.95007,10.62703 -1.85994,2.34519 -4.07383,5.64835 -5.00845,7.86558 -0.93462,2.21723 -1.71497,4.84853 -2.45783,7.85001 -0.73039,2.95109 -1.66296,6.50729 -1.996,7.29156 -0.77528,1.8257 -7.5898,6.16934 -17.0457,10.95311 -6.15432,3.11351 -8.34344,3.89147 -17.74105,6.29239 -6.75703,1.7263 -12.32233,3.21701 -16.25898,3.59981 -3.93664,0.3828 -8.11963,-0.34231 -11.86203,-1.04764 -2.97814,-0.56129 -5.61352,-1.20806 -6.77306,-1.20806 -1.18023,0 -5.98717,1.75047 -10.98667,4.14121 -5.1375,2.45672 -7.72455,3.78076 -9.13424,3.74112 -1.40969,-0.0396 -2.03976,-1.2883 -2.46781,-4.28632 -0.21241,-1.48766 -0.79668,-3.21174 -1.4143,-3.77068 -1.30741,-1.18319 -9.60933,-2.26652 -11.63259,-1.51985 -1.5834,0.58434 -4.92128,4.70238 -7.38587,8.97809 -0.96627,1.67633 -1.62787,3.2434 -2.46951,3.56339 -0.84164,0.32 -2.58652,0.93536 -5.57898,0.93536 -3.63982,0 -6.82497,-0.56159 -9.89301,0.58177 -3.06803,1.14336 -5.90845,4.19054 -9.78691,8.00511 -7.966016,7.8348 -8.113262,8.00342 -1.614072,14.82983 2.558102,2.68689 4.314582,3.15791 4.590792,4.02588 0.27621,0.86796 1.51828,8.44398 1.62234,13.48122 l 0.18263,8.84061 2.35814,1.15235 c 1.29698,0.6338 1.88353,0.5732 2.84076,1.43395 2.78521,2.50447 3.60746,8.76583 1.48247,9.49711 -0.54871,0.18883 -4.40888,0.19438 -8.57512,0.0936 -6.400959,-0.15486 -7.917401,-0.39094 -9.78435,-1.52316 -2.815028,-1.70721 -5.362343,-2.06742 -15.382688,-2.17524 l -8.12333,-0.0874 -3.895113,3.86049 c -3.798722,3.76496 -4.050723,3.89841 -10.182881,5.39283 -3.45827,0.84278 -7.530741,1.97558 -9.049935,2.51732 -3.790477,1.35169 -5.221719,1.24262 -7.717891,-0.58814 -4.137502,-3.03456 -6.234005,-3.61401 -14.76988,-4.08224 -7.849575,-0.43058 -8.320444,-0.3863 -10.834102,1.01891 -2.640814,1.47629 -5.2627369,4.8449 -5.2627369,6.76148 0,0.81102 6.5274649,16.15165 8.7653039,20.59993 0.261993,0.52078 2.160799,1.82111 4.219568,2.88962 2.058768,1.06852 5.225098,2.96037 7.036288,4.20413 3.765281,2.58563 7.828537,3.63748 14.051517,3.63748 3.860181,0 4.477311,0.1722 5.562882,1.55228 1.278456,1.6253 1.391063,1.87889 4.582625,10.32005 1.327874,3.512 2.797047,6.10015 4.447882,7.83554 2.163948,2.27478 2.951204,3.66872 2.951204,6.32972 0,2.24195 -0.641208,2.91934 -1.458238,3.35452 -1.331385,0.70916 -11.488359,1.84417 -15.735118,1.84665 -1.968253,0.002 -3.392357,0.37465 -4.54004,1.35616 -1.147682,0.98151 -1.762461,3.05613 -2.086022,5.13886 -0.619862,3.98997 -1.680163,5.92121 -5.811155,7.45255 -2.212393,0.82013 -4.170943,3.18952 -5.072046,3.79527 -2.633634,1.77041 -4.211061,2.52972 -7.465851,-0.48921 l -3.7708,-3.49755 -1.92436,1.65138 c -1.138173,0.97672 -2.6756889,4.26478 -3.81004,6.9188 -2.6360027,6.16738 -2.8346934,6.40359 -5.3865057,6.40359 l -2.13207699,0 z"
       id="path3833"
       inkscape:connector-curvature="0"
       sodipodi:nodetypes="cccccccsssscsssssscssssssssssssssssssssssscsscsssssssssscsssssssssssssssssssssssscsssssscsssssssssssssssscssssscssscc" />
    <path
       style="color:#000000;fill:none;stroke:#838383;stroke-width:1px;stroke-linecap:butt;stroke-linejoin:miter;stroke-miterlimit:4;stroke-opacity:1;stroke-dasharray:none;stroke-dashoffset:0;marker:none;visibility:visible;display:inline;overflow:visible;enable-background:accumulate"
       d="m 34.718671,374.78458 c 0,0 -0.631248,5.04999 1.893746,6.31249 2.524994,1.26249 17.67496,6.31248 22.724948,8.52185 5.049989,2.20937 10.415602,4.73437 17.359336,4.73437 6.943734,0 10.099977,2.20937 11.678099,-0.63125 1.578121,-2.84062 4.103115,-9.15311 5.365612,-6.62811 1.262498,2.52499 2.524995,9.1531 5.681237,9.46873 3.156241,0.31562 7.574981,-3.78749 9.153101,-6.31249 1.57813,-2.52499 3.15625,-15.78121 3.15625,-20.19995 0,-4.41874 0.31562,-12.62497 3.15624,-16.09684 2.84062,-3.47187 1.57812,-9.78435 5.99686,-9.78435 4.41874,0 8.83748,-0.63125 8.83748,2.20937 0,2.84061 -5.36561,14.51871 -6.62811,17.67496 -1.2625,3.15624 -1.89374,5.68123 -0.31562,9.78435 1.57812,4.10311 1.57812,14.20309 4.73436,15.46559 3.15624,1.2625 8.83748,0.94687 11.99372,-0.63125 3.15625,-1.57812 6.62811,0 9.46873,-4.73436 2.84062,-4.73437 3.47187,-8.52186 3.47187,-11.36248 0,-2.84062 -0.94687,-3.47187 3.15624,-7.89061 4.10312,-4.41874 10.09998,-13.57184 9.78435,-9.46872 -0.31562,4.10311 -0.94687,5.99686 -1.57812,10.09997 -0.63125,4.10312 -2.52499,14.83434 -2.84062,18.30621 -0.31562,3.47187 -0.63124,5.68124 2.84062,6.62811 3.47187,0.94687 5.36562,4.73437 8.20623,-2.84062 2.84062,-7.57498 5.04999,-21.77807 7.25936,-23.67182 2.20937,-1.89374 5.36562,-1.89374 6.31249,1.57812 0.94687,3.47187 1.89374,31.87806 2.52499,38.19054 0.63125,6.31249 0.31563,24.6187 1.89375,27.14369 1.57812,2.52499 6.62811,17.04371 9.78435,17.99058 3.15624,0.94688 5.04999,-1.89374 6.62811,-1.89374 1.57812,0 2.84062,-1.2625 3.15624,-4.41874 0.31563,-3.15624 -1.26249,-12.62497 3.7875,-14.51872 5.04998,-1.89374 12.62497,0 12.94059,1.89375 0.31563,1.89374 -3.15624,8.20623 2.525,9.78435 5.68123,1.57812 11.04685,2.20937 10.73122,-3.47187 -0.31562,-5.68123 -0.63125,-15.78121 -1.89374,-19.88433 -1.2625,-4.10311 -11.6781,-11.6781 -8.20624,-18.30621 3.47187,-6.62811 3.7875,-7.57498 6.62811,-7.25935 2.84062,0.31562 8.52186,0.94687 8.83748,2.84061 0.31563,1.89375 -0.31562,15.78122 0.94688,18.30621 1.26249,2.525 -0.31563,9.15311 2.20937,11.36248 2.52499,2.20937 2.20937,4.41874 5.68123,2.20937 3.47187,-2.20937 8.83748,-4.10312 7.89061,-6.62811 -0.94687,-2.525 -1.89374,-9.78436 -2.20937,-11.36248 -0.31562,-1.57812 0,-1.57812 2.525,-3.78749 2.52499,-2.20937 6.94373,-2.20937 6.94373,-4.73436 0,-2.525 -0.31562,-7.57499 -1.2625,-8.83748 -0.94687,-1.2625 -0.94687,-6.94374 1.2625,-8.20623 2.20937,-1.2625 4.10312,1.26249 5.04999,4.41874 0.94687,3.15624 -1.57812,5.99686 2.84062,8.20623 4.41874,2.20937 27.77493,14.51871 29.9843,18.30621 2.20937,3.78749 0,8.20623 5.04999,9.1531 5.04999,0.94687 13.25622,11.36247 17.99059,12.30935 4.73436,0.94687 11.36247,1.89374 13.25622,0.31562 1.89374,-1.57812 2.52499,-5.99686 2.52499,-5.99686 0,0 1.89375,-1.89375 1.2625,-5.04999 -0.63125,-3.15624 -7.57498,-6.31248 -8.20623,-8.20623 -0.63125,-1.89375 -5.68124,-4.41874 -5.36562,-9.46873 0.31563,-5.04999 0,-9.1531 -2.84061,-12.30935 -2.84062,-3.15624 -23.67183,-25.88119 -26.19682,-26.82806 -2.52499,-0.94687 -2.84062,-0.31562 -4.10312,-3.78749 -1.26249,-3.47187 -2.52499,-11.04685 0,-11.99372 2.525,-0.94688 2.525,-2.525 5.36562,-3.47187 2.84062,-0.94687 5.36561,-1.2625 5.99686,0.63125 0.63125,1.89374 -0.63125,8.20623 2.52499,9.78435 3.15625,1.57812 6.94374,3.47187 9.78436,3.15624 2.84061,-0.31562 11.99372,-4.10311 14.20309,-4.10311 2.20937,0 6.31248,1.26249 6.62811,4.73436 0.31562,3.47187 -1.2625,9.15311 1.2625,10.09998 2.52499,0.94687 7.25935,3.15624 9.1531,0.63125 1.89375,-2.525 3.15624,-6.31249 5.04999,-5.36562 1.89374,0.94688 3.47187,7.89061 10.09998,7.89061 6.62811,0 11.36247,-4.41874 11.36247,-8.52185 0,-4.10312 1.2625,-5.68124 2.52499,-8.20624 1.2625,-2.52499 1.89375,-6.31248 0,-7.57498 -1.89374,-1.2625 -3.78749,-3.47187 -4.41874,-7.89061 -0.63124,-4.41874 -2.52499,-11.36247 -5.68123,-13.57184 -3.15625,-2.20937 -4.73437,0.63125 -6.62811,-2.52499 -1.89375,-3.15625 -3.78749,-4.41874 -1.89375,-5.99686 1.89375,-1.57813 5.36561,-4.73437 5.68124,-8.20624 0.31562,-3.47186 1.2625,-7.57498 4.41874,-8.52185 3.15624,-0.94687 16.41246,-2.84062 19.25308,-0.31563 2.84062,2.525 4.10312,5.68124 9.1531,5.36562 5.04999,-0.31563 6.94374,-0.94688 9.15311,-2.525 2.20937,-1.57812 3.15624,-5.36561 7.25936,-5.68123 4.10311,-0.31563 6.62811,-0.31563 9.78435,2.20937 3.15624,2.52499 5.36561,4.73436 6.94373,2.84061 1.57812,-1.89374 8.52186,-5.99686 9.15311,-7.57498 0.63125,-1.57812 -5.36562,1.89375 2.84062,-0.63125 8.20623,-2.52499 10.4156,-5.04999 10.4156,-8.20623 0,-3.15624 -3.15625,-13.88747 3.78749,-15.78121 6.94373,-1.89375 7.57498,-1.2625 11.6781,-3.47187 4.10311,-2.20937 6.62811,-2.20937 8.20623,-3.15624 1.57812,-0.94688 3.47187,-5.04999 5.04999,-6.94374 1.57812,-1.89374 2.20937,-6.94373 5.36561,-6.94373 3.15624,0 7.57498,0 7.57498,-3.78749 0,-3.78749 -0.94687,-9.78436 -2.52499,-11.6781 -1.57812,-1.89375 -7.57498,2.20937 -4.10312,-4.10312 3.47187,-6.31248 4.73437,-5.68123 5.68124,-7.8906 0.94687,-2.20937 -0.63125,-5.36562 1.89375,-5.04999 2.52499,0.31562 4.41874,2.84062 6.31248,3.78749 1.89375,0.94687 4.41874,0.94687 4.41874,0.94687 0,0 -2.52499,-15.78121 1.2625,-18.93746 3.78749,-3.15624 8.52185,-7.57498 8.20623,-10.73122 -0.31562,-3.15624 2.20937,-17.35934 -0.31562,-20.51558 -2.525,-3.15624 0.31562,-5.99686 -3.15625,-4.10312 -3.47186,1.89375 -4.73436,5.99687 -6.94373,5.36562 -2.20937,-0.63125 -5.99686,-1.89375 -3.78749,-6.62811 2.20937,-4.73437 7.8906,-7.57499 10.09997,-7.25936 2.20937,0.31562 6.94374,-1.2625 8.52186,-3.78749 1.57812,-2.525 4.10312,-6.94374 5.68124,-8.52186 1.57812,-1.57812 1.26249,-7.89061 0,-9.1531 -1.2625,-1.2625 -5.04999,-0.31563 -3.78749,-2.525 1.26249,-2.20937 6.31248,-4.10311 6.31248,-5.68123 0,-1.57813 -1.2625,-32.19368 2.20937,-33.140554 3.47187,-0.946873 11.6781,0.315624 13.25622,-3.156243 1.57812,-3.471867 2.20937,-6.312485 3.78749,-4.41874 1.57812,1.893746 6.62811,8.206227 10.4156,8.521857 3.7875,0.31562 13.25622,2.20937 14.83435,0.31562 1.57812,-1.893742 3.15624,-4.418737 3.15624,-4.418737"
       id="path3835"
       inkscape:connector-curvature="0" />
    <path
       style="fill:#fefee9;fill-opacity:1;stroke:none"
       d="m 193.02472,434.60567 c -1.82584,-2.2 -2.58374,-3.87695 -2.9916,-5.70408 -0.40786,-1.82712 -0.42148,-4.0696 -0.67037,-7.93098 -0.29327,-4.54986 -0.88352,-19.24361 -1.63577,-32.43671 -0.7164,-12.56429 -0.55119,-19.57353 -1.57625,-23.06876 -1.02506,-3.49522 -3.15201,-3.91838 -5.62429,-3.13371 -2.87082,0.91116 -3.06308,3.82638 -6.5801,16.79849 -1.36228,5.02465 -2.96543,9.35812 -3.40047,10.06205 -1.08209,1.75084 -4.87167,2.04737 -7.57743,0.0689 -2.15073,-1.57264 -2.07293,-2.2932 -0.12961,-14.83434 1.12338,-7.24978 2.44963,-15.40666 2.83917,-17.31618 0.58349,-2.86024 0.0746,-3.80779 -1.33226,-3.10701 -1.40684,0.70079 -3.09288,3.04991 -6.27784,6.95978 -3.16283,3.8827 -6.32205,7.08138 -6.14834,8.48883 0.31312,2.53716 -0.22131,7.03921 -1.25581,10.12309 -1.03451,3.08387 -2.83425,5.63346 -4.16785,6.38704 -0.92586,0.52317 -3.92948,1.17812 -5.85174,1.79231 -1.92225,0.61419 -2.00705,0.93608 -4.1078,1.36435 -4.20149,0.85656 -8.33503,0.37089 -9.46345,-0.56561 -0.98298,-0.81581 -2.15492,-5.86023 -2.80731,-10.79174 l -1.99053,-8.07928 0.48434,-3.30631 2.87657,-7.07993 c 2.10881,-5.19024 4.42338,-10.47419 4.42338,-12.19205 0,-2.88699 -0.3239,-3.56532 -5.89897,-3.56532 l -6.03155,0 -3.36171,7.89061 c -1.17626,2.76091 -2.18225,5.55206 -2.70608,8.6898 -0.52384,3.13774 -0.56551,6.62207 -0.87381,10.59256 -0.26701,3.43891 -0.69521,6.27523 -0.75774,8.63897 -0.0625,2.36374 -0.42231,4.2107 -0.81765,5.93605 -0.39535,1.72536 -0.59425,3.79315 -1.76028,5.09594 -1.16604,1.3028 -0.95692,1.35446 -1.86205,2.31794 -1.96315,2.08969 -5.88779,3.76614 -7.04291,3.16266 -1.155121,-0.60347 -2.148183,-2.51461 -3.463103,-5.65554 -0.965165,-2.30548 -1.518152,-4.5065 -3.06474,-4.25371 l -2.149749,2.45462 c -1.733917,1.97982 -2.638706,4.97982 -2.642155,5.5815 -0.0038,0.65913 -2.781444,0.32974 -6.27101,0.2189 -3.489567,-0.11083 -7.77942,-0.53343 -10.984347,-1.12138 -6.409855,-1.17589 -8.480004,-3.01315 -16.231027,-5.93134 -8.984414,-3.38255 -17.038808,-6.14651 -17.736618,-6.84432 -0.424995,-0.425 -1.315407,-2.2515 -1.286659,-3.78182 0.02875,-1.53032 0.976654,-2.76446 1.399866,-4.83315 0.504034,-2.46374 0.420803,-5.12324 2.575191,-7.03687 l 8.852338,-0.76468 c 6.364639,-0.54979 9.11184,-0.68107 10.719346,-1.41204 1.607507,-0.73098 1.710684,-1.86826 2.046922,-4.15919 0.223454,-1.52249 1.038549,-3.49822 0.0081,-5.09953 -0.515232,-0.80067 -0.96152,-0.38078 -1.864477,-1.04547 -0.902957,-0.66469 -2.262584,-2.41396 -2.836731,-3.13351 -1.695909,-2.12542 -2.017057,-5.22695 -3.522442,-8.9989 -1.532352,-3.83952 -2.660503,-6.55908 -3.91171,-7.83626 -1.251207,-1.27717 -2.360304,-1.42132 -6.152646,-1.43585 -3.3871,-0.013 -10.699093,-2.11928 -16.040294,-5.41605 -6.95394,-4.29223 -8.681079,-5.77936 -12.530455,-14.22626 -4.5847731,-10.06061 -5.6087007,-12.50131 -0.843142,-15.05175 4.493581,-2.40489 16.485908,-3.02434 21.455904,0.24864 l 6.674523,4.1897 c 3.658517,-0.98909 7.195781,-2.05311 10.219194,-2.96726 7.545975,-2.28159 10.957947,-0.90101 14.25429,-5.42133 1.438314,-1.97238 3.17021,-4.07027 5.313945,-4.80006 2.143734,-0.72979 2.574306,0.096 6.65997,0.096 2.544783,0 9.376797,0.0945 12.207695,0.57377 2.830898,0.47928 2.660679,1.40584 3.950995,1.94497 2.492804,1.04156 6.376876,1.39375 10.540986,1.39375 6.25284,0 8.74441,0.16338 9.47108,-2.06159 1.23467,-3.78042 -0.455,-8.18081 -3.8515,-10.98833 -3.27645,-2.70829 -3.89711,-1.51029 -3.89711,-10.44545 0,-9.2247 0.79461,-10.1677 -4.15538,-15.53784 -2.7775,-3.01323 -6.906151,-7.68392 -6.906151,-8.32674 0,-1.56555 11.366981,-12.49885 14.839731,-14.27253 1.51669,-0.77463 5.69279,-1.05488 9.14517,-1.05488 3.04306,0 6.02787,-0.42918 7.36526,-1.26986 1.33738,-0.84068 1.2041,-2.26965 3.40266,-5.32988 2.06969,-2.88086 3.15861,-4.69101 4.43716,-5.78093 0.63928,-0.54497 0.9227,-1.06455 1.93015,-1.24903 1.00746,-0.18447 2.73896,-0.0338 3.88792,-0.0338 2.28056,0 5.30084,0.68957 6.41325,1.57012 1.11241,0.88056 0.6042,2.34985 1.44043,4.35122 0.50773,1.21515 0.44551,1.99391 1.1332,2.77823 0.68769,0.78432 1.46237,1.11018 1.96451,1.11018 1.00429,0 5.19104,-2.07655 9.95128,-4.10222 4.16241,-1.77126 7.42024,-3.44384 9.772,-3.74906 2.35177,-0.30522 5.11376,1.11741 9.66707,1.75751 8.5819,1.20645 10.48468,0.58497 22.75734,-2.40358 6.65305,-1.6201 10.59604,-2.52049 16.7212,-5.18201 6.12517,-2.66152 14.43251,-7.08417 18.3143,-9.99879 1.3704,-1.02895 2.65544,-1.9049 3.53992,-3.35056 0.88449,-1.44566 1.72265,-6.71639 2.26158,-8.76888 1.81488,-6.91189 4.21833,-10.00826 8.5364,-15.81189 1.34233,-1.80413 2.87728,-2.3946 3.04331,-3.583 0.16603,-1.18839 -0.11887,-2.70371 -0.47479,-5.73202 -0.29778,-2.53366 -0.60291,-6.13398 -0.29149,-7.73956 0.31142,-1.60558 1.30187,-2.52892 1.97024,-3.08362 0.98327,-0.81604 8.13161,-1.64371 15.73241,-2.75595 7.60081,-1.11223 14.94211,-1.58706 16.46676,-1.89543 0.76234,-0.15419 3.46367,-1.92357 5.04158,-4.30416 2.13456,-3.22041 3.35572,-4.93103 4.92262,-6.87877 3.28849,-4.08777 6.76248,-7.0076 8.07073,-7.70776 1.30825,-0.70015 6.7151,-0.35529 12.85549,-0.99056 4.69939,-0.48619 7.33864,-0.21321 10.79123,-1.4236 3.4526,-1.21039 7.15605,-3.40417 12.85887,-6.07387 8.99839,-4.21248 14.89751,-7.49886 17.78507,-9.08227 2.88755,-1.5834 2.76353,-1.83884 3.71563,-5.23943 0.4316,-1.54155 2.12849,-7.56717 3.3487,-9.816985 1.22021,-2.249815 3.08874,-2.911327 4.36365,-5.09966 3.59431,-6.1695 7.23767,-9.197849 7.68685,-15.648493 0.19684,-2.826783 1.79816,-9.506252 3.24756,-12.313799 1.44277,-2.794696 2.4187,-2.905583 3.52741,-4.46756 2.26855,-3.196004 2.58649,-3.733422 2.5236,-5.095112 -0.0629,-1.36169 -3.00659,-3.422652 -5.01132,-5.165746 -0.86796,-0.754687 -1.46952,-1.585181 -1.85409,-2.459352 -0.38457,-0.874172 0.57285,-1.167021 0.57285,-1.596422 0,-1.892194 10.43585,-4.045683 18.70089,-4.045683 5.1041,0 5.32503,-1.402528 8.47222,1.947169 1.4316,1.523718 2.74426,3.832369 5.16952,5.788148 1.81312,1.46214 3.11995,1.871964 5.56781,2.988691 4.89574,2.233454 9.58529,3.831372 14.12522,3.838627 6.68367,0.01068 9.48017,-0.369821 13.60794,-3.650158 2.62127,-2.083121 5.21536,-3.787492 5.76466,-3.787492 1.98414,0 4.46458,-4.028249 4.47218,-6.718289 0.002,-0.756371 0.38351,-3.482805 0.83837,-4.929678 0.22744,-0.723437 0.34767,-1.670985 0.69906,-2.283005 0.35139,-0.61202 0.93393,-0.888512 1.19325,-1.385737 1.39024,-2.665671 1.63738,-2.427726 1.34308,-4.146007 -0.2943,-1.71828 -1.74378,-2.714626 -3.85836,-4.277997 -2.08021,-1.537968 -3.79765,-2.37043 -4.25207,-3.776806 -0.22721,-0.703188 0.1403,-1.717239 0.43395,-2.588337 0.29364,-0.871098 0.51341,-2.045602 1.1066,-2.846515 1.1226,-1.515704 3.17297,-2.09787 6.38993,-1.069227 1.60847,0.514322 5.04295,1.403449 6.81821,2.556758 1.77525,1.153308 1.44492,1.008537 2.8887,2.356405 1.21515,1.134429 2.3751,3.14609 3.88653,4.481344 1.51143,1.335254 3.43013,1.88251 4.04257,2.09675 0.61244,0.214242 3.34969,-0.04097 7.34305,-0.658827 3.99336,-0.617856 9.18703,-2.212101 14.82394,-3.44843 8.41164,-1.844903 2.60517,-0.680705 7.47879,-1.508708 2.43681,-0.414002 0.88381,0.472896 4.76299,-0.850543 4.22524,-1.441505 13.66492,-3.614805 14.79535,-3.516784 2.54441,0.220628 6.00519,-0.274796 8.15376,1.383051 1.47435,1.137615 2.36748,1.761565 2.41456,3.174371 0.0549,1.64775 1.17117,3.720479 1.73027,4.95333 0.64836,1.429678 1.84961,3.290258 3.17664,5.122999 1.32703,1.83274 4.28631,3.637642 5.88417,5.179148 2.66637,2.572331 4.78728,4.473159 5.15254,5.870327 0.36526,1.397167 -1.02513,2.737035 -1.36412,4.856985 -0.24525,1.533716 -0.31197,1.89482 -0.14568,3.208826 0.1663,1.314005 2.46264,5.812713 3.14944,7.140793 1.72786,3.341293 -0.0155,3.41626 -1.24729,7.527485 -1.09236,3.645984 -1.35834,4.422279 1.44275,7.848371 1.40054,1.713046 3.16333,4.214075 5.694,6.309956 1.26533,1.047938 2.12138,1.252557 3.72996,1.912528 1.60858,0.659972 3.96969,1.775294 5.34378,2.636021 l 6.20553,3.887116 -0.63027,3.471135 -0.29549,3.694316 c -0.21335,2.667363 -0.30011,2.35001 0.32818,2.738308 0.75136,0.464367 2.29336,0.452357 2.37709,1.111436 0.0837,0.659079 -1.23501,2.268222 -1.85311,2.515608 -1.18699,0.47507 1.76066,0.71231 -3.74872,0.9614 -1.88241,0.0851 -7.16505,-0.86747 -8.53823,-0.88794 -1.37317,-0.0205 -2.56566,-0.21433 -3.71584,-0.700807 -2.30035,-0.972958 -4.54303,-3.004802 -6.94227,-6.156614 -2.57292,-3.379968 -3.38419,-2.442915 -3.58014,-2.167795 -0.19597,0.27512 -0.0376,-0.30036 -1.21656,1.585301 -0.84636,1.35369 -1.20627,3.774491 -2.80385,4.654813 -1.59757,0.880321 -4.37702,0.833908 -6.82633,1.15882 -3.78062,0.501516 -5.27271,-0.337675 -6.21314,2.264852 -0.94042,2.60252 -1.24314,8.92695 -1.39662,18.50732 -0.11042,6.89267 0.36812,8.85131 0.27798,10.84054 -0.0483,1.06657 0.22093,2.51071 -0.33005,2.99978 -0.55098,0.48907 -2.35758,1.90137 -3.12122,2.40172 -1.91766,1.25649 -2.96708,2.49975 -3.05458,3.6268 -0.0438,0.56352 0.15294,0.72137 0.57389,0.92099 0.42094,0.19962 2.23784,0.16204 3.09112,0.89263 0.75254,0.64434 0.76412,0.82112 1.04187,2.02638 0.27776,1.20525 0.31954,3.94114 0.12814,4.90532 -0.38279,1.92835 -1.64245,2.68416 -4.09127,6.42442 -1.34016,2.04693 -2.42857,4.61624 -4.02437,5.64258 -0.7979,0.51317 -2.46769,1.02059 -3.42709,1.51898 -0.66401,0.34494 -1.979,0.0275 -3.64165,0.33364 -4.2728,0.78666 -6.86401,3.06531 -8.92787,5.65208 -2.04213,2.55952 -2.4085,5.57566 -0.26973,7.71443 0.57956,0.57956 1.55105,0.98576 2.57681,1.22376 1.02577,0.238 1.61008,0.24033 2.40033,0.10294 1.51625,-0.2636 3.3596,-4.06843 5.42953,-4.92984 1.97822,-0.82324 1.37181,-0.98834 1.25677,-0.55166 -0.10911,0.41415 0.51922,2.27732 0.9463,3.36057 0.24848,0.63022 0.98187,0.5991 1.36166,2.85485 0.37979,2.25575 0.40598,6.79837 0.13278,9.65751 l -0.97131,10.16484 c -1.9266,3.17211 -4.22225,5.54753 -6.66805,7.59879 -2.68386,2.25091 -2.01851,1.9408 -2.68749,3.69313 -0.66898,1.75234 -0.68864,3.77156 -0.68864,7.41467 0,2.04338 0.53803,4.86179 0.38366,6.26828 -0.15438,1.40648 0.5611,1.7916 0.24642,2.20452 -0.62935,0.82585 -3.59386,-0.6363 -5.56951,-2.13061 -1.78389,-1.34927 -3.76151,-2.4364 -5.08619,-2.27823 -0.66234,0.0791 -0.93827,0.35791 -1.11251,0.81987 -0.17424,0.46196 -0.2468,3.39466 -0.50241,4.20632 -0.49203,1.56234 -2.0673,2.47551 -3.70519,4.8934 -1.88545,2.78335 -3.28286,5.19704 -3.16861,6.54032 0.0571,0.67164 0.49216,0.69906 0.9867,1.04083 0.49454,0.34177 2.55506,-0.2296 3.51975,0.13717 2.16222,0.82208 2.33119,4.83518 2.90832,7.91147 1.0093,5.38008 -0.81362,6.97113 -4.76218,6.97113 -1.71698,0 -2.79566,-0.0538 -4.07255,0.906 -1.27688,0.95981 -0.70042,1.35512 -3.21022,5.40963 -1.67896,2.71231 -3.00767,5.82637 -5.66311,7.80851 -1.32772,0.99106 -3.30275,1.10735 -5.26674,1.77472 -1.96399,0.66737 -3.36459,1.72801 -5.91066,2.55623 -2.99323,0.97368 -6.67394,1.51982 -8.6393,2.25647 -1.96535,0.73665 -2.76769,1.82162 -3.16043,2.29485 -0.39274,0.47322 -0.77993,1.62281 -1.05723,3.17206 -0.2773,1.54926 -0.29338,3.26098 -0.27952,5.33338 l 0.6375,5.20716 c 0.0327,1.3441 -0.38396,2.6133 -1.61133,3.74739 -1.19179,1.06069 -2.81306,1.79927 -4.41347,2.55349 -2.79555,1.31746 -3.93542,1.2824 -4.93978,1.76443 -0.44923,0.2156 -0.33571,-0.26177 -2.40619,1.15199 -2.07049,1.41376 -6.32496,4.71865 -7.30396,5.55503 -2.21615,1.89332 -2.62136,2.31369 -3.44029,1.83908 -0.81892,-0.47461 -2.05156,-1.84421 -4.81788,-3.53084 -2.8652,-1.74691 -3.73492,-2.089 -6.83075,-2.25765 -3.09584,-0.16865 -5.3799,0.38847 -7.2074,2.33374 -1.62935,1.73436 -2.39135,3.6165 -5.2517,4.76146 -2.86035,1.14496 -7.76371,1.36127 -9.47775,0.96961 -1.49744,-0.34217 -3.26986,-2.13754 -4.71036,-3.63283 -1.14104,-1.18443 -2.14527,-2.16546 -3.77428,-2.41569 -1.62901,-0.25023 -3.80695,-0.19769 -7.22571,-0.0862 -9.94395,0.32431 -13.90583,1.48402 -14.50469,7.48299 -0.24719,2.47611 -1.90645,7.41933 -3.84649,8.85273 -1.84255,1.36138 -3.33691,2.46039 -3.0358,3.56681 0.3406,1.25155 1.35881,3.05447 2.57634,4.55677 1.21753,1.5023 1.92727,2.26204 3.06512,2.31111 1.23639,0.0533 3.4561,-0.16386 5.29347,2.41825 1.83736,2.58211 3.29238,7.96351 3.88328,11.259 0.46575,2.59756 1.59185,5.79278 3.12492,7.19505 1.53307,1.40227 2.61086,1.89466 2.56034,3.2059 -0.0253,0.65562 -0.17528,2.2147 -0.60757,3.46658 -0.43228,1.25187 -1.14684,2.19655 -1.94763,4.45178 -1.13244,3.18925 -1.00424,5.11336 -1.40424,6.66171 -0.40001,1.54834 -1.32823,2.72092 -1.92186,3.52321 -1.18712,1.60438 -4.27696,2.61191 -6.79085,3.24261 -3.20233,0.80342 -7.59899,-0.95877 -10.0737,-5.64794 -1.60712,-3.04524 -1.45372,-1.88737 -2.77748,-1.95716 -1.32376,-0.0698 -1.05679,0.25379 -2.64647,2.43607 -1.12314,1.54182 -1.65084,3.01204 -2.31303,3.48578 -0.66219,0.47374 -3.54589,0.0845 -5.15289,-0.19494 -3.37725,-0.58731 -4.52286,-2.17795 -4.00112,-6.73579 0.24843,-2.17024 0.43498,-4.15795 -0.29884,-5.50194 -0.73382,-1.344 -1.66416,-2.32363 -3.15738,-2.87377 -1.49321,-0.55015 -2.93057,-0.715 -5.20875,-0.51784 -2.27819,0.19717 -3.87173,1.26048 -6.93912,2.22879 -6.34941,2.00437 -7.55329,1.58548 -11.38004,0.23128 -4.49963,-1.59231 -5.83319,-3.42748 -5.80916,-7.79275 0.0241,-4.37589 -0.067,-4.60474 -3.54533,-4.94501 -2.50605,-0.24516 -5.31627,1.08489 -7.62148,2.89817 -3.19783,2.51541 -3.17963,2.85021 -2.65737,8.2853 0.27187,2.82935 0.79782,5.4146 2.26734,7.52262 1.46951,2.10802 4.19195,2.72234 9.12195,7.35507 5.77547,5.42722 13.77839,14.00358 17.13612,18.03228 2.62505,3.14961 4.22863,4.36749 4.99916,6.49607 0.77054,2.12858 0.70803,5.16787 0.70803,7.54089 0,5.75698 1.97703,8.2922 10.00823,15.52282 3.50234,3.15322 4.37135,2.03666 2.7531,6.51185 -0.92475,2.55739 -2.85997,7.51698 -4.03038,7.88846 -4.05823,1.28804 -13.19657,-1.83267 -19.75642,-6.82561 -3.62602,-2.75988 -7.78066,-6.05034 -9.28657,-6.82599 -1.50589,-0.77564 -3.1092,-3.10033 -3.56289,-5.16598 -0.98855,-4.50081 -6.20222,-7.81419 -22.0388,-16.3989 -5.02105,-2.72182 -9.38089,-4.71332 -11.11546,-6.21672 -1.73456,-1.5034 -0.97642,-2.38611 -0.97642,-3.8626 0,-4.62269 -2.62159,-9.07041 -5.55567,-7.94451 -0.99721,0.38266 -1.73808,1.76236 -2.33211,3.07811 -0.69146,1.53157 -0.67471,3.76198 0.11904,5.63831 0.68113,1.61013 0.96716,3.08856 1.30959,4.58578 l -0.10463,5.2045 -5.95466,3.05853 -3.43557,3.10276 1.01206,6.91542 1.23305,7.2248 c -1.51571,1.71631 -3.64834,2.40443 -5.48338,3.58852 -1.55748,1.00499 -3.16685,2.0759 -3.99956,2.17361 -0.83271,0.0977 -0.79385,-0.72357 -1.33345,-1.26317 -0.23543,-0.23543 -2.17927,-1.25867 -2.79483,-3.59596 -0.61556,-2.3373 -0.2564,-6.20962 -0.65883,-7.63539 -0.80486,-2.85156 -0.32504,-0.77831 -0.78366,-3.64706 -0.91726,-5.73749 -0.46181,-9.14586 -0.50892,-14.38288 -0.0418,-4.64116 0.92433,-1.0655 -0.29868,-2.54143 -1.22301,-1.47593 -3.66285,-1.72787 -7.15767,-2.35697 -4.08327,-0.73502 -4.68993,-0.0251 -6.87275,3.07375 -2.55467,3.6267 -3.41161,4.952 -2.95201,7.9777 0.2298,1.51286 1.19754,3.71598 2.35837,5.85006 1.16084,2.13408 3.88479,4.55267 5.94766,7.91069 1.29256,2.10409 1.7636,7.32545 2.22194,12.54852 0.45834,5.22308 0.50625,9.74077 -0.37326,11.14463 -1.33496,2.13085 -9.60954,1.26571 -10.85328,-0.73484 -0.25538,-0.41077 -1.79152,-0.67441 -1.11112,-4.46021 0.26152,-1.4551 0.69735,-3.43459 0.32025,-4.1563 -0.37709,-0.72171 -1.28975,-1.62102 -2.80476,-2.0399 -4.52303,-1.25054 -9.23546,-1.39162 -11.75648,0.54356 -2.52102,1.93519 -3.73451,5.19533 -3.73451,10.12851 0,4.62722 0.19663,6.77016 -1.69069,7.78022 -3.30129,1.7668 -6.16036,3.36726 -7.82933,1.35628 l -4.24264,-7.15945 z"
       id="path3850"
       inkscape:connector-curvature="0"
       sodipodi:nodetypes="csssssscssssssssssssccssscssssssssscsssssssscssssssssssssscsssssssssssssssssssssssssssssssssssssssssssssssssssssssssssssscsssssssssssssssssssssssssscsssssccsssssssscsssssssssssssssssssssssssscssssssssssssssssssssssssccsssssssssssssssssssszssssssssssssssssssssssssssssssssssssssccccccssssssssssssssssssssssccc" />
    <path
       style="color:#000000;fill:none;stroke:#838383;stroke-width:1px;stroke-linecap:butt;stroke-linejoin:miter;stroke-miterlimit:4;stroke-opacity:1;stroke-dasharray:none;stroke-dashoffset:0;marker:none;visibility:visible;display:inline;overflow:visible;enable-background:accumulate"
       d="m 361.75,110.75 c 0,0 6.5,5.5 11.25,8.5 4.75,3 9.25,5 9.5,9.25 0.25,4.25 -0.5,12.5 -2.75,16 -2.25,3.5 -5,8.5 -5,12 0,3.5 -2.25,10 2.5,11.25 4.75,1.25 12,0.25 13,2.75 1,2.5 1.25,6 3.75,7.75 2.5,1.75 4,5.5 9,8.5 5,3 10.25,3.75 11.25,5.75 1,2 7,8.5 7.5,12.25 0.5,3.75 3,4 3,8.5 0,4.5 -2.25,14.75 -3.5,16.75 -1.25,2 -5.25,3.5 -4.25,5.25 1,1.75 4.5,4.75 7.75,5 3.25,0.25 13.25,-3.25 14.75,-2 1.5,1.25 3.5,4.5 4.25,6.75 0.75,2.25 2.5,8 3.25,10 0.75,2 1,4.25 2.75,3.25 1.75,-1 4.5,-5.5 5.5,-6.75 1,-1.25 5.25,-3.75 7,-3.25 1.75,0.5 8.25,4.25 9.5,7 1.25,2.75 1.25,9.75 3.5,10.5 2.25,0.75 4,2.25 4,2.25"
       id="path3013"
       inkscape:connector-curvature="0" />
    <path
       style="color:#000000;fill:none;stroke:#838383;stroke-width:1px;stroke-linecap:butt;stroke-linejoin:miter;stroke-miterlimit:4;stroke-opacity:1;stroke-dasharray:none;stroke-dashoffset:0;marker:none;visibility:visible;display:inline;overflow:visible;enable-background:accumulate"
       d="m 229.5,205.5 c 0,0 2.5,-2 2,5 -0.5,7 -3.25,14.25 -3.25,18.75 0,4.5 2.75,20.25 0.5,20.75 -2.25,0.5 -12,4.25 -15,5.75 -3,1.5 -12,4.75 -13,6.75 -1,2 -1.75,4.25 -2,11.25 -0.25,7 -2.75,19 -2.5,22.25 0.25,3.25 -1,12.5 -1.5,15.25 -0.5,2.75 -1.5,15.5 -4,18.25 -2.5,2.75 -7.25,6.5 -7,8.25 0.25,1.75 1,2.5 -2,3.75 -3,1.25 -4.75,2.75 -5.75,4 -1,1.25 -11.25,9 -11.25,9"
       id="path3783"
       inkscape:connector-curvature="0" />
    <path
       style="color:#000000;fill:none;stroke:#838383;stroke-width:1px;stroke-linecap:butt;stroke-linejoin:miter;stroke-miterlimit:4;stroke-opacity:1;stroke-dasharray:none;stroke-dashoffset:0;marker:none;visibility:visible;display:inline;overflow:visible;enable-background:accumulate"
       d="m 289,147.375 c 0,0 0.5,5.25 -1.125,7.5 -1.625,2.25 -10,11 -6,18.25 4,7.25 11.875,20.875 9.75,23.875 -2.125,3 -6.25,11.625 -1.875,13.75 4.375,2.125 12.625,7.125 12.75,9.125 0.125,2 -3.25,11.125 -4.75,12.5 -1.5,1.375 -3,9.875 -11.25,14.25 -8.25,4.375 -18.75,9.25 -22.125,10.625 -3.375,1.375 -9.125,4.125 -13.625,1.625 C 246.25,256.375 232,251.5 232,251.5 l -2.5,-2.375"
       id="path3785"
       inkscape:connector-curvature="0" />
    <path
       style="color:#000000;fill:none;stroke:#838383;stroke-width:1px;stroke-linecap:butt;stroke-linejoin:miter;stroke-miterlimit:4;stroke-opacity:1;stroke-dasharray:none;stroke-dashoffset:0;marker:none;visibility:visible;display:inline;overflow:visible;enable-background:accumulate"
       d="m 302.6417,219.57329 c 0,0 2.47488,-1.23744 9.72272,-4.24264 7.24784,-3.00521 10.96015,-3.00521 13.43503,-0.88389 2.47487,2.12132 4.77297,4.94975 10.78338,4.41942 6.0104,-0.53033 11.13693,-1.06066 13.96536,3.71231 2.82842,4.77297 3.0052,7.07107 5.48007,8.48528 2.47488,1.41422 4.5962,3.18198 7.24785,2.2981 2.65165,-0.88388 3.0052,-2.65165 6.18718,-4.24264 3.18198,-1.59099 3.53554,-3.0052 3.71231,-6.18719 0.17678,-3.18198 0.70711,-9.89949 3.18198,-10.25304 2.47488,-0.35356 9.72272,-4.06587 10.42983,-5.48008 0.7071,-1.41421 4.77297,-10.78338 6.54074,-11.31371 1.76776,-0.53033 2.65165,-6.71751 4.24264,-7.42462 1.59099,-0.70711 3.18198,-3.53553 3.18198,-3.53553"
       id="path3787"
       inkscape:connector-curvature="0" />
    <path
       style="color:#000000;fill:none;stroke:#838383;stroke-width:1px;stroke-linecap:butt;stroke-linejoin:miter;stroke-miterlimit:4;stroke-opacity:1;stroke-dasharray:none;stroke-dashoffset:0;marker:none;visibility:visible;display:inline;overflow:visible;enable-background:accumulate"
       d="m 362.92255,233.71542 c 0,0 0.70711,5.65686 1.41422,10.42983 0.7071,4.77297 -0.70711,13.08147 1.06066,18.03122 1.76777,4.94975 2.47487,8.66206 4.94975,11.49049 2.47487,2.82842 9.36916,7.77817 9.89949,10.42982 0.53033,2.65165 2.65165,6.54074 2.82843,10.25305 0.17677,3.71231 1.94454,7.95495 1.94454,7.95495"
       id="path3789"
       inkscape:connector-curvature="0" />
    <path
       style="color:#000000;fill:none;stroke:#838383;stroke-width:1px;stroke-linecap:butt;stroke-linejoin:miter;stroke-miterlimit:4;stroke-opacity:1;stroke-dasharray:none;stroke-dashoffset:0;marker:none;visibility:visible;display:inline;overflow:visible;enable-background:accumulate"
       d="m 284.96403,247.68078 c 0,0 5.3033,6.71752 5.83363,7.6014 0.53033,0.88388 4.24264,8.83883 6.18719,10.07627 1.94454,1.23744 8.48528,0.53033 10.96015,2.65165 2.47488,2.12132 3.53554,6.01041 5.65686,6.36396 2.12132,0.35356 10.78337,0.17678 12.19759,3.35876 1.41421,3.18198 3.35876,9.19239 1.76777,10.78338 -1.59099,1.59099 -0.70711,5.12652 1.94454,6.89429 2.65165,1.76777 7.07107,1.94454 9.89949,1.76777 2.82843,-0.17678 7.07107,1.59099 8.66206,2.65165 1.59099,1.06066 3.18198,14.14213 4.77297,15.20279 1.59099,1.06066 6.01041,4.94975 7.95495,5.65686 1.94455,0.7071 4.41942,0.17677 4.41942,0.17677"
       id="path3791"
       inkscape:connector-curvature="0" />
    <path
       style="color:#000000;fill:none;stroke:#838383;stroke-width:1px;stroke-linecap:butt;stroke-linejoin:miter;stroke-miterlimit:4;stroke-opacity:1;stroke-dasharray:none;stroke-dashoffset:0;marker:none;visibility:visible;display:inline;overflow:visible;enable-background:accumulate"
       d="m 290.09056,253.86797 c 0,0 6.36396,6.0104 11.66726,5.12652 5.3033,-0.88388 6.01041,-1.59099 12.55114,-6.54074 6.54074,-4.94974 13.08148,-6.71751 14.84925,-4.24264 1.76776,2.47488 4.06586,5.83363 8.13172,6.01041 4.06587,0.17678 9.36917,-1.94454 11.66727,-1.76777 2.29809,0.17678 10.07627,1.94455 11.49048,2.2981 1.41421,0.35355 4.06586,0.17678 4.06586,0.17678"
       id="path3793"
       inkscape:connector-curvature="0" />
    <path
       style="color:#000000;fill:none;stroke:#838383;stroke-width:1px;stroke-linecap:butt;stroke-linejoin:miter;stroke-miterlimit:4;stroke-opacity:1;stroke-dasharray:none;stroke-dashoffset:0;marker:none;visibility:visible;display:inline;overflow:visible;enable-background:accumulate"
       d="m 368.40263,270.66175 c 0,0 -7.77817,-0.35355 -10.25305,2.12132 -2.47487,2.47488 -3.71231,5.83363 -6.0104,6.18719 -2.2981,0.35355 -4.77297,1.41421 -5.12653,3.53553 -0.35355,2.12132 -0.7071,6.36396 -1.41421,6.36396 -0.70711,0 -1.23744,8.83884 -1.23744,8.83884"
       id="path3795"
       inkscape:connector-curvature="0" />
    <path
       style="color:#000000;fill:none;stroke:#838383;stroke-width:1px;stroke-linecap:butt;stroke-linejoin:miter;stroke-miterlimit:4;stroke-opacity:1;stroke-dasharray:none;stroke-dashoffset:0;marker:none;visibility:visible;display:inline;overflow:visible;enable-background:accumulate"
       d="m 333.22407,296.1176 c 0,0 -3.88909,7.42462 -9.01561,10.78337 -5.12653,3.35876 -12.55115,3.88909 -14.31891,4.41942 -1.76777,0.53033 -2.82843,2.82843 -3.53554,3.53554 -0.7071,0.7071 -2.29809,0.17677 -1.76776,1.94454 0.53033,1.76777 2.65165,6.71751 2.29809,9.89949 -0.35355,3.18199 0.88389,12.9047 -1.06066,14.84925 -1.94454,1.94454 -3.53553,1.76776 -3.18198,3.18198 0.35355,1.41421 1.94455,2.65165 1.94455,2.65165"
       id="path3797"
       inkscape:connector-curvature="0" />
    <path
       style="color:#000000;fill:none;stroke:#838383;stroke-width:1px;stroke-linecap:butt;stroke-linejoin:miter;stroke-miterlimit:4;stroke-opacity:1;stroke-dasharray:none;stroke-dashoffset:0;marker:none;visibility:visible;display:inline;overflow:visible;enable-background:accumulate"
       d="m 256.14943,259.87837 c 0,0 3.0052,1.06066 1.94454,3.53554 -1.06066,2.47487 -4.41941,13.78858 -4.24264,19.09188 0.17678,5.3033 3.71231,13.25825 4.06587,15.73313 0.35355,2.47487 -0.88389,11.66726 -1.59099,13.96536 -0.70711,2.29809 -2.65165,7.60139 -4.24264,8.13172 -1.59099,0.53033 -8.83884,1.06066 -9.36917,2.65165 -0.53033,1.59099 -0.35355,5.3033 -2.65165,9.54595 -2.2981,4.24264 -2.12132,10.25304 -4.59619,10.96015 -2.47488,0.70711 -3.53554,3.71231 -3.35876,5.65685 0.17678,1.94455 -0.17678,2.65166 2.12132,3.35876 2.2981,0.70711 9.72272,1.06066 11.31371,5.3033 1.59099,4.24264 1.76777,16.26346 3.18198,16.79379 1.41421,0.53033 4.77297,2.2981 5.3033,5.3033 0.53033,3.0052 2.47487,16.26346 0.35355,17.32412 -2.12132,1.06066 -6.18718,4.94974 -7.07106,5.48007 -0.88389,0.53033 -2.65165,0.35356 -2.65165,0.35356"
       id="path3799"
       inkscape:connector-curvature="0" />
    <path
       style="color:#000000;fill:none;stroke:#838383;stroke-width:1px;stroke-linecap:butt;stroke-linejoin:miter;stroke-miterlimit:4;stroke-opacity:1;stroke-dasharray:none;stroke-dashoffset:0;marker:none;visibility:visible;display:inline;overflow:visible;enable-background:accumulate"
       d="m 304.40947,316.27014 c 0,0 -7.07107,1.59099 -8.48528,0.70711 -1.41422,-0.88389 -3.53554,-2.12132 -5.48008,-2.12132 -1.94454,0 -8.83884,0.53033 -9.19239,1.76776 -0.35355,1.23744 -2.65165,5.3033 -6.01041,7.24785 -3.35875,1.94454 -3.18198,1.06066 -6.54073,3.71231 -3.35876,2.65165 -4.24264,2.82843 -4.24264,5.3033 0,2.47487 -1.41422,5.48008 -1.59099,7.07107 -0.17678,1.59099 -0.88389,4.24264 1.59099,4.59619 2.47487,0.35355 2.29809,0.53033 4.41941,2.82843 2.12132,2.29809 1.06066,3.0052 -2.82842,5.65685 -3.88909,2.65165 -3.88909,3.00521 -4.77298,6.01041 -0.88388,3.0052 -3.18198,4.06586 -0.53033,7.6014 2.65166,3.53553 5.30331,6.71751 6.36397,9.01561 1.06066,2.2981 2.47487,5.65685 2.47487,5.65685"
       id="path3801"
       inkscape:connector-curvature="0" />
    <path
       style="color:#000000;fill:none;stroke:#838383;stroke-width:1px;stroke-linecap:butt;stroke-linejoin:miter;stroke-miterlimit:4;stroke-opacity:1;stroke-dasharray:none;stroke-dashoffset:0;marker:none;visibility:visible;display:inline;overflow:visible;enable-background:accumulate"
       d="m 270.29157,348.97383 c 0,0 8.66205,-0.35356 14.67246,0.53033 6.01041,0.88388 13.78858,3.0052 13.78858,3.0052 l 0.17678,0.35356"
       id="path3803"
       inkscape:connector-curvature="0" />
    <path
       style="color:#000000;fill:none;stroke:#838383;stroke-width:1px;stroke-linecap:butt;stroke-linejoin:miter;stroke-miterlimit:4;stroke-opacity:1;stroke-dasharray:none;stroke-dashoffset:0;marker:none;visibility:visible;display:inline;overflow:visible;enable-background:accumulate"
       d="m 269.76124,380.79363 c 0,0 1.41421,-2.29809 5.48007,-1.76776 4.06587,0.53033 17.85445,-0.35356 18.73833,-2.12132 0.88389,-1.76777 2.47488,-6.8943 3.88909,-8.48529 1.41421,-1.59099 2.65165,-4.41941 2.65165,-4.41941"
       id="path3805"
       inkscape:connector-curvature="0" />
    <path
       style="color:#000000;fill:none;stroke:#838383;stroke-width:1px;stroke-linecap:butt;stroke-linejoin:miter;stroke-miterlimit:4;stroke-opacity:1;stroke-dasharray:none;stroke-dashoffset:0;marker:none;visibility:visible;display:inline;overflow:visible;enable-background:accumulate"
       d="m 184.20132,339.78144 c 0,0 7.42462,5.12652 10.96015,6.36396 3.53553,1.23744 8.30851,5.12653 13.08148,4.94975 4.77297,-0.17678 9.89949,-4.77297 13.6118,-4.06587 3.71231,0.70711 10.6066,3.18198 10.6066,3.18198"
       id="path3807"
       inkscape:connector-curvature="0" />
  </g>
</svg>
